/* XPM */
static char *d8106f94ed08466ed5e364d16256c903H95aUkEcf2RsVrdy[] = {
/* columns rows colors chars-per-pixel */
"72 72 197 2 ",
"   c #1B1F09",
".  c #0C2F02",
"X  c #182E07",
"o  c #1B250A",
"O  c #172E08",
"+  c #1E2D0C",
"@  c #123005",
"#  c #143F07",
"$  c #173209",
"%  c #1D340A",
"&  c #173B09",
"*  c #1D3B0C",
"=  c #23250D",
"-  c #2B250F",
";  c #242C0E",
":  c #292D0E",
">  c #23340D",
",  c #2A340F",
"<  c #233C0E",
"1  c #293B0F",
"2  c #272510",
"3  c #2C2312",
"4  c #272A10",
"5  c #2C2D11",
"6  c #332514",
"7  c #392417",
"8  c #332C15",
"9  c #3A2C17",
"0  c #3D261A",
"q  c #3B2C19",
"w  c #253511",
"e  c #2C3413",
"r  c #263D11",
"t  c #2C3C13",
"y  c #2F3F18",
"u  c #333416",
"i  c #393516",
"p  c #323C16",
"a  c #393B16",
"s  c #363418",
"d  c #3C341A",
"f  c #353C19",
"g  c #3C3C1B",
"h  c #422C1B",
"j  c #482E1D",
"k  c #43331C",
"l  c #49351E",
"z  c #423C1D",
"x  c #463723",
"c  c #4C3623",
"v  c #453D21",
"b  c #4D3D22",
"n  c #523723",
"m  c #533C24",
"M  c #5A3F29",
"N  c #17420A",
"B  c #1D440C",
"V  c #1D4A0C",
"C  c #1E540E",
"Z  c #1F5B0F",
"A  c #23430E",
"S  c #2A430F",
"D  c #234B0F",
"F  c #28480F",
"G  c #22530E",
"H  c #28560E",
"J  c #225D0F",
"K  c #254411",
"L  c #2B4413",
"P  c #254C11",
"I  c #2C4C14",
"U  c #2E4D18",
"Y  c #324416",
"T  c #3A4417",
"R  c #314C16",
"E  c #344419",
"W  c #3B431B",
"Q  c #344C19",
"!  c #3A4C1C",
"~  c #255312",
"^  c #2C5315",
"/  c #255B12",
"(  c #2C5B15",
")  c #2F5418",
"_  c #2E5C18",
"`  c #315316",
"'  c #315C17",
"]  c #34541A",
"[  c #3B541D",
"{  c #335B1A",
"}  c #3A5B1D",
"|  c #256213",
" . c #2B6316",
".. c #2C6A16",
"X. c #2E6319",
"o. c #2E6A19",
"O. c #316117",
"+. c #34631B",
"@. c #3A631E",
"#. c #336E1B",
"$. c #356A1C",
"%. c #346B1C",
"&. c #396A1E",
"*. c #396A1F",
"=. c #396D1E",
"-. c #2A7117",
";. c #2F711A",
":. c #34731D",
">. c #39721F",
",. c #38741F",
"<. c #35791E",
"1. c #38791F",
"2. c #3F4522",
"3. c #3F4B21",
"4. c #3E5320",
"5. c #3B5D20",
"6. c #3D5C21",
"7. c #3E5E20",
"8. c #3A6120",
"9. c #3A6720",
"0. c #3D6421",
"q. c #3E6522",
"w. c #3A6A21",
"e. c #3C6B21",
"r. c #377420",
"t. c #397320",
"y. c #3C7322",
"u. c #377D20",
"i. c #3C7A22",
"p. c #42431D",
"a. c #414B1E",
"s. c #41521E",
"d. c #405C1F",
"f. c #434421",
"g. c #4C4424",
"h. c #444C22",
"j. c #4A4820",
"k. c #4B4C23",
"l. c #4F4B29",
"z. c #514324",
"x. c #594127",
"c. c #554826",
"v. c #52432B",
"b. c #554A2A",
"n. c #5A4B2B",
"m. c #435422",
"M. c #445721",
"N. c #4B5425",
"B. c #435B23",
"V. c #445E24",
"C. c #4B5B26",
"Z. c #4D562B",
"A. c #4A5A2B",
"S. c #555229",
"D. c #5C562F",
"F. c #545B2B",
"G. c #5F5E2D",
"H. c #60422A",
"J. c #655D37",
"K. c #426323",
"L. c #406723",
"P. c #4A6326",
"I. c #426C24",
"U. c #496B25",
"Y. c #4C642A",
"T. c #466E28",
"R. c #4C6B29",
"E. c #53642B",
"W. c #5A642F",
"Q. c #526D2D",
"!. c #5B682D",
"~. c #427325",
"^. c #437B26",
"/. c #467328",
"(. c #467629",
"). c #4A732A",
"_. c #457B29",
"`. c #4A7C2C",
"'. c #596831",
"]. c #4F7730",
"[. c #557332",
"{. c #5D7634",
"}. c #547D30",
"|. c #666C3A",
" X c #6B6A3E",
".X c #756C42",
"XX c #7A764A",
"oX c #34841E",
"OX c #3B8123",
"+X c #428227",
"@X c #448229",
"#X c #4A832D",
"$X c #438A29",
"%X c #4A912E",
"&X c #5A8737",
"*X c #4F9732",
"=X c #539233",
/* pixels */
"^ e @.j.{ t ^ +.) ^ g.y e ` ,.^.@.+.O.O.@.>.7.> I } (.X.^ r.L.m.[ ~ t p R } _ #.{ { ` } I.^.w.Q { U L 8 Q ] o.OX] ~  .+.^ U ; , o L l.+.P ~ A  .",
"L Y { [ ] Q ^  .` ) [ 6 z L :.+.O.] E { } *.} F M.L.)  .{ $.r E T P y u K.7.^ U { ) { @.[ +X_ 0.~.{ L s @.+.$.#.$.O.^ @.~ { t.{ 8.U E V.~ A < { ",
"] ] { [ 7.1 { _ X.L } 8 Y  .@.( +.O.L E ] { X.[ @.) V / R P I p E ) ` u ` e.t ` ~ _ { [ Q { 8.} @.+.` R *.O.^ o.U I 0.=...Y B.$.[ 9.{ Y ( e y ) ",
"_ _  .` h.^ ^ ( L L K L D _ ` ~ ^ _ $.] @.` i.(.{ a [ >.L ^ P 5.0.*.L ; I w.R R I #.t { 0.+.r t h.` U { _ ^ ) O.] ` } { *.o.] U _ { +.+.X.y ! ( ",
"5 T / ~ } ) L +.[ p A ` a.e.~ D  .^ ~ .. .] e._ T m.0.O._ i.~.{ @.} [ U a.@.I 1 , +.L 0.`  .t Q f.[ ^ $.^ R D / U ] } L p +.^ r Y ^ < _ #.{ } U ",
"f Q /  .+.{ I ` ] , A E @.=.^ K D / C ..^ } ^ ~ R L <.( ~.%Xy.+.t.} V.T.&X@X#.} { $.e.,.w I T h.a.{ { I ' P < / Q ] ! t , L { I I r V N ~ +.{ +.",
"Q $.+.+.^ L [ Q ~ . % L O.I.] ) P A C ~ R L ~  .+.{ i.^.^._ { O.e.@X`._ { 1.r.~.I.e.{ ^ } } P.W $.{ I < r < w I L W M.] Y L Y _ / r Y < A #.O.U ",
"] { $.~ o.' } e.#.K < D L *.s./ { I ~ I I A ~ { ] w.@.} ! L Q O.( +X=X! g +.:./ +.~.Q R _ } m.t _ ^ U A 5 5 t & K E ! $.K.! [ ` I o.] K 9.<.$.{ ",
"D U +.^ { { K.[ >.#.o.$.) _ ^ | { { ) ) S , R { *.+.{ +.] r Q o._ `.T._.w.` t.e.{ #.) +.) w.E L ^ ^ L < 3 5 1 % K s.p U P.V.I A < P OX:.+.:.~ I ",
"+.{ U +.~.e.y.=.t.~ ..$._ O.~ o.~ { P O.s z % { +.{ ] ^ ) L P ^ } T.{ *.$.+.@.~.i.<.~ { } ] * ~ ` I w < p.p.> > L z.c m.N.C.a.w A ` $.] <. . .B ",
"( ) } _ @.`.B.Y ^ | -.o.Y O./ ^ L _ O U a.f.K +.w.` L P @.* ~ w.5.} P ~ +.K { I.~.<.e.+.+.[ L L ^ I ^ { W F.v.p R n.D.! T g.Q U ( { { [ X.C :.P ",
"X.+.[ { I.0.b ! ( G t I  .~ ' P L { t Y { 4 Y ! ` ] ^ } R P U +.e.! 1 A { t ^ +.=.e.t.+.( $.U p 0.{ I.U s g v k.a.z.d.] U 3 Y L ^ _ +.@.U  . .~ ",
"+.K.` L K.} p Y ^ / Y L P D ~ ) ~ ) ^ Y +.y U Y L R u K.A E [ R { @.R ~ $.+.V [ ' ' $.$.' ' I { ).^.} L c W ] E [ C.[ T e e t R K ^ { #.4.0. .$.",
"e.} +.+.} ` o.{ / p k T L V J ^ e ! ~ ^ I A a t U ' Y.}.U [ } p ] { p P _ +.G / O.:.:.+.{ _ _ +.+X^ r { J.H.N._ p.h.Q.C.) ^ E ] ^ ` $.) ^  .o.` ",
"+.) L } +.^ +.w.( L f.a : * | ..^ d 7 P / F d m.` { e.! L $.7.Q ^ Y U r ^ ` I A ` i./ y Q L D { ^./ X > N.k.z ) L.+.X.e.^.` T ` ^ y ` O.<.:.:.:.",
"I r ^ @.^ $.e.U  .;.o._ A V | ( V V e ) ..J  .#.I 5.I.m.R R Y y _ { ^ I ^ ` t ! Q I _ @.@.` A +.}  .B > N.{ ` P ^ { Q R C.8 h g 1 t ) / ^ o.i.$.",
"4 9 1 @.$.r. .| _ R U K V / t L + , P U ` t P I Q } A < Q [ K.U K Y U o.K L ) { r 1 ~ ~ _ O.) e.{ ~ K ) ^ < ` P L t { |.f.! d q U ` +.G A G i.` ",
"w ! $.*.` y.o._ I , ! Y V ~ s 1 o s p.~ P ; ` ` U L = U e.0.I.e.+.[ ` _ _ @.r L ~ > e._ _ _ ) +.@.^ ^ o.A 1 > I e t X.0.w f K.{ :.o.} ^ K U <.^ ",
"^ { } ] +.] Y W { r e _ / & > R A ! N.R ~ o L { D 1 u [ @.] I +.#.:.*.{ R e.^ > W Y P ( U ^ K I } ^ _ / A > 2 r L e ~ +.K.[ T./.K.I.` G G ] ;._ ",
"` { R Y @.^ a.S.p.> * ) _ a N.0.X.R f Q K K R [ ^ D Q { ! p.Q _ Y Q ; I U @.i.t u { ; < ` ) < < ] e { _ B % 4.Y * L } { 7.a u E u W U * * } / ( ",
"O.~ A U ` ^ 6 m.] a L _ K 5 p m.9.! q m.L A I a ` D [ U p [ T.T.C.M.r ~ > { } ` 9.] z E +.I , e ` U { e.$.I.y.L I R L O.` Y r R e t I *.I } ~ G ",
"V A > U R K d ~.! N.T K < t t ! ! e.Y.E.h.U Y 1 A } R w I d.k.E g a L I U e.E E [ Q ` +.#.{ [ @.) Y ~ :.u.0.} I.U < p I U { E s L I R K.] _ ^ P ",
"P K w p ^ L @.+.0.R.} I f R e a.z m.T.@.P { A < [ e.^ & Q m ! p u E I D D { [ ] ] V.U D } #.r. .+.` { +.@.L +.Q @.{ ] { @.$.p a.@.} I.C.P.^ t K ",
"N K P } .._ ) R W h } { R R R L.} ! L U R ) o.} ! L B Q P.z e Y l.d Y R ^ +.} Q } E { ` T ..$.$.e.Q R } O. .] d a.f { } @.] Y W T.K.y.W.I.O. .A ",
"( +.0.) o.^ I L T m b { { Q M.] p R P ^ +.{ (  .L < V ] [ 8 e m.l l > Y U ! K.] B.{ ` Y V G $.:.+.} $.! < | s v ! ] Y } ] t 8 K.P.e...@. .' L.*.",
"#.+.m.P P P ~ < Y b h U @.} m.Y R f.0.V.@._ P @._ ( U 5 5 9 ! Q m z > t ] [ ! t ) ) > I < K X.' K #.+.L >  .{ ] L ! L < } [ h.[ 7.@.@.L { @.[ L.",
"^ V ~ w A /  .G ~ ! g U 9.`.K.(.e.[ 0.+.t L U K  ._ I g 8 ! ` 5 7 6 d L T Q f S.} I V ^ L A _ _ D ^ *.r I ( D 6 d ! ` < s } [ L =.+.0.4.Y Y > , ",
"~.I L /  . .{ [ R +.P.0.@.).K.[ I.[ ` ) t U K V N P ~ ] h.t a.8 m b m p Y E u f.` A A < % > ^ X.L ^ @.o.] U G R M.k ! L f K.0.E O.+.9., R +.{ 8.",
"y.5.P G / / O.K.[ ] +.{ { I.[ M.e.R ` ..; ] o.w.A.d U V @.e.K.m.l c.m.L Y e e Q p + L V * & L P K ` @.) X.#.) ^ K.v T [ f.0.+.} $.{ { [ 7.t.:.B.",
"U _ o.{ P / < Q } u L A ` 0.I.7.L ' ` _ { u.<.$.f.p.E  .$.`.h.! j.j T E t   % P A.~ h.< N % Y L ~ I R @.;.^ I % d K.g T s.N.' ^.i.i.$.Q ] { L E ",
"L ) ` ! U ` ` Y f W ] / ( E 7.^  .B e *.i.$.=.~ _ @.y._.+.I K.T k h p 1 * w G { R $ 9 c r $ Y ; ` X._ } ^ R ~ % 5 F.B.R } W T [ *X9.] ^ _ ! L * ",
"L U = s [ [ L K t Y R ] K E @. .^ D @.y. ./ t. ./ w._.@.| I 7.` q h a.L ~ | _ C.m.+.k.z ! I T 6 ) :.+.L e _ ~ N r g M.U ` W v.} *._.E ] ^ _ ; = ",
"< L t p L U P A e 0 r ~.L ` @.T Q $.@.i.u.[ h._ { 7.} B.L.] ] [ 8 d p.) ^ ] #Xs 8 k.E.T 4.[ W t ( ( +.P e #.A K [ m.8.Y R t f { R { w.t L P < > ",
"7.} u t L _ V < 5 k K e.$.0.} f U O.' ~ ^ 0.K.} T Q a.} t.! U $.E f.T _ b.k.{ V.a 0 S.d.` } 3._ [ L y.O.p e.~ I f.k.I.=.{ U ^ { t ] +.Q U _ I / ",
"+.^ u 6 E ) B A e W 7.7.{ @.Y ` X.w.{ V + ) { L.e y f U  .e.{ +.L.y / u a.P.% Y } k g.N._ u 7.:.} D +.@.R e.( Q C.P.I.~.$.O.$.9.L R L ` Q ^ / $.",
"1 ^ L u L < > > Y e 4.@.^ $.( P V U { ^ [ { } } K.t t ] ( } [ i.*.D P ! p.K.> a C.h.g t ) 8 [ i.y.$.) ^ U 0.> +.$.! [ [ { K ^ 9.+.` < _ ` L +.L ",
"i < % ) U e , ! s.{ e.( #.e.$XO.V ( A { e.Q L Y 0.` = t { [ } +.{ K L $.[ P.0.M.N.R.Q ] +.$.D U ! } y.X.} U.+.<.oX$.Y [ Q r $.+.L I ~ ( $.0.~ > ",
"T > K ` r E ; T [ j.y._ #.$.$.o.+.}  .] : L R Q W [ L P ^ p y.X.' ` +.+.] C.T ! q [ 0.T.[ [ Z t e P ` +.#.o.^ P.L U @.{ ^ ( R { A ~ ` L { { ! [ ",
"4.R ~ p t A , p p.9 _ ^ {  .^ O._ U } e.y , Q Q ; [ ` ^ P [ } { ' ) ~ P f m.! e.N.! i.Q d < / P P w R L @.+.] Q 5 ; ] 0.) X.$.@.< * @.E 0.> p ] ",
"U K.m.5 A > I ` s t { 2.e +._ ` U A > E @.Q L t L k.[ ) { 0.4.^.=.^ X.#.Q 7.} } Y @.^.Y t % ~ ~ I L ~ g L t.+.( e W } ) 2 0.K.} ^ w { @.[ ] f E ",
"> X.[ h z K @. .U + E Z.k Y P _ U ~ S 1 C.$.} t ` M.M.e.] @.{ { @.Q ` ~ I *.[ f ` :.^.e.X.) D ~ P ~ L g K i.+.+.Q u [ ` p Q 5.` < < I +.g ^ B.E ",
"9 K L a.m R T L ( ; t ! M a D _ ) ^ _ A r U t.{ :.e.e.{ I { K I { ; Q ~ { ~.9.Q o.o.M.[ y.) % / P P ` ] I 0.^ ] { w.0.e.9.f Q U > + L ' Y L N.R.",
"R.{ L [ M.3.a.~ ) o.U ! z t D < I ^ e u B 0.R Q *.` @.) ( _ * P U 0 L } @.} e.{ { _ ! } /.` %  .{ { K r ) I.@.Y y ^ } a.A = a V.r ; 1 U +.p a.[ ",
"` } ` L 0.k a | #.~ P ~ L 5 G A Y ) ` ! K w.@.e.t.{ i.+. .~ D _ +.y { +.{ ` ] U I _ ! } E ] U r._ < t K U ` X.{ { { { R A > z B._ ^ Q U { g B.} ",
"^ t.{ ^ } !  .^ L / ( { L t Z A [ $./ ] @.{ R 0.e.Y ] [ ! Q  .o.y.$.Q U f [ ] } _ ~ [ ! R { *.+.B K U L I } +.) X.+.+.{ { +.[ T.R.R.@.^ / ^ } ` ",
"^ #.R _ ~./ C A A t K.) _ C V Q C.D % t B.L.Y ~ i.>.+.+.U I P P t.O.E 5 a K.R T.] ^ ` +.] ] +.^ L ` U U [ M.7./ ^ ^ { ~.#.K p ! k.S.@.Q | Q ] { ",
"} #.U ` O.L V C P =.=.D +.I B Y P < Q 1 p ` ^ C ..=.{ #. ./ D R I ~.~.! M.a.[ ~.0.I { 0.R ] e.^ I ; < ` ] } { ) ` ` ] e.+.P E R ! p.a.@.~ Q W 1 ",
"T.e.$.I +.) Z I r I.` 5 ) ( K A V W h.e u ^ L % ~ Q $.+.r G G ) I E [ { w._._.] [ { U ] I _ { ) y 8 , p e.! p.R L e f [ +.) Y ) } W L { G { > ; ",
"R.{ ^.] K. .A i { K.E Y ^ K ^ ^ Q S.b W m.[ U /  .~ I 9.t L ] ( X.I 4.A { _.9.! L ] +.t.} X.[ +.* e s ) { a p E u +.4.r ^ ~ / { I.^ L ^ A ` L R ",
"b.s  .e.I.] L P } [.g.] ^ R } O.e b g.! E [ P | A.E w e.e.R [ $.P ) ` I *.~ ] ] R { ) ^ e U +.` m.] [ #.e.! e Q m.T.] U +.^ A ` @._  .{ ` @.X.! ",
"z z H { 8.r e I 7.0.! } ] j.s. .h.n q y ! +./ s m.M.I } { y p I U } R ` ^ A ` R { T.B.+.m.< { +.$.W K D } m.a.h.k.s.) E 0.@.+.w.{ U $.{ _ [ } I.",
".XM. ._ I.t 9 [ B.} 5 < ! [ I  .B.z a 2.O.' ` f t ^ L I.{ t s Y e Q +.*.t p O.O.[ @.} f ` { I.] U ^ & a ` ! W [ U.I > a.! I t *.$.{ < +.<.) ` } ",
"P.{ C K [ w u Y W 7., D m L < ^ e.].K.7.O.o.*.+.Q L.L.{ > < W g.[ ! y._ e } r.^ [ +._ L P V t 0.} _ t 9 Y Y u U r. ._ d.O./ t +.=.{ $.} t  .:.w.",
"_ ~ ~ } /.y a E ! } Q L x I ! A L N.f ) _ /._.0.0.~.{ O.N.u t v  XK.{ R *.{ ! a.j.W L I L A I { R ~ ` f y ! ] { L [ ] M.) K [ #X^.$.{ L w [ ` $.",
"/ # % +.e.Q ! ] } e.[ I e { W * < I ` { ] _ $.` K.{ I ^ m.v p 3.'.} { A _.L d g k k.} <.` e Q { P @ L +.` 4.] ) Y B.] Y ) K 7.w.+.` ^ ) U 3 Q ~.",
"~ P ^ } I.I > Q ] @.E K ^ } _ P ( +.@._ e.X.{ } } Q ` L ~ 7.7.0.T } i.I.{ U g 8 m.~.` E t U ! I V & } { U e 8 ' +.r.( L ] @.K.=.] s L ~ % 5 k.B.",
"< D ` B.} ' U ^ _ ! L O P } { t 1 I ^ _ ! w.e.L.).] < L ` +.U U ' e.^.i.{ ~.` } E +.t a.! { O.P U U K I r T M.I.w.B.^ ^ } $._ +.p [ U * $ I s R ",
"r ' L.4.Q E } ! a 5 I @.T m ` ` @.I P K e 5.e.n.[.) _ O.@.L ^ ` _ O.} ] [ T {  .I 9.] k.k.Y L ^ _ 8 > G I l g e U +.} R ` I ( I ! { { ^ [ y = P ",
"} ' 0.a.] t [ [ T ^ W Y : z R ` :.t.9.< P ` ! B.0.p [ { ^ ` ^ ) 5 ' =.).} / _ U g.W.I.V.p t t @.L g z U ~ e t z K.o.e.+.L % r ^ @.` P._ ^ ! Q ` ",
"I I ~.T p ! p ~ ) ( I.} Y W ` T ' A +.9.$.[ e [ Q Q +.U ^ ] P A 2 ` y.e.I { ] K v F.0.{ Q 3 ] A e a.k t < > d z _ _ +.w.( + - ) t.e.} f e L +.7.",
"D @.{ f L Y t A t 5 ` [ { ^ L ` [ S U } 0.{ +.L.Q @.Q A < R t % I ^ e.{ ~ E L > Y e p [ +.W +.P g k % & B ` m.} ) / _  .=._ ! } ` ^ ^ p [ $.) +.",
"O.8.p a p A < f t 6 p.m.g D G { d a ^ ] L e.} h.] ` 5 t D t T P ( { 0...R e * E z l k.! ] @.L r h l ^ Z r ` 8 5 < I  .$.{ i.O.^ K < ( +.M.! ^ % ",
"{ } p z 9 % > p r v 7 Q B.} ` ^ a s [ 9.) L L.m.` t L R D s B.{ ` R e.:.L > Y k.n M S.} Y ` , r f j.! / / ~ Q A ; < B I +.+X$.^ ^ U 0.I Y U ^ P ",
"{ [ j.Q d e q z.K w q s +.U @.g L R I ] $.t @.} Q t A ^ ^ [ L [ , t $.U ( X.K.2.7 m s.! e R L I r p.P A p U O.( t A B V i.@Xi.~ $.T.Q % I _ P > ",
"] ! ! e 8 m T m.t * k.z I O.{ a.q A ^ R V.! Q [ R A w U y L ^ @.p.g ' L ^  .+.Q a 8 ] s : Y [ L ] L.Q h.g.C.[ r._ ~ ( ..+.[ *.e.e.Q ! K ^ U e L ",
"E M.Q Y 8 p.! N.; % x.z ( $.@.R u e _ I.`.K.{ [ t ; U $.L U 8 E P t ) R +. .i.[ _ ^ { ] R ] M.` ~.t.L.[ p D.XXe.t ^ ..G t.{ $.@.r.e.{ { > L a Q ",
"A a 7.t e R k.S.p L a.k.^ P ` { 6 Y o.{ } p { } L A t L  .P 3 i ! ~ L [ +.^ V.o.r 1 L , d E [ e.{ :.[ m.] R.M.I ( ^ D ( <.:.*.^.y.( ) { t Y L I ",
"t Y B.; 4 g [ F.s.{ Y T & * R { h.s.o.( *.m.] { { 3 g } Y Q L d p ) +.+.I ^ ( +.e w { ` b Y I.+.L Y $.).Y.M.} I _ / P ] ! } >.i.$X:.~  .^ ^ ] < ",
"r , 0.R P.G.!.0.h.f Q W ( +.} ^ K.@.<.u.7.W t { ] 0.[ p.) Y.[.L.$.i.$.| D A ` ` P R : T P.P.E ~ *.T 0.i.i.+.O.] +._ ~ L ] =.t.+.$.( / P ^ I L < ",
"p 0.`.N.E.V.@.y.+.[ ` ~.+.) ^ { +.{ t.K.{ f ! 0.W R { [ +.m.{.u.,.i.i.( B < I Y U k.k.m R ~.t / ^ } L.} t.$.P 5 @.O.U { >.$.Q L ^ X.~ m.Y { < U ",
"! V.R.k.F.R [ @.<.} B.] I { L { e.T ^ ^ _ } [ 0.R ` @.0.^.+.^ A  .+._.+.~ P  .{ +.A.E.a M.} _ o.7.0.L.T.@.8.I L +. .+.$.[ ] U U P { > ^ K.$.) I ",
"r a K.k.0.L ! { o.$.Q.7.{ +.{ ` I.+.) y U ~.[ T _ ] { /._.$.L K.@.^ E g U / O.O.[ +.0.K ! } { @.{ T I R U ! D ( i.( +.w.{ { t t r ` s X.~  .` ) "
};
