/* XPM */
static char *_f20d873aa8a40288d85826514790549AfjU3DWWAYF8Ogmc[] = {
/* columns rows colors chars-per-pixel */
"72 72 190 2 ",
"   c #040401",
".  c #080703",
"X  c #070803",
"o  c #0A0A05",
"O  c #0D0D09",
"+  c #100C04",
"@  c #110E09",
"#  c #0F100B",
"$  c #131006",
"%  c #13120C",
"&  c #1A150B",
"*  c #17180E",
"=  c #1C190E",
"-  c #151612",
";  c #191612",
":  c #171812",
">  c #1B1A12",
",  c #1D1D19",
"<  c #221A0D",
"1  c #221D13",
"2  c #211F1A",
"3  c #1F2119",
"4  c #242016",
"5  c #2D2315",
"6  c #24221B",
"7  c #2B251B",
"8  c #2C291E",
"9  c #322410",
"0  c #322A1C",
"q  c #232421",
"w  c #292724",
"e  c #272C25",
"r  c #2B2A24",
"t  c #2D2D2C",
"y  c #352D23",
"u  c #2F312D",
"i  c #343126",
"p  c #3A3223",
"a  c #34332C",
"s  c #3C362A",
"d  c #3D392B",
"f  c #353432",
"g  c #383735",
"h  c #3B3B35",
"j  c #3D3C3A",
"k  c #473824",
"l  c #453B2A",
"z  c #433E32",
"x  c #3A423E",
"c  c #4D412E",
"v  c #5B492D",
"b  c #494234",
"n  c #42423C",
"m  c #4B463B",
"M  c #534533",
"N  c #584B39",
"B  c #5D513E",
"V  c #614F33",
"C  c #63533C",
"Z  c #69583D",
"A  c #3D4541",
"S  c #454541",
"D  c #464944",
"F  c #474B46",
"G  c #4B4A45",
"H  c #4D4D4B",
"J  c #524C44",
"K  c #514E4A",
"L  c #4C504B",
"P  c #53524D",
"I  c #595349",
"U  c #4D5452",
"Y  c #555552",
"T  c #595754",
"R  c #545955",
"E  c #5A5A56",
"W  c #555C5A",
"Q  c #5D5D5A",
"!  c #675B4A",
"~  c #625D55",
"^  c #615F5B",
"/  c #57625E",
"(  c #5D605D",
")  c #71654F",
"_  c #62625D",
"`  c #6C675B",
"'  c #6B645C",
"]  c #5D6362",
"[  c #656562",
"{  c #696763",
"}  c #646865",
"|  c #6A6A65",
" . c #656A6A",
".. c #6C6D6A",
"X. c #746D64",
"o. c #706F6B",
"O. c #6E716E",
"+. c #757166",
"@. c #72726D",
"#. c #7B766D",
"$. c #7E7A6E",
"%. c #6E7372",
"&. c #747472",
"*. c #797673",
"=. c #767974",
"-. c #7A7A75",
";. c #767B79",
":. c #7C7C7A",
">. c #857861",
",. c #827D76",
"<. c #827E7A",
"1. c #7D817C",
"2. c #858276",
"3. c #82817E",
"4. c #89847C",
"5. c #7E8380",
"6. c #7F8885",
"7. c #848582",
"8. c #898785",
"9. c #868985",
"0. c #8A8A86",
"q. c #878D8B",
"w. c #8C8C8A",
"e. c #948D84",
"r. c #918F8C",
"t. c #8E918E",
"y. c #91918E",
"u. c #8E9291",
"i. c #949592",
"p. c #999793",
"a. c #969895",
"s. c #9A9996",
"d. c #979798",
"f. c #9C9D9A",
"g. c #A09C93",
"h. c #A19F9B",
"j. c #9EA19C",
"k. c #A5A192",
"l. c #A2A29E",
"z. c #A9A39C",
"x. c #9FA0A0",
"c. c #A5A5A2",
"v. c #A9A6A3",
"b. c #A6A8A6",
"n. c #AAA9A6",
"m. c #A6A9A8",
"M. c #ACACAA",
"N. c #B0ADA5",
"B. c #B1AEAB",
"V. c #AFB0AD",
"C. c #B1B1AE",
"Z. c #B4B4B2",
"A. c #B9B7B4",
"S. c #B6B9B4",
"D. c #BBBAB6",
"F. c #BDBDBA",
"G. c #C1BBB4",
"H. c #C0BFBB",
"J. c #BEC0BC",
"K. c #C2C1BE",
"L. c #CAC4BD",
"P. c #C4C4C2",
"I. c #C9C5C4",
"U. c #C6C9C7",
"Y. c #CAC9C6",
"T. c #CDCCCB",
"R. c #D1CBC6",
"E. c #D2CECC",
"W. c #CED0CC",
"Q. c #D2D1CD",
"!. c #D4D4D2",
"~. c #D9D6D4",
"^. c #DAD9D6",
"/. c #D6D9D9",
"(. c #DCDCDA",
"). c #E2DEDE",
"_. c #E2E1DE",
"`. c #E3DFE0",
"'. c #DFE1E0",
"]. c #E4E4E3",
"[. c #E9E7E6",
"{. c #E7E8E6",
"}. c #EDECEC",
"|. c #F0ECEA",
" X c #F4F4F3",
".X c #F9F7F7",
"XX c #F9F8F7",
"oX c #FAF9F6",
"OX c #FDFDFD",
"+X c white",
/* pixels */
"+X+X+X+X+X+X+X+X+X+X+X+X+X+X+X+X+X+X+X+X+X+X+X+X+X+X+X+X+X+X+X+X+X+X+X+X+X+X+X+X+X+X+X+X+X+X+X+X+X+X+X+X+X+X+X+X+X+X+X+X+X+X+X+X+X+X+X+X+X+X+X+X",
"+X+X+X+X+X+X+X+X+X+X+X+X+X+X+X+X+X+X+X+X+X+X+X+X+X+X+X+X+X+X+X+X+X+X+X+X+X+X+X+X+X+X+X+X+X+X+X+X+X+X+X+X+X+X+X+X+X+X+X+X+X+X+X+X+X+X+X+X+X+X+X+X",
"+X+X+X+X+X+X+X+X+X+X+X+X+X+X+X+X+X+X+X+X+X+X+X+X+X+X+X+X+X+X+X+X+X+X+X+X+X+X+X+X+X+X+X+X+X+X+X+X+X+X+X+X+X+X+X+X+X+X+X+X+X+X+X+X+X+X+X+X+X+X+X+X",
"+X+X+X+X+X+X+X+X+X+X+X+X+X+X+X+X+X+X+X+X+X+X+X+X+X+X+X+X+X+X+X+X+X+X+X+X+X+X+X+X+X+X+X+X+X+X+X+X+X+X+X+X+X+X+X+X+X+X+X+X+X+X+X+X+X+X+X+X+X+X+X+X",
"+X+X+X+X+X+X+X+X+X+X+X+X+X+X+X+X+X+X+X+X+X+X+X+X+X+X+X+X+X+X+X+X+X+X+X+X+X+X+X+X+X+X+X+X+X+X+X+X+X+X+X+X+X+X+X+X+X+X+X+X+X+X+X+X+X+X+X+X+X+X+X+X",
"+X+X+X+X+X+X+X+X+X+X+X+X+X+X+X+X+X+X+X+X+X+X+X+X+X+X+X+X+X+X+X+X+X+X+X+X+X+X+X+X+X+X+X+X+X+X+X+X+X+X+X+X+X+X+X+X+X+X+X+X+X+X+X+X+X+X+X+X+X+X+X+X",
"+X+X+X+X+X+X+X+X+X+X+X+X+X+X+X+X+X+X+X+X+X+X+X+X+X+X+X+X+X+X+X+X+X+X+X+X.X.X.XXX+X+X+X+X+X+X+X+X+X+X+X+X+X+X+X+X+X+X+X+X+X+X+X+X+X+X+X+X+X+X+X+X",
"+X+X+X+X+X+X+X+X+X+X+X+X+X+X+X+X+X+X+X+X+X+X+X+X+X+X+X+X+X+X+XXXXX~.P.Z.C.D.C.w.f.c.n.I. X+X+X+X+X+X+X+X+X+X+X+X+X+X+X+X+X+X+X+X+X+X+X+X+X+X+X+X",
"+X+X+X+X+X+X+X+X+X+X+X+X+X+X+X+X+X+X+X+X+X+X+X+X+X+X+X+X XU.M.n.v.7.7.&.0.Z.P.7.c.:.@.&.f.B.P.(..X+X+X+X+X+X+X+X+X+X+X+X+X+X+X+X+X+X+X+X+X+X+X+X",
"+X+X+X+X+X+X+X+X+X+X+X+X+X+X+X+X+X+X+X+X+X+X+X+X+X+XXX!.n.l.l.M.t.( S , 6 r r a h n n S P Q [ 9.S.].+X+X+X+X+X+X+X+X+X+X+X+X+X+X+X+X+X+X+X+X+X+X",
"+X+X+X+X+X+X+X+X+X+X+X+X+X+X+X+X+X+X+X+X+X+X+X+X+X}.Z.V.F.i.P q     o o o % @ o @ o o O O > e L 1.a.M.K. X+X+X+X+X+X+X+X+X+X+X+X+X+X+X+X+X+X+X+X",
"+X+X+X+X+X+X+X+X+X+X+X+X+X+X+X+X+X+X+X+X+X+X+X XU.:.w.9.g O O % % 4 6 2 6 r r i s 8 1 4 7 * o % 3 n &.w.M.(.+X+X+X+X+X+X+X+X+X+X+X+X+X+X+X+X+X+X",
"+X+X+X+X+X+X+X+X+X+X+X+X+X+X+X+X+X+X+X+X+X+X Xf.:.[ t O o - > 1 p b J J K n d z z z m J s s r 6 > . % S 1.S.F.{.+X+X+X+X+X+X+X+X+X+X+X+X+X+X+X+X",
"+X+X+X+X+X+X+X+X+X+X+X+X+X+X+X+X+X+X+X+X+X(.M...D q X > > 3 h I m s 4 > % % * $ $ $ > 8 y d z z y 7 % . > Y x.Z.(.+X+X+X+X+X+X+X+X+X+X+X+X+X+X+X",
"+X+X+X+X+X+X+X+X+X+X+X+X+X+X+X+X+X+X+X+X!.w.i.D   ; , r h G g , .   X o o # # O o o o o o % 1 y z m d 7 % @ f t.S.^.+X+X+X+X+X+X+X+X+X+X+X+X+X+X",
"+X+X+X+X+X+X+X+X+X+X+X+X+X+X+X+X+X+X+X/.t.0.n o - r h a 2 o O O   . o o o O o   o o O O o . . o % r m m s = + 2 =.M.E.+X+X+X+X+X+X+X+X+X+X+X+X+X",
"+X+X+X+X+X+X+X+X+X+X+X+X+X+X+X+X+X+X}.u.9.f o * r G 6 .   o . X o o o o o   o O O O O o o O O o X o % 7 J l 5 & @ ^ B.Y.XX+X+X+X+X+X+X+X+X+X+X+X",
"+X+X+X+X+X+X+X+X+X+X+X+X+X+X+X+X+XXXc...u O > i h % . o O o o o o O o o X o o O O O o o O O O o o O @ o = m N s 1 o E v.D..X+X+X+X+X+X+X+X+X+X+X",
"+X+X+X+X+X+X+X+X+X+X+X+X+X+X+X+X+XT.c.D % % a G O                   X X X X o o o o X o O O O O o O o o . @ i b p < % { f.F.+X+X+X+X+X+X+X+X+X+X",
"+X+X+X+X+X+X+X+X+X+X+X+X+X+X+X+X{.F.f.r % r m o     % w w 6 f g q ,             . X o o O O o o o o o o O O O 6 l p 7 ; &.w.(.+X+X+X+X+X+X+X+X+X",
"+X+X+X+X+X+X+X+X+X+X+X+X+X+X+X XM.Z.G % , m > q j i.Y.V.f.} Z.].!.^.F.s.| S , o       o o o o o o o . o O O O   4 b b 5 w 9.f..X+X+X+X+X+X+X+X+X",
"+X+X+X+X+X+X+X+X+X+X+X+X+X+X+XY.v.0., r ..s.w.&.=.i.c...-.=.w.P.0.P.w.M.P.(.!.n.&.D -     o o o o o o o O o o O o 6 I B < S w.K.+X+X+X+X+X+X+X+X",
"+X+X+X+X+X+X+X+X+X+X+X+X+X+X.XZ.C.| -.Y.^.H.i.&.| w.&.v.w.l.[ -.E -.:.3.| v.Z.3.:.T.U.7.t     o . . o o o o O o o O 7 ) l * *.f.'.+X+X+X+X+X+X+X",
"+X+X+X+X+X+X+X+X+X+X+X+X+X+X}.M.Y.!.}.Y.w.n.&.n.3.f...D.@.M.:.v.y.l.Q t M.| i...C.w.U.M.D...:     . o o X o . . O > % p M 0 a s.m.+X+X+X+X+X+X+X",
"+X+X+X+X+X+X+X+X+X+X+X+X+X}.R.Q.^.h.s.y.:.l.-.w.:.s.9.w.| 3.:.:.v.:.f.-.P...i...:.0.:.w.a.D.Y.&.O   X o X   o % # a q % B M & -.q.{.+X+X+X+X+X+X",
"+X+X+X+X+X+X+X+X+X+X+X+X|.Y.~.I.h.i.-.Z.-.l.0.@.o j c.:.v.-.M.:.c...y.i.9.f.7.c...l.@.w.} 7.7.s.3.O   X o X . o > a i . 0 ! p z t.F.+X+X+X+X+X+X",
"+X+X+X+X+X+X+X+X+X+X+X}.R.~.D.f.y.v.3.7.*.:.i.:.f.f.f.&.w.-...&.:.y.i.Z.w.n.:.y.&.y.y.M.a.f.{ ..Y.f O   o . . % % 8 s # % c l 7 7.c..X+X+X+X+X+X",
"+X+X+X+X+X+X+X+X+X+X(.Q.^.T.7.f.:.Z.{ y.3.o.0.@.i.:.M.7.Z.0.:.:.&.O.O.n.7.c.y.q.9.O.w.9.n.w.c.=.M.w.S.Y   O . % * $ 6 O o 7 M < | f.].+X+X+X+X+X",
"+X+X+X+X+X+X+X+X+X].D.P.8.y.y.y.| w.&.Q :.{ n.Q j.@.-.9.w.a.:.:.5.;.:.s.w.3.s...b.&.Z.:.i.7.w.&.9.:.w.T.Q   . o o X O X O % B 9 n u.c.+X+X+X+X+X",
"+X+X+X+X+X+X+X+X}.A.Q.F.{ i.7.3.p.0.i...0.Q _ ..1.i.:.M.7.w.&.1.1.;.&.0.M.w.Z.&.9.7.7.f.0.c.c.a.:.w.Y f.T.H   . O o o   o o l k d f.i..X+X+X+X+X",
"+X+X+X+X+X+X+X.XD.Y.l.l.-.o..._ 3._ r.{ f.-.w.:.E { P 0.7.y.i.1.:.9.1.w.0.i.l.b.w.Z.7.i.} 7.:.q...t.;.7.c.Z.H   o o X   X . 0 M s i.d. X+X+X+X+X",
"+X+X+X+X+X+X+X(.D.Q.{ <.8.@.v.| n.@.w.{ | o._ 7...M.| w.h a F.-.f.w.i.9.:.0.:.t.:.f.7.c.t.j.i.5.;...O.} W } | O   X X X X o < C 0 w.f. X+X+X+X+X",
"+X+X+X+X+X+XXXP.Q.C.-.&.-.E @.Y | *.0.0.p.f.{ 3.( _ -.| C.l.Z.| w.:.r.P.&.Z.7.M.q.a.i.9.7.:.;..... .%. .] ] H , o o X X X O < N 5 :.i.}.+X+X+X+X",
"+X+X+X+X+X+X(.P.f.{ *...f...n.@.f.0.3.7...-.{ w.7.-.s.Y Q :.l.C.Z.C.M.M.-.w.3.O.7.O.Z.7.Z.7.;.;.&.}  . . .] Q -.P     X X O $ C p *.9.}.+X+X+X+X",
"+X+X+X+X+X+Xn.J.{ &.0.{ | Q ....3.8.3.B.4.B.X.Q o.Y :.f.M.M.f.M.i.w.n.J.F.n.P.=.j.O.t.O.O.7.O.:.%.O.g Y %.%.W ] w.q   X X O $ V M &.:. X+X+X+X+X",
"+X+X+X+X+X).B.P.-.{ 7.{ f.&.y.3.*.y.@.,.4.<.-.&.B.@.K.D.a...D.Z.w.:.n.7.f.^.Z.&.=.%.1.Z.1.M.[ t.%.O., [  .] ] U ..P O O X o % v N =.:.}.+X+X+X+X",
"+X+X+X+X+XI.P.n.&.3.Y   @.<.^ 3...v.@.z.E B.f.{ &.v.C.:.f.w.w.D.Q.0.f.s.c.i.^.D.=.1...q.=.q.0.-.M.:.f.=. .W U W R [ 6 # o o $ v B Y 7.XX+X+X+X+X",
"+X+X+X+X+XE.K.&.3...7.^ f.7.@.w.Q -._ f.<.K.n.| H.P.0.f.f.c.w.a.a.:.@.w.w.f.s.!.O.( [ a.f.=.c.{ :.| @...:.[ ] W U :.S o o   $ Z ! &.c.+X+X+X+X+X",
"+X+X+X+XXXY.D._ @.E _ H Y ..{ w.| l.*.8.v.r.*.Y n.l.0.3.:.M.:.Z.C.D.w.l.D.w.9.Z.M.} } &.y.:.a.r.i.y.9.w...]  .U U &.&.O o . & Z X.:.!.+X+X+X+X+X",
"+X+X+X+X XE.n.E 0.{ f.7.0.f.{ 3.Q _ { _ :.| n.| v.i.v.q.&.j f.c.Q D.P.w.y.c.f.w.P.%.U.f.Z.a.7...H } Q :...i.9./ W / | ,   . 4 ) $.u..X+X+X+X+X+X",
"+X+X+X+X}.E.v.@.c...{ _ { -.| 3.@.y.p...M...:.{ B.p.3.7.f.y.Y f.M.].M.0.w.a.i.w.W.5.7.i.f.M.3.B.:.Z.1.0.] Q %.} ] ( | r     i >.2.U.+X+X+X+X+X+X",
"+X+X+X+X].R.f.:.A.8.r.s.@.Z...y.@.Q &.E .._ s.0.y.v.i.n.n.f.Q 0.p.n.-.:.w.f.f.w.].V.:.V.j s.h.r.@.Q | R :.[ 7.q.] / R f   . G ,.8. X+X+X+X+X+X+X",
"+X+X+X+X].R.s...8.:.T { { @._ &.7.1.K.{ D.@.-.O.| L.{ *.-.3.3.3.o.<.K.c.P.i.v.f.T.7.w.M.f ..P.7.F.=.D.3.a.7...:.]  ...| o * ' 3.Z.+X+X+X+X+X+X+X",
"+X+X+X+X].Y.l. .Y -...s...Z.-.*.3.P Q P _ .._ 0.~ g.n.| y.w.:.P.*.@.n.(.!.F.:.Q.a.M.n.l.Y.Z.y.Y :.&.[ } _ | &.7.%.6.D.<.o a -.7.{.+X+X+X+X+X+X+X",
"+X+X+X+X}.I.v. .i.f.Q 7.o...{ P @._ l.*.v.N.#.A.#.' H.v.o.{ H.^.*.0.| Z.:.-.Z.Y.| | =.:.@.| &.@.Y M...Z.3.{ , S j./ :.&.% O.3.F.+X+X+X+X+X+X+X+X",
"+X+X+X+X XL.C.U Q ....3.E f.s.*.A.o.p.{ I | ~ *.#.e.Y.I.D.@.Y 7.-.n.r.[ 9.T.{.w.K.:.K.0.M.v.w.v.} f.=.:.{ n O r S.O. .w.Y 3.i..X+X+X+X+X+X+X+X+X",
"+X+X+X+X.XK.F.[ -.i...Y   S C.P J ' -.<.,.G.X.G.e.` 0.Y v.].Y.f.p.l.n.K._.Q.Y.&.C.&.:.=.Q | ..| | ..i.&.M.&.p.p.j.} :.h.:.:./.+X+X+X+X+X+X+X+X+X",
"+X+X+X+X+X~.Y.....M.( i._ n.K.-.E.+.p.r.J g.` I X.` h.@.i.T.9.s.v.M.M.c.:.| =.9.i.w.} C.:.P.l.Z.c.:.f.| :.| E _ T =.c.i.7.!.+X+X+X+X+X+X+X+X+X+X",
"+X+X+X+X+X+X[.&.| J.R =.-.{ } ^ #.+.J ~ ' k.4.e.L.X.v.3._ Q Q E Y ..-.} P.:.b.3.w.^.3.n.*.@.@.| :...-.| } l.@.D.-.y.Z.w._.+X+X+X+X+X+X+X+X+X+X+X",
"+X+X+X+X+X+X~.B.Y Q x H ( E s.| z.g.-.R.+.e.,.J J ~ ' @.| C.@.P.w.f.Y.&.T.w.7.r : !.s.| y.&.D.@.F.i.f.n.{ s.Q | _ H f.Y.+X+X+X+X+X+X+X+X+X+X+X+X",
"+X+X+X+X+X+XI.I.7.l.} s.C.{ C.{ _ X.I J ` J +.' z.2.p.K.P Z.:.:.&.Q -.} :.7._ M.F. XC.0.Q.&.i.{ @.-...{ P E :._ M.:.F..X+X+X+X+X+X+X+X+X+X+X+X+X",
"+X+X+X+X+X+X`.I.H.c.} Y Y H G _ Y -.~ C.g.2.D.' 8.+.m S j | | :.F.[ !.q.t.!...c.f.:...| ^ @.| 7.| C.3.n.j.| l.E @.@.F.+X+X+X+X+X+X+X+X+X+X+X+X+X",
"+X+X+X+X+X+X.XY.Z.*.-.&.V.{ F.h.*.K.^ *.#.I G ~ G +._ A.@.F.M.| D._ 7.O.Q } [ -.w.&.D.w.l.P.:.W.=.i.=.{ P H P { j 3.].+X+X+X+X+X+X+X+X+X+X+X+X+X",
"+X+X+X+X+X+X+X).A.F.i._ 3._ P _ G S { ^ 4.` D.e.4.Q.~ z.o.Q s.H ..| | f.Q Z.M.7.(.:.Z.y.@.-.E _ O.{ :.| l.7.-.C.Q D. X+X+X+X+X+X+X+X+X+X+X+X+X+X",
"+X+X+X+X+X+X+X.XY.E.7.Y | { O.s.| I.w.p.Y.E 3.@.I _ _ _ { &.T...Q.f.7.V.( &.7.Y Y Q Y @.| i.-.i.D.@.Q.-.-.@.Y E Y v.+X+X+X+X+X+X+X+X+X+X+X+X+X+X",
"+X+X+X+X+X+X+X+X{.T.P.&.P.7.:.n.Y 3.-.G H T H .._ C.*.l.K._ C.@.*...[ W R Y 7.[ Z.M.3._.:.D.f.@.y.{ Y H G *._ G 7.!.+X+X+X+X+X+X+X+X+X+X+X+X+X+X",
"+X+X+X+X+X+X+X+X+X{.!.f.S S Y 0.@.0.y.{ T.=.s.T.Y C.3.| @.E Q { H H ] W D ..{.3.s.y.^ &.{ { @.Q -.&.3.B.H M.0.7.Q.XX+X+X+X+X+X+X+X+X+X+X+X+X+X+X",
"+X+X+X+X+X+X+X+X+X+X XZ.b.E E P.0.p.w.H :.T G E Y H _ ( i.| l.S.D D R H U Y  ._ E ..{ 0.p.&.F.&.D.v.{ l.Y n _ M.{.+X+X+X+X+X+X+X+X+X+X+X+X+X+X+X",
"+X+X+X+X+X+X+X+X+X+XXX!.^.M.Y g G E 3.Q Q ..{ n.| f.Y.E C.9.=.q.A x A U Y } i.Z.| (.f.i.E   f r.Y E G G o.E w.T.+X+X+X+X+X+X+X+X+X+X+X+X+X+X+X+X",
"+X+X+X+X+X+X+X+X+X+X+X X~.(.C.Y G E !.@.K.M.{ I.O.( @.P a h S R D U W U u...:.F.:.s.@.@.{   % n.{ D.r.-.K.3.a.XX+X+X+X+X+X+X+X+X+X+X+X+X+X+X+X+X",
"+X+X+X+X+X+X+X+X+X+X+X+X X^.(.F.&.G :.Y S n g a G G | | :.7.s._.7.i.m.H &./ ..-.&.:.n.@.D.&.p.Q.^ y.:.K s.n.}.+X+X+X+X+X+X+X+X+X+X+X+X+X+X+X+X+X",
"+X+X+X+X+X+X+X+X+X+X+X+X+X.X_.^.Y.o.g G | l.Q M.Z._ (.0.7.t o o.M.H [ H [ m.{ Y.C.:._.3.*.@.{ { { G T M.P.}.+X+X+X+X+X+X+X+X+X+X+X+X+X+X+X+X+X+X",
"+X+X+X+X+X+X+X+X+X+X+X+X+X+XXX].^.~.B.....K._ :.:.T [ ^ @.r   f P.T !.w.| (...w.9.[ _ _ P _ ..3.D.:.F.U.}.+X+X+X+X+X+X+X+X+X+X+X+X+X+X+X+X+X+X+X",
"+X+X+X+X+X+X+X+X+X+X+X+X+X+X+X+X|.).).^.0.n n H ..| 0.v.{ y.=.F.I.Q y.-.P w.i.Q 0.&.y.K._ M.C.{ ^.(.]..X+XXX+X+X+X+X+X+X+X+X+X+X+X+X+X+X+X+X+X+X",
"+X+X+X+X+X+X+X+X+X+X+X+X+X+X+X+X+X.X[.E.^.P.:.:.(.[ 7.F.Q 9.o.Q j Y Y y.Q C.P...(.c.&.v.{ _ K.!.E.[.+X+X+X+X+X+X+X+X+X+X+X+X+X+X+X+X+X+X+X+X+X+X",
"+X+X+X+X+X+X+X+X+X+X+X+X+X+X+X+X+X+X+X].Y.(.].~.F.Q j D P _ 3.H A.f.&.(.{ 0.!.Y E Q ..7.M.Q.U.T. X+X+X+X+X+X+X+X+X+X+X+X+X+X+X+X+X+X+X+X+X+X+X+X",
"+X+X+X+X+X+X+X+X+X+X+X+X+X+X+X+X+X+X+X+X+X X}.).(.!.Z.s.:.l.!.} l.b.Y D :.P.I.Z.C.P.T.Y.T.T.{.+X+X+X+X+X+X+X+X+X+X+X+X+X+X+X+X+X+X+X+X+X+X+X+X+X",
"+X+X+X+X+X+X+X+X+X+X+X+X+X+X+X+X+X+X+X+X+X+X+X.X}.].^.[.(.!.Q.T.E.~.!.T.^.F.n.l.K.Y.!.). X+X+X+X+X+X+X+X+X+X+X+X+X+X+X+X+X+X+X+X+X+X+X+X+X+X+X+X",
"+X+X+X+X+X+X+X+X+X+X+X+X+X+X+X+X+X+X+X+X+X+X+X+X+X+X.XXX X}.}.).{.{.{.P.A.T.^.}.{..X+X+X+X+X+X+X+X+X+X+X+X+X+X+X+X+X+X+X+X+X+X+X+X+X+X+X+X+X+X+X",
"+X+X+X+X+X+X+X+X+X+X+X+X+X+X+X+X+X+X+X+X+X+X+X+X+X+X+X+X+X+X+X+X+X+X+X+XXX+X+X+X+X+X+X+X+X+X+X+X+X+X+X+X+X+X+X+X+X+X+X+X+X+X+X+X+X+X+X+X+X+X+X+X",
"+X+X+X+X+X+X+X+X+X+X+X+X+X+X+X+X+X+X+X+X+X+X+X+X+X+X+X+X+X+X+X+X+X+X+X+X+X+X+X+X+X+X+X+X+X+X+X+X+X+X+X+X+X+X+X+X+X+X+X+X+X+X+X+X+X+X+X+X+X+X+X+X",
"+X+X+X+X+X+X+X+X+X+X+X+X+X+X+X+X+X+X+X+X+X+X+X+X+X+X+X+X+X+X+X+X+X+X+X+X+X+X+X+X+X+X+X+X+X+X+X+X+X+X+X+X+X+X+X+X+X+X+X+X+X+X+X+X+X+X+X+X+X+X+X+X"
};
