/* XPM */
static char *b3aab280c83d4fe5cecd9af5ae1c965fxc6nwJNg6iyWOcLG[] = {
/* columns rows colors chars-per-pixel */
"72 72 47 1 ",
"  c gray26",
". c #424346",
"X c #434444",
"o c #464646",
"O c #4E4B46",
"+ c #5D5647",
"@ c #776948",
"# c #6B7272",
"$ c #6C7373",
"% c #6E7575",
"& c #717777",
"* c #737979",
"= c #777E7E",
"- c #787F7F",
"; c #A08649",
": c #A88B49",
"> c #A98C49",
", c #AC8E49",
"< c #7A8181",
"1 c #7C8282",
"2 c #7F8787",
"3 c #808787",
"4 c #818989",
"5 c #848B8B",
"6 c #858D8D",
"7 c #888F8F",
"8 c #899090",
"9 c #8C9393",
"0 c #8F9797",
"q c #8F9898",
"w c #909797",
"e c #909898",
"r c #959D9D",
"t c #9BA3A3",
"y c #9CA3A3",
"u c #9FA7A7",
"i c #A1A8A8",
"p c #A2AAAA",
"a c #A4ABAB",
"s c #A7AFAF",
"d c #AAB2B2",
"f c #ACB4B4",
"g c #B0B7B7",
"h c #B2BABA",
"j c #B3BCBC",
"k c #B7BFBF",
"l c #B9C1C1",
/* pixels */
"eeeeeeeeeeeeeeeeeeeeeeeeeeeeeeeeeeeeeeeeeeeeeeeeeeeeeeeeeeeeeeeeeeeeeeee",
"eeeeeeeeeeeeeeeeeeee000eeeeeeeeeee00eeeeeeeeeee000eeeeeeeeee00eeeeeeeeee",
"00eeeeeeeeeeeeeeeeeq<%6eeeeeeee86epteeeeeeeeeeq<%6eeeeeee86rpreeeeeeeeee",
"dpeeeeeeeeeeeeeeeeedr0sr0eeeeee2#8ue0eeeeeeeeesr0sr0eeeee<#0ueeeeeeee824",
"e0eeeeeeeeeeeeeeee000e00eeeeeee8ese8eeeeeeeee000e00eeeeee8rde8eeeeeee8&2",
"t0eeeeeeeeeeeeeeeee08080eeeeeeee058eeeeeeeeeee08080eeeeeee048eeeeeeeeees",
"6eeeeeeeeeeeeeeeeeeeeeeeeeeeeeeee0eeeeeeeeeeeeeeeeeeeeeeee00eeeeeeeeee06",
"eeeeeeee0e0eeeeeeeeeeeee848eeeeeeee0e0eeeeeeeeeeeee848eeeeeeee0e0eeeeeee",
"eeeeeeeerereeeeeeeeeeeee2$6eeeeeeeerereeeeeeeeeeeee2$6eeeeeeeerereeeeeee",
"eeeeee0pfpfueeeeeeeeeeee8tdt0eeee0pfpfueeeeeeeeeeee8tdt0eeee0pfpfueeeeee",
"eeeeeee92<<6eeeeeeeeeeeee048eeeeee92<<6eeeeeeeeeeeee048eeeeee92<<6eeeeee",
"eeeeeeee6#-eeeeeeeeeeeeeeeeeeeeeeee6#-eeeeeeeeeeeeeeeeeeeeeeee6#-eeeeeee",
"eeeeeeee080eeee080eeeeeeeeeeeeeeeee080eeeeeeeeeeeeeeeeeeeeeeee080eeeeeee",
"eeeeeeeeeeeeeee2#4eeeeeeeeeeeeeeeeeeeeeeeeeeeeeeeeeeeeeeeeeeeeeeeeeeeeee",
"eeeeeeeeeeeee0duesu0eeeeeeeeeeeeeeeeeeeeeeeeeeeeeeeeeeeeeeeeeeeeeeeeeeee",
"eeeeeeeeeeeeeew8080eeeeeeeeeeeeeeeeeeeeeeeeeeeeeeeeeeeeeeeeeeeeeeeeeeeee",
"eeeeeeeeeeeeeeeeeeeeeeee046eeeeeeeeeeeeeeeeeeeeeeeeeee2#<eeeeeeeeeeeeeee",
"eeeeeee000eeeeeeeeeeeeeeeeeeeeeeee000eeeeeeeeeeeeeeeee840eeee000eeeeeeee",
"eeeeeee<&6eeeeeee00eeeeeeeeeeeeeee<&6eeeeeee00eeeeeeeeeeeeeee<&6eeeeeeee",
"eeeeeese6ut0eeee0usreeeeeeeeeeeeese6ut0eeee0usreeeeeeeeeeeeese6ut0eeeeee",
"eeeeeese6ut0eeee0usreeeeeeeeeeeeese6ut0eeee0usreeeeeeeeeeeeese6ut0eeeeee",
"eeeee0erteeeeeeeeee00eeeeeeeeeee0erteeeeeeeeee00eeeeeeeeeee0erteeeeeeeee",
"eeeeee88880eeeeee0<%4eeeeeeeeeeee88880eeeeee0<%4eeeeeeeeeeee88880eeeeeee",
"0eeeeeeeeeeeeeeeee6=4eeeeeeeeeeeeeeeeeeeeeeee6=4eeeeeeeeeeeeeeeeeeeeeee0",
"teeeeeeeeee00eeeeeeeeeeeeeeeeeeeeeeee00eeeeeeeeeeeeeeeeeeeeeeeeeeeeeeeep",
"reeeeeeeee0udteeeeeeeeeeeeeeeeeeeeee0pdreeeeeeeeeeeeeeeeeeeeeeeeeeeeeeeu",
"*=9eeeeeeeet060eeeee0ufpfpeeeeeeeeeert070eeeeee0ufpfpeeeeeeeeeeeeeee0efu",
"<*8eeeeee0ps8%2eeeeee04226eeeeeeeeeeps4%3eeeeeee04226eeeeeeeeeeeeeeeee66",
"eeeeeeeeee84626eeeeeee6#=eeeeeeeeeee64416eeeeeeee6#=eeeeeeeeeeeeeeeeee00",
"eeeeeeeeeeeeeeeeeeeeee068eeeeeeeeeeeeeeeeeeeeeeee068eeeeeeeeeeeeeeeeeeee",
"eeeeeeeeeeeeeeeeeeeeeeerrreeeeeeeeeeeeeeeeeeeeeeeeeeqsdpfpeeeeeeeeeeeeee",
"eeeeeeeeeeeeeeeeeeeeeee0edp0eeeeeeeeeeeeeeeeeeeeeeeee05658eeeeeeeeeeeeee",
"eeeeeeeeeeeeeeeeeeeeeeee046eeeeeeeeeeeeeeeeeeeeeeeeeee2#<eeeeeeeeeeeeeee",
"eeeeeee000eeeeeeeeeeeeeeeeeeeeeeee000eeeeeeeeeeeeeeeee840eeee000eeeeeeee",
"eeeeeee<&6eeeeeee00eeeeeeeeeeeeeee<&6eeeeeee00eeeeeeeeeeeeeee<&6eeeeeeee",
"eeeeeese6ut0eeee0usreeeeeeeeeeeeese6ut0eeee0usreeeeeeeeeeeeese6ut0eeeeee",
"eeeee0erteeeeeeeeee00eeeeeeeeeee0erteeeeeeeeee00eeeeeeeeeee0erteeeeeeeee",
"eeeeee88880eeeeee0<%4eeeeeeeeeeee88880eeeeee0<%4eeeeeeeeeeee88880eeeeeee",
"0eeeeeeeeeeeeeeeee6=4eeeeeeeeeeeeeeeeeeeeeeee6=4eeeeeeeeeeeeeeeeeeeeeee0",
"teeeeeeeeee00eeeeeeeeeeeeeeeeeeeeeeee00eeeeeeeeeeeeeeeeeeeeeeeeeeeeeeeep",
"reeeeeeeee0udteeeeeeeeeeeeeeeeeeeeee0pdreeeeeeeeeeeeeeeeeeeeeeeeeeeeeeeu",
"*=9eeeeeeeet060eeeee0ufpfpeeeeeeeeeert070eeeeee0ufpfpeeeeeeeeeeeeeee0efu",
"<*8eeeeee0ps8%2eeeeee04226eeeeeeeeeeps4%3eeeeeee04226eeeeeeeeeeeeeeeee66",
"eeeeeeeeee84626eeeeeee6#=eeeeeeeeeee64416eeeeeeee6#=eeeeeeeeeeeeeeeeee00",
"eeeeeeeeeeeeeeeeeeeeee068eeeeeeeeeeeeeeeeeeeeeeee068eeeeeeeeeeeeeeeeeeee",
"eeeeeeeeeeeeeeeeeeeeeeeeeeeeeeeeeeeeeeeeeeeeeeeeeeeeeeeeeeeeeeeeeeeeeeee",
"eeeeeese6ut0eeee0usreeeeeeeeeeeeese6ut0eeee0usreeeeeeeeeeeeese6ut0eeeeee",
"eeeee0erteeeeeeeeee00eeeeeeeeeee0erteeeeeeeeee00eeeeeeeeeee0erteeeeeeeee",
"eeeeee88880eeeeee0<%4eeeeeeeeeeee88880eeeeee0<%4eeeeeeeeeeee88880eeeeeee",
"0eeeeeeeeeeeeeeeee6=4eeeeeeeeeeeeeeeeeeeeeeee6=4eeeeeeeeeeeeeeeeeeeeeee0",
"teeeeeeeeee00eeeeeeeeeeeeeeeeeeeeeeee00eeeeeeeeeeeeeeeeeeeeeeeeeeeeeeeep",
"reeeeeeeee0udteeeeeeeeeeeeeeeeeeeeee0pdreeeeeeeeeeeeeeeeeeeeeeeeeeeeeeeu",
"*=9eeeeeeeet060eeeee0ufpfpeeeeeeeeeert070eeeeee0ufpfpeeeeeeeeeeeeeee0efu",
"<*8eeeeee0ps8%2eeeeee04226eeeeeeeeeeps4%3eeeeeee04226eeeeeeeeeeeeeeeee66",
"eeeeeeeeee84626eeeeeee6#=eeeeeeeeeee64416eeeeeeee6#=eeeeeeeeeeeeeeeeee00",
"eeeeeeeeeeeeeeeeeeeeee068eeeeeeeeeeeeeeeeeeeeeeee068eeeeeeeeeeeeeeeeeeee",
"eeeeeeeeeeeeeeeeeeeeeeerrreeeeeeeeeeeeeeeeeeeeeeeeeeqsdpfpeeeeeeeeeeeeee",
"eeeeeeeeeeeeeeeeeeeeeee0edp0eeeeeeeeeeeeeeeeeeeeeeeee05658eeeeeeeeeeeeee",
"eeeeeeeeeeeeeeeeeeeeeeee046eeeeeeeeeeeeeeeeeeeeeeeeeee2#<eeeeeeeeeeeeeee",
"eeeeeee000eeeeeeeeeeeeeeeeeeeeeeee000eeeeeeeeeeeeeeeee840eeee000eeeeeeee",
"eeeeeee<&6eeeeeee00eeeeeeeeeeeeeee<&6eeeeeee00eeeeeeeeeeeeeee<&6eeeeeeee",
"eeeeeese6ut0eeee0usreeeeeeeeeeeeese6ut0eeee0usreeeeeeeeeeeeese6ut0eeeeee",
"eeeee0erteeeeeeeeee00eeeeeeeeeee0erteeeeeeeeee00eeeeeeeeeee0erteeeeeeeee",
"eeeeee88880eeeeee0<%4eeeeeeeeeeee88880eeeeee0<%4eeeeeeeeeeee88880eeeeeee",
"0eeeeeeeeeeeeeeeee6=4eeeeeeeeeeeeeeeeeeeeeeee6=4eeeeeeeeeeeeeeeeeeeeeee0",
"teeeeeeeeee00eeeeeeeeeeeeeeeeeeeeeeee00eeeeeeeeeeeeeeeeeeeeeeeeeeeeeeeep",
"reeeeeeeee0udteeeeeeeeeeeeeeeeeeeeee0pdreeeeeeeeeeeeeeeeeeeeeeeeeeeeeeeu",
"*=9eeeeeeeet060eeeee0ufpfpeeeeeeeeeert070eeeeee0ufpfpeeeeeeeeeeeeeee0efu",
"<*8eeeeee0ps8%2eeeeee04226eeeeeeeeeeps4%3eeeeeee04226eeeeeeeeeeeeeeeee66",
"eeeeeeeeee84626eeeeeee6#=eeeeeeeeeee64416eeeeeeee6#=eeeeeeeeeeeeeeeeee00",
"eeeeeeeeeeeeeeeeeeeeee068eeeeeeeeeeeeeeeeeeeeeeee068eeeeeeeeeeeeeeeeeeee",
"eeeeeeeeeeeeeeeeeeeeeeeeeeeeeeeeeeeeeeeeeeeeeeeeeeeeeeeeeeeeeeeeeeeeeeee"
};
