/* XPM */
static char *e552cbe01847444297a75f2ba76d1a30ZmeTZW5O0a6uQKwK[] = {
/* columns rows colors chars-per-pixel */
"72 72 117 2 ",
"   c #6D4E42",
".  c #754E40",
"X  c #725446",
"o  c #7D5546",
"O  c #775946",
"+  c #7B5947",
"@  c #755649",
"#  c #7D5749",
"$  c #76594B",
"%  c #7B5C4D",
"&  c #755E51",
"*  c #7C5F50",
"=  c #70604F",
"-  c #7E604F",
";  c #6F6254",
":  c #756355",
">  c #7D6253",
",  c #756759",
"<  c #7C6759",
"1  c #766D5E",
"2  c #7C6B5C",
"3  c #7D705E",
"4  c #7E6E60",
"5  c #7E7464",
"6  c #7E7867",
"7  c #7E7669",
"8  c #7F796A",
"9  c #805746",
"0  c #845846",
"q  c #805749",
"w  c #845C4C",
"e  c #895E4E",
"r  c #855F50",
"t  c #895F50",
"y  c #83604F",
"u  c #8A614F",
"i  c #90624F",
"p  c #836453",
"a  c #8C6352",
"s  c #846857",
"d  c #8C6955",
"f  c #846758",
"g  c #8B6758",
"h  c #846A5B",
"j  c #8A6B5B",
"k  c #916655",
"l  c #926A56",
"z  c #986D57",
"x  c #946C59",
"c  c #996E5A",
"v  c #86715F",
"b  c #8B705F",
"n  c #94705C",
"m  c #99715B",
"M  c #826F61",
"N  c #886F60",
"B  c #827163",
"V  c #837364",
"C  c #807466",
"Z  c #8B7464",
"A  c #8D7564",
"S  c #837867",
"D  c #8B7867",
"F  c #837768",
"G  c #887668",
"H  c #817868",
"J  c #85796B",
"K  c #837B6C",
"L  c #827C6C",
"P  c #857C6C",
"I  c #847C6D",
"U  c #877C6C",
"Y  c #8E7869",
"T  c #8F796A",
"R  c #8A7B6C",
"E  c #967362",
"W  c #937562",
"Q  c #987260",
"!  c #9B7463",
"~  c #9C7562",
"^  c #967965",
"/  c #9A7965",
"(  c #91796A",
")  c #927C6B",
"_  c #997A6A",
"`  c #987C6B",
"'  c #867F70",
"]  c #897F71",
"[  c #8B7F71",
"{  c #937F70",
"}  c #8D806E",
"|  c #95806D",
" . c #878071",
".. c #878172",
"X. c #898273",
"o. c #8D8173",
"O. c #8D8273",
"+. c #8B8274",
"@. c #8D8375",
"#. c #8B8475",
"$. c #8C8475",
"%. c #8D8778",
"&. c #8F897A",
"*. c #938272",
"=. c #928577",
"-. c #988270",
";. c #908778",
":. c #928A7B",
">. c #95887B",
",. c #978C7B",
"<. c #938B7D",
"1. c #938C7D",
"2. c #968E7F",
"3. c #998F7A",
"4. c #998E7E",
"5. c #968F80",
"6. c #9B9281",
/* pixels */
"1.<.2.:.:.2.,.4.<.@.>.o.+.%.<.+.U ' @.] X.R o.@.] U U ,.:.o.N s s f j A X.X.X.U K H C 7 H 7 7 F H J U J C 7 J U R o.U U U U 7 7 5 F X.X.U U U U ",
"] %.=._ E E Q ~ E x ! ! g j x g a g g g j a g x x a a x c x a a a t a a j R X.U 2 > > > & * $ > * > < > % % * > h < > > > > > * * p h h > < 2 > ",
"h #.T l l x x m c x c c a a a a e e r p a a a k k a a k k k c x a e t t t G +.J p p % $ $ $ $ $ $ % % % @ $ @ @ @ @ @ % % > * $ % % % % % % % % ",
"f @.( a x x x m m c x x a a a a e e r a a a k x k a a k k k k a a t e a e B X.U p p * $ $ @ @ $ % % p p % $ @ @ $ @ @ p % p > % % $ $ $ * * * % ",
"s =.T a x x c x x x x l a a a a a r r a a a x x x a a a a a a k a a t a a V  .H > * % @ @ @ @ $ % r p % % $ @ @ @ @ $ p w p p * $ @ @ % p * % > ",
"p U A k x x x x x l x a a e r a a a p p a l k k l k a a a a a a a a a a a C ' H * * % $ @ X @ * % p r % % $ @ @ @ @ * p w p p % $ @ @ $ % * * > ",
"p U A a d d x x x k x a a a a a r a a a a x x l k a a a a a a r a a a a a V  .U p * r % X   X $ w r % $ @ $ @ $ $ $ w p % p p $ @ @ @ $ % * p > ",
"p C Z a a x x x a x x x a a a a e a a a a x x l a a r e r p p p p a a a a F +.U f r % $ @ X X $ % % $ $ @ $ @ $ % $ % p p p p % $ @ @ @ $ * p p ",
"p F Z a a d x a a x x x a a a a p a a a a a x a e t r e p p a a a r a p e 4 ' U > * % $ @ X $ $ $ @ @ @ @ $ @ $ % % % p p p * % % $ @ X @ % p s ",
"s U Z l d x x g a a x a a a l u p a a a l a a w w e w w e p a a j a g g a C ' H @ $ $ @ $ @ $ $ $ @ @ @ @ $ @ @ % w % % r % * % $ @ $ $ $ $ s a ",
"Z X.D l x x x x a a a a a a e q q t a W ) ) Z f s f < h V Z D R ] U R ] ] ' X.F > @ $ > > > * $ $ @ @ @ @ @ X @ r s p s f h h h > > > % % % p s ",
"X.+.+.] *.{ *.T R Z A Z Z Z h h h V D X.%.X.H K U U 8 8 U  . . .' K ' #.#.X.U U U B C H H H C B 4 2 < M 2 < < 2 F D R R X.X.U U F F 7 4 3 B T T ",
"Z D D T *.-.| T D F B v D V h V 2 h F X.%.#. .U U U U S R 7 5 5 5 5 C F U o.U 4 B 2 4 F 7 C < > : 2 5 1 1 , ; 1 U  .J Z Z C U K 8 7 H 6 8 U U T ",
"l l d l m m m x x l u k l a u u u l l D  .%.U 2 > > % $ p > > > p > p s p p s * > % % % $ $ @ $ @ $ @ X @ @ X : U X.d u a d f f j f f f > d k l ",
"l l d d x m m x x x k l l l a u l m x j U %.F s s % % % p > - p p > p s p p p % * > * > % $ $ $ % $ @ @ @ @ @ > U J u w u a a a k k a u a d l x ",
"l l l l x x m x x l l l l l x x x x k j U +.F p s p > p > % - p p p p s p s p % % % * % $ $ % % % % @ @ @ @ $ > H J a w u u a l l k a d k l x x ",
"x x x x x x x x k k x l l x x x x k k j X.#.F s s p % % y * > p p p > s s s p > % % > > % % % % % % @ @ @ @ $ > 8 F a u a a a l k d a a k l m m ",
"m m x x m x x x x x m x k k l l x d u d ' #.Z p s p X O p > > > > > * s s s - > % * > > * * > % % % @ @ @ @ % 2 8 1 a a a a a l k a a k k x m m ",
"m m m x m m m x x x x x l x x x m k u j ' X.V > > p % % p > % * > > % > > p > * % * > % > p p - % % $ @ @ $ $ 4 U C d a a a d x d a a k l x m m ",
"c m m x m m m x x x x x c c c m m m z b ' X.p - p s - p s > > > p > % * % p p % % > > p > % > % % % @ @ @ % % 2 U C a a a a l x d a a k x x m m ",
"l x x l x m x l l l x m m x x x m x z n ' X.f p p s s p p > p s p * * % p p % > p p p p > $ % $ @ $ @ @ @ % % 2 ' C a a d k k k l d k l c c c m ",
"x x x l x x l l x l l x z l x x c c c ^ &.$.f s s p p p > p p s s * > > p p > % > > p > * $ % % $ % $ $ $ % % h U C a k k k u a a a k l z z m m ",
") ) ( A W n n W / / ^ ^ ! W W m ! / / -.1.$.Z A A f p p % > p j s > p p > p > > > > > > * @ % % * > % * % % > B U J j x x j d u d n W W ^ ` -.-.",
"%.#.'  .U H C U $.$.@.X.$.$.X.D o.:.$.X.:.&.$.$.+.U ] R F V F D U F Z D U F G F J F F H C B h B F F C J C 5 J U U H U U U U S S J X.$.:.:.<.<.&.",
"X.U U F 4 B M B G G F F G Z Z Z D A T T *.] T Z F V B F U  .#.R B h F Z B B B C V B h 2 > 2 B 2 2 C U 7 H U U X.U K U U U X.U  .#.:.:.:.1.&.+.+.",
"h h < p p p p s f s s p s f j f j j j j f j f s f j s s s Z +.h p p p y y p p p y y p p p y y % % % > - > f f f h > f h f f f f Z 2.:.:.D h h N ",
"j s > > p p f f f p p p j j j j j j f j f j f f f j j j j j o.s p p p % % p p p y y p s s p y % w + + % % w p p y % w - - p p w p *.:.] f f f j ",
"j s p > p f f f s p p > j j j j j f s f f j f j f f j j j j R j p p p - - p p p p y p p d p p p p % % % % y p p y % % % - p p p p T %.X.f j j j ",
"f p p p p p f f p p p p j j j j f s f f j j f j f f f j j s R Z a p p p p p p p p p p p a a p p p p p y p p p p y % % % - y p p p F  .X.f f f j ",
"j f p f p f p > > > p p j j f f s p f f j n f j s s f j % % D Z a d p p s s s p p p p p p p d p p y p % + % p y y y y p p p p p p F H X.f p p f ",
"j f f f p p p > > p > p j j j f s p f s j j f f s f f f % p J D a d p d p s s p p p p p p p p p p y y w % % - % p y y p p p p p p V ' U h p p f ",
"j j f f p p > > > > > > f f f p p f f s f j p s p p p p f p C F p p p d s d p p s p p p p p p p p p p p % % % % p y % p p y p p p h ' ' h p p p ",
"j j f f p p > > > > > > s f p s s s s f f j p p p p s f f s R J p p p p s s p s d d p p p p a a p p p p w % p p p y - p p p p p p h  .X.h s s f ",
"j f f f f > > p > * > > s s s s s p p s s f j p p p f f p - J R p % p p p p p p d d p p p a p p p p p p p p p p - % % y p p p y y f $.X.N s f j ",
"h h p > > > > > > > > f f Z N Z Z j f f h h p f h h f j f > U U v p p p f f p p p p > > p s s j f s d d p w y % % % y y y w p y w h X.X.G h f f ",
"U U U K 7 7 7 7 K H U X.$.X.X.X.$.$.$.o.+.X.K H ] X.X.$.] 5 U U U H H K $.X.U F 7 F H 7 C U U X.X.] X.F h h Z h V h V Z Z Z v h V J U X.$.;.] X.",
"5.&.:.&.+.U 8 7 8 7 H X.@.$.=.o.$.:.:.:.$.X.U U X.%.:.1.$.J X.J U U  .' X.+. .U  . .+.' #.$.X.U X.X.X.$.o.X.U U V M Z T T D V B C F J ' :.<.2.<.",
"*.o.o.T T V h > p s a x x x x c *.$.$.T n A b Z T T ) ( W j j p a p s j V Z F 7 J J V h h V s a a d d a s J U f a a a k k k a a a a a a j ) *.) ",
"c c x k k a t a a a k l k k k k x +.@.x k k k k a k l l a e e u e w w u a a e w e u q e u e e u a a a a e h U a a a k k a a k k a a a a a k x l ",
"c c x k k a e a a a x k x k k k x $.$.j k k k k k l l k a a a e e q q e a a a a a a e u a a u u u a u u e h  .g a a a a a a a a a a a a a k l l ",
"x k l k a r e a a k k k k k k k x X.+.W k k k l k l l k a a a e w w e e a a a a a a a a a u u e u a a a e f U j a a a a e a a a a a a t a k k k ",
"k x k a a a t a k x x k a a a a a X.$.W k l k l l k a e a u e e w e e a a a e e e a a e e u a e e a a e e j R j a a a a a a e e t k k a t k k k ",
"k k k l k a a k x x k k a a a a a F X.j k k k k a a u e e e w w q w e u a a e e e a a e e u a e e e e e e j R a k a t t a t t t e a a a t e a k ",
"a k x x x k k k k k k a a a a a a H U j k a u u e e e e e e w w w q e e a a e e e a a u u a a u w w e e e j D a l k a a a a a a e a a a k a a a ",
"a k x x l k a a a a a a a a a a j K H d i u e 0 q w q q e e e e q q q e a u e u u a a a a a a e w w e u a j U g k k k a a a t a t t a a k a a a ",
"a a a k k a a a t a a a a a a t Z  .R a e w w 9 o o o q w e q q q q e e e e u u u u u a a a u e e q q e u F U j k e k k a t a a e t a a a a a a ",
"a k k k a t e e a g j j j g x W D $.} d u a e 9 o o % > s j w q e w w q e e e e e e e e e a a e w e q e f U U V a e a k a a a a t e a a a a e a ",
"A A W W j j N V F U X.X.'  .X.X.X.X.X.R D D V 2 < 2 5 8 H K C B B V B 2 C F V M h h h B M Z Z f V F B B H U U U J V Z Z Z Z N Z j N D Z A Z Z D ",
"F F U ] ] U 5 7 U '  .H ' X.X.X. . .'  . .U H 6 7 5 5 7 H H 8 5 U H K 8 5 M 2 h M 2 h M h M V 2 2 h 2 h M V C V M M h M 2 C H M C C B B V 5 U K ",
"j a l a d a a p f j Z _ _ W j j f b j f h j f 2 > > > > > > > > > h U 5 r e e e t t e e e w e e w w w q q e e e t a e t e r p e w % o r a w h U ",
"j a l d l l l a u a l l k k k k a a a u u u a a u e e e e e q q w e 5 4 w w w e e e e w w w q w e q # o q q w e r a a a e e e e w # q e t q > H ",
"V a x x x l k a a a x x l l l l a a e e e a a a u p e e u e e e e p C B w w w e e w q w q q q e e q o + # w e e a a k a t a r r e q q e e o < U ",
"F a l x x x l a a l x x l l l l a u e e e a a a p u q e e e e a a a B B e w w e w q % # # q w e q q # # # q q e e a k a a r e e q w w q w + > H ",
"V k l x x x x l l k l x l k a a a a w w u a a a a e o q e a u u u e B F a e w e w # # q q q e a w w w q q q w e e a k a a a t e q w q q # . > H ",
"Z l x x x x l x k k l x a a u a a a e w e e u a a 9 o q e a a e w w h B w e w w w q q w q o e t w e w o q q e t w e k a a a a e e w # # # # > U ",
"A l x x x a a l l a l x l a a a e e e w w w a a u 9 o 9 e a a w w w h B w e e w q w e e w w e r e t e q q q w e e w a a a a t e w # # w % w h ' ",
"g x x x l a a a a a l l l a a a p e w % e p a a a q o 9 q e a p p a V F a a t w q q e e e e q e t e w q q q q q q w a a a a e e w # # w w e h  .",
"k l x x l a u a a a k l l a e a a e % q e e a a a e w w u a a u u a D T a a t e w q w w q e o q e e q q o q q q q q a e e w w t w q w e t w h R ",
"a l l x a a u a a a l l a g j j j f a s s g g j n a a a a j j j j Z ] U Z j j j g a a a w p f f r p j p > p p a e w j j f w r r e w e w e w h D ",
"T A A A A Z 2 B F F F F J U U ] U C J U H H U X.X.o.D J F H 7 7 5 H K U U U J H H C C F C F H H 5 S 7 7 7 7 5 C J J H U J C C J C M h h N V C H ",
"D D V U F H  .L ' U  . .U '  .#.+.U U  .U 7 ' X.X.U 2 2 2 2 2 2 < 2 C F M h 2 < < 1 < 2 < 1 H 5 = < 1 5 7 H S H H U H K U U H K H 4 M F F C 3 V ",
"a a e a a p < 2 C V h f j j j b b B H U 5 & > h < * @ % $ $ % > % % > * * % % % @ $ % % % * > < % $ $ & & 2 H U h p s d j s h > w w e w e u u a ",
"a k a a a a a a u u u u u a l l k j H U 4 % % % % % @ % $ * > > % > > > * % * % $ $ % * % % % * % % % @ @ @ 3 h e u a a a u e q q e u e q e 0 e ",
"a k l a a a a a a a a u u l l l k f 7 U 2 % % % % $ $ % % % * * > > > * % % % % $ $ $ % * % % * > $ % $ $ X 1 p e a u a a u e a e e u e e e u a ",
"a k k a a d a u a a a e e l l a a s F U < % * > % $ $ - > * > * > > > @ @ * $ % $ $ $ $ % $ @ * % % % % $ X 1 s e u u a e a e u u e e e e e a u ",
"a a a a d l d a a a a a a l l a a a F U > > > > * > > p % * > > p > * % $ * $ % $ @ @ $ $ X @ % $ $ $ $ @ $ 5 f e e a a a e u a u a e e e e a u ",
"a a a l l a a a u a a a a d d l l k V C > > % > > > * d % % > > p p > > % % $ $ @ @ @ @ @ @ @ % $ $ $ $ @ @ < > 0 u u k a u e a a u a u e e u u ",
"a l a x l l l a a a a a a a l l l d D B > > % > > > > x d p > p p f p > * % $ @ @ @ @ @ @ @ $ % % % $ @ $ $ < p 0 e e a a a a u e e a a e e e u ",
"l x l c l d l d a l a a a l d l l x } h > > > > % % p n d p p > p f f f > * $ @ $ $ @ @ $ $ $ % * * % @ $ $ 5 j u a u u a a a a e e e u a a e a ",
"k x c c x l l l l c c l k k a k l n X.h > > > > * % p m a p > > > p f s p % $ @ $ $ @ @ @ @ @ $ > * % @ @ % H j i k u u a a a u e e e e u a e u ",
"x W / ! ! Q ! ! / ` | ( ( T T A ( D X.U V h F F C F V ^ T h f p f f p p p > & & : > @ $ > > : * > > > > $ > 7 B j g a d d j j j d s a a p a a d ",
"$.:.<.5.2.<.6.6.2.&.:.&.#.&.$.#.+.#.X.U X.X.$.$.$.X.$.3.o.X.] R ] ] D U D J H U K H 7 8 7 5 7 H J U H H 7 C H H U R U R U H U K 8 H R U H H U U "
};
