/* XPM */
static const char *RGVzaWduK3NhbnMrdGl0cmUrJTI4MiUyOQ__[] = {
/* columns rows colors chars-per-pixel */
"72 72 168 2 ",
"   c #060602",
".  c #090702",
"X  c #070803",
"o  c #0A0A05",
"O  c #0C0D09",
"+  c #100D03",
"@  c #100F09",
"#  c #0F100B",
"$  c #141106",
"%  c #14130C",
"&  c #1B170D",
"*  c #1D190B",
"=  c #0F1210",
"-  c #151612",
";  c #161813",
":  c #1B1B13",
">  c #1E1E1A",
",  c #221C0F",
"<  c #221D15",
"1  c #221E18",
"2  c #1E201A",
"3  c #232116",
"4  c #24231C",
"5  c #2A261B",
"6  c #2E291E",
"7  c #242520",
"8  c #2A2620",
"9  c #272826",
"0  c #2B2B24",
"q  c #2D2D2A",
"w  c #322E24",
"e  c #302F2D",
"r  c #353127",
"t  c #33332C",
"y  c #3B352B",
"u  c #3C382D",
"i  c #353532",
"p  c #383730",
"a  c #373834",
"s  c #3C3B34",
"d  c #3C3C3B",
"f  c #423C2E",
"g  c #413D33",
"h  c #3F403A",
"j  c #464235",
"k  c #494436",
"l  c #43423C",
"z  c #49453A",
"x  c #4C483C",
"c  c #524D3F",
"v  c #444542",
"b  c #494742",
"n  c #464846",
"m  c #4B4B44",
"M  c #4B4D4A",
"N  c #544E42",
"B  c #504F4D",
"V  c #4F514D",
"C  c #555147",
"Z  c #52524D",
"A  c #5A554B",
"S  c #4E5351",
"D  c #545552",
"F  c #585754",
"G  c #555955",
"H  c #5B5A56",
"J  c #555B58",
"K  c #5C5D5A",
"L  c #625D56",
"P  c #615F5A",
"I  c #5D615E",
"U  c #666156",
"Y  c #62625D",
"T  c #6A655C",
"R  c #6F695F",
"E  c #5D6461",
"W  c #656562",
"Q  c #696663",
"!  c #656965",
"~  c #6B6A65",
"^  c #666C69",
"/  c #6C6D6A",
"(  c #716D63",
")  c #716E6A",
"_  c #6E716D",
"`  c #767067",
"'  c #787267",
"]  c #73726E",
"[  c #7A756D",
"{  c #7A786F",
"}  c #6F7371",
"|  c #747572",
" . c #797672",
".. c #767975",
"X. c #7A7A75",
"o. c #787778",
"O. c #757C7B",
"+. c #7C7D7A",
"@. c #817A6F",
"#. c #827E75",
"$. c #807E7B",
"%. c #77807C",
"&. c #7E817D",
"*. c #888277",
"=. c #82827E",
"-. c #8B857C",
";. c #7B8282",
":. c #848582",
">. c #898783",
",. c #868985",
"<. c #8A8A86",
"1. c #898788",
"2. c #848B8B",
"3. c #8C8D8B",
"4. c #918D85",
"5. c #918E8B",
"6. c #8E908D",
"7. c #989187",
"8. c #92928D",
"9. c #98958C",
"0. c #8D9595",
"q. c #8F9898",
"w. c #949593",
"e. c #999692",
"r. c #949896",
"t. c #9A9996",
"y. c #909898",
"u. c #939B9B",
"i. c #949C9C",
"p. c #9A9B99",
"a. c #9C9D9A",
"s. c #9B9E9D",
"d. c #999F9E",
"f. c #A0998F",
"g. c #A49E95",
"h. c #A19F9B",
"j. c #9EA09D",
"k. c #A5A096",
"l. c #A2A29E",
"z. c #A9A59F",
"x. c #A19FA1",
"c. c #99A1A1",
"v. c #9CA3A3",
"b. c #9CA4A4",
"n. c #A0A3A1",
"m. c #A4A5A3",
"M. c #A8A7A4",
"N. c #A6A8A6",
"B. c #A9A9A6",
"V. c #A2A9A9",
"C. c #ACADAB",
"Z. c #B1AFAB",
"A. c #AFB0AE",
"S. c #B1B2AF",
"D. c #B9B5AE",
"F. c #AEB1B0",
"G. c #B4B4B2",
"H. c #BBB7B3",
"J. c #B7B9B6",
"K. c #B9B8B6",
"L. c #BCBCBA",
"P. c #C0BFBC",
"I. c #BEC0BE",
"U. c #C2C1BF",
"Y. c #C4C4C2",
"T. c #CBC9C7",
"R. c #CDCDCB",
"E. c #D4D4D2",
/* pixels */
"y.y.y.y.y.y.y.y.y.y.y.y.y.y.y.y.y.y.y.y.y.y.y.y.y.y.y.y.y.y.y.0.y.y.y.y.y.y.y.y.y.y.y.y.y.y.y.y.y.y.y.y.y.y.y.y.y.y.y.y.y.y.y.y.y.y.y.y.y.y.y.y.",
"y.y.y.y.y.y.y.y.y.y.y.y.y.y.y.y.y.y.y.0.0.0.0.0.y.y.y.y.y.y.y.0.0.y.y.y.y.y.y.y.y.y.y.y.y.y.0.0.0.0.0.y.y.y.y.y.y.0.0.y.y.0.y.y.y.y.y.y.y.y.y.y.",
"y.y.y.y.y.y.y.y.y.y.y.y.y.y.y.y.y.y.y.q.2.;.0.0.y.y.y.y.y.y.0.0.2.0.b.i.y.y.y.y.y.y.y.y.y.y.q.2.;.0.0.y.y.y.y.y.0.3.2.y.b.i.y.y.y.y.y.y.y.0.0.0.",
"V.b.y.y.y.y.y.y.y.y.y.y.y.y.y.y.y.y.y.b.y.0.b.i.0.y.y.y.y.y.0.2.O.0.c.y.0.y.y.y.y.y.y.y.y.y.b.y.0.b.i.0.y.y.y.y.0.;.;.y.c.y.y.y.y.y.y.y.0.0.2.2.",
"i.y.y.y.y.y.y.y.y.y.y.y.y.y.y.y.y.y.0.y.0.0.y.y.y.y.y.y.y.y.0.0.0.c.y.0.0.y.y.y.y.y.y.y.y.0.y.0.0.y.y.y.y.y.y.y.0.0.y.b.y.0.0.y.y.y.y.y.0.3.;.2.",
"i.y.y.y.y.y.y.y.y.y.y.y.y.y.y.y.y.y.y.0.0.0.0.0.y.y.y.y.y.y.y.0.0.0.0.y.y.y.y.y.y.y.y.y.y.y.0.0.0.0.0.y.y.y.y.y.y.0.0.0.0.0.y.y.y.y.y.y.y.0.0.c.",
"0.0.y.y.y.y.y.y.y.y.y.y.y.y.y.y.y.y.y.0.0.0.0.0.0.0.0.y.y.y.y.y.y.y.i.c.b.V.V.c.d.d.i.i.y.y.y.0.0.0.0.0.0.0.y.y.y.y.0.0.0.y.y.y.y.y.y.y.y.y.0.0.",
"0.0.y.y.y.y.y.y.0.y.0.y.y.y.y.y.y.y.y.y.y.y.y.0.0.2.0.0.y.y.i.d.v.N.B.m.N.C.C.e.p.p.j.N.v.i.i.y.y.y.0.0.2.0.0.y.y.y.y.y.y.y.0.y.0.y.y.y.y.y.0.0.",
"y.y.y.y.y.y.y.y.i.y.i.y.y.y.y.y.y.y.y.y.y.y.y.0.2.;.3.y.d.v.n.v.a.<.=.] =.l.m.=.3.+.] X.6.a.m.v.d.y.0.2.;.3.y.y.y.y.y.y.y.y.i.y.i.y.y.y.y.y.y.y.",
"y.y.y.y.y.y.y.b.V.b.V.c.y.y.y.y.y.y.y.y.y.y.y.0.0.i.b.b.v.p.e.e.=.H l 9 0 p s t s l l z Z K ~ =.j.v.i.0.i.b.i.y.y.y.y.y.y.b.V.b.V.c.y.y.y.y.y.y.",
"y.y.y.y.y.y.0.0.2.;.2.0.0.y.y.y.y.y.y.y.y.y.y.y.y.y.y.d.n.:.D i > % % O % % % % : : & % : 4 t Z | 6.j.v.d.0.0.0.y.y.y.y.0.0.2.;.2.0.0.y.y.y.y.y.",
"y.y.y.y.y.y.y.0.2.O.;.0.0.y.y.0.q.0.y.y.y.y.y.y.y.,.&.X.v > : % % 4 4 3 4 9 4 r t 4 3 4 4 > % : 0 b / :.a.v.y.y.y.y.y.y.y.0.2.O.;.0.0.y.y.y.y.y.",
"y.y.y.y.y.y.y.0.0.2.0.0.y.y.0.0.3.0.0.y.y.y.y.0.+.K a > % - > 4 t s s l s s t t p t s l t t 9 4 : & 4 b  .t.m.d.y.y.y.y.y.q.0.2.0.0.y.y.y.y.y.y.",
"y.y.y.y.y.y.y.y.0.0.0.y.y.y.y.2.O.2.y.y.y.y.y.| m 7 - : > 4 t l s t 4 > % : : : - % > 9 9 t p t w 4 : : 8 H <.n.v.y.y.y.y.y.0.0.0.y.y.y.y.y.y.y.",
"y.y.y.y.y.y.y.y.y.y.y.y.y.y.b.c.0.c.c.q.y.0.,.m : : 2 4 t s t 4 % O o . . O % O O   o O @ % 4 0 u u y 5 & : z =.d.v.y.y.y.y.y.y.y.y.y.y.y.y.y.y.",
"y.y.y.y.y.y.y.y.y.y.y.y.y.y.y.0.0.0.q.y.0.+.l : ; 9 t 0 4 % O O . . o o o o o   o o O . o o o @ & 0 g s t < & t ) r.v.i.y.y.y.y.y.y.y.y.y.y.y.y.",
"y.y.y.y.y.y.y.y.y.y.y.y.y.y.y.0.0.0.0.6.+.s ; > 0 s 4 O o X o o o X o O o X o o o o o o o O O . . O : 0 s u 6 < 5 L e.v.i.y.y.y.y.y.y.y.y.y.y.y.",
"y.y.y.y.y.y.0.0.0.0.0.y.y.y.y.y.y.y.0./ s > : 0 t : o X % o X X o   o o X X o O O X o o o o o o o # @ $ 4 g g r < 1 H e.v.y.0.0.0.y.y.y.y.y.y.y.",
"y.y.y.y.y.y.y.2.;.0.y.y.y.q.y.y.y.y.w.M : : t t : X   O o X O o o o X X     X o X o   X o O O o o o O O + * w f w < 8 P w.y.:.0.y.y.y.y.y.y.y.y.",
"y.y.y.y.y.y.b.0.2.c.c.y.y.q.y.y.y.m.,.i ; 0 s : # - 7 t q q d v i t > - O o       o o o o o o o O o O O o o $ 3 y w 0 0 ~ 3.y.c.c.y.y.y.y.y.y.y.",
"y.y.y.y.y.y.b.y.0.c.c.y.y.y.y.y.y.p.F > 9 l q 9 h +.m.e.:./ a.U.L.G.j.:.W V t > - O o   o o o O o . X . O @ o o < u g w t  .w.b.c.y.y.y.y.y.y.y.",
"y.y.y.y.y.0.y.y.i.y.y.y.y.y.y.y.y.:.s d ] 3.+._ ] 8.a.=.+.+.w.S.t.G.t.m.B.L.G.6.~ V 9 - O X X X X X X . . . o o $ 5 x b w m :.d.y.y.y.y.y.y.y.y.",
"y.y.y.y.y.0.0.0.0.0.0.y.y.y.y.i.N.=.:.S.P.G.6.X.] =.&.t.8.8.| =./ =.X.+.:.n.C.<.<.C.C.X.d - o X X o o . . O O o o % 6 C s 0 ( w.y.y.y.y.y.y.y.y.",
"y.y.y.y.y.y.0.0.0.0.0.y.y.y.y.m.Y.Y.R.L.l.l.=.8.=.8.+.j.=.t.:.e.3.3.W D w.+.<.+.p.a.K.N.a.W q - o X X X X . o o $ : < r z r j <.y.y.y.y.y.y.y.y.",
"i.y.y.y.y.y.y.y.y.y.y.y.y.y.v.L.T.B.h.e.<.e.=.:.| :.<.3.| =.:.:.t.,.3.+.N.=.:.X.+.3.,.8.p.m.l.^ 4 o X X X   o O % 0 5 < k j w ( 6.y.y.y.y.y.y.b.",
"y.0.0.y.y.y.y.y.y.y.y.c.V.V.L.L.M.e.:.l.=.e.<.~ s H 8.,.w.=.8.:.e.+.8.w.3.t.<.w.+.3.+.,...3.3.3._ >     X o X O : t 0 $ r c y x :.i.y.y.y.y.i.b.",
"O.;.0.0.y.y.y.y.y.y.y.c.v.L.S.l.e.h.=.<.+.=.3.=.:.8.e.=.6.+.+.| &.:.8.C.6.p.,.3.+.<.w.d.r.w.X.+.l.m 2 O X   o % ; 4 w $ * f f t X.y.y.y.0.y.V.b.",
";.;.0.0.y.y.y.y.y.y.v.V.L.L.e.e.>.t.| :.=.] :. .8.:.a.<.l.3.X.+...X.+.a.6.d.3.,.:.+.6.3.p.6.w.=.a.,.8.H ; o o O % % : $ $ 5 f w W 0.y.y.y.0.0.0.",
"0.0.0.y.y.y.y.y.y.y.d.G.e.e.8.<.+.>.X.~ X./ 5.] 6.+.=.,.6.6.+.+.&.X.+.w.3.3.w.+.w.+.d.,.6.3.<.+.<.=.<.N.W ; o o # X O o + * j w m <.y.y.y.0.0.0.",
"y.y.y.y.y.y.y.y.y.d.J.G.| <.<.=.>.>.>.] =.~ ) / +.:.=.a.3.<.+.&.+.+.+.3.j.3.m.:.,.,.<.w.3.t.r.w.+.=./ p.N.V ; X o o .   . $ y u l 3.y.y.y.y.y.y.",
"y.y.y.y.y.y.y.y.i.C.l.a.+.] ] / $.] :.) 3.X.$.X.~ / Y =.&.:.3.&.=.,.&.,.3.w.d.d.y.v.<.y.O.,.:.,.X.:...:.r.6.M O o X     . + 6 j l 3.y.y.y.y.y.y.",
"y.y.y.y.y.y.y.y.b.K.+.=.=. .<.] 5.X.>.) ]  .~ $.] 3.| +.H F l.=.6.<.w.3.;.3.,.0.:.r.6.p.3.y.3.&.| ] _ ^ W _ J ; X X . .   + 3 x s =.y.y.y.y.y.y.",
"y.y.y.y.y.y.y.i.K.m.+. .X.W | Y ] X.>.>.<.<.) $.~ ] X.| 8.e.M.=.3.,.w.C.:.j.3.p.3.8.r.<.,.:..._ _ ! / ^ I I S 9 = X o   . + , j u ] 6.y.y.y.y.y.",
"y.y.y.y.y.y.y.i.e.X.X.] >.] <. .4.>.=.<.X.$.) =.$. .>.~ ] >.l.m.B.N.C.C.,.w.,.X.:.&.a.<.j.:.....} ^ ! ! ! E K ! M %     + + * k g ] 3.y.y.y.y.y.",
"y.y.y.y.y.y.i.N.X.] +./ ) Q ] ] $.<.=.t.>.e.] Q  .Q >.e.a.l.l.B.t.w.B.S.G.C.C.:.3.+.3.+.+.:.| ..| ! v G / ! I ! } q o   . o * x m ` ,.0.y.y.y.y.",
"y.y.y.y.y.y.V.G.+./ X.Q =.X.=.=.$.3.$.=.=.>.X. .e.=.C.C.t.:.C.S.t.,.d.8.n.Y.S.:.X.| :.j.,.r.| ,.O.^ d I ! E K J ! n ; @ . o * k C / ,.0.y.y.y.y.",
"y.y.y.y.y.y.m.l.+.X.H e ) X.) +.] 8.$.5.] l.e.] :.a.m.3.e.3.r.S.K.3.w.t.l.m.Y.C.+...| <.&.3.:.+.y.+.:.| _ I S J F K 9 % O o * k A / 3.0.y.y.y.y.",
"y.y.y.y.y.i.A.=.X.) ] W =.=.] $.~ =.] 8.>.Z.h. .C.K.8.e.t.p.6.a.a.<.+.<.r.t.m.L.=.! / 3.6.=.w...&.| ../ | ^ E J F / n O o . * N L X.0.y.y.y.y.y.",
"y.y.y.y.y.i.C.) ] K ~ H W ] ~ =.] :. .>.t.8.+.~ a.m.<.:.:.r.3.N.N.C.e.a.B.r.8.C.j._ ] +.8.:.6.,.,.1.+.&._ ! ! G G / Y : o . , A ] ,.y.y.y.y.y.y.",
"i.y.y.y.y.y.a./ =.) >.X.+.<.] X.W / ] ~ $. .5.| a.t.p.:.X.Y <.d.=.G.G.r.r.t.t.r.G.:.N.a.m.r.,...W / / +._ ;.%.I J E I 4 o o 5 L $.0.y.y.y.y.y.b.",
"y.0.0.y.y.y.a.+.t.| ] / / $.) +.| =.:.| 5.] $.] a.t.<.<.r.>.! r.m.R.B.3.8.e.r.e.L.w.3.r.r.j.6.r.$.r.$.&.! ! } ^ E ! K 0 o o u ` <.y.y.y.y.y.i.b.",
"O.;.0.0.y.y.p.=.h.<.=.<.X.e. .=.| / X.W  .~ 7.>.9.l.5.h.a.w./ ,.e.l.8.:.e.a.t.p.R.N.<.r.K 3.p.w.+./ | W ..^ O.&.! E F i O % x X.6.y.y.y.0.y.V.b.",
";.;.0.0.y.y.r.o.=.X.W ) / X./  .$.X.a.] e.X.X.` { z.X.+.=.=.+.<.+.,.C.B.K.d.d.N.L.e.e.l.H +.m.3.x.:.t.+.,.+._ ../ ^ } K : 1 P ,.y.y.y.y.y.0.0.0.",
"0.0.0.y.y.y.t./ W X.) :. .t.+.| X.P Q P { ] ( *.` e.h.X.:.:.3.C.+.+.M.R.Y.C.w.K.d.d.p.d.N.m.6.! +.+.| | ~ / ~ O.+.;.p.| > s  .6.0.y.y.y.y.0.0.0.",
"y.y.y.y.y.y.d./ =.<.~ $.] ] ] Y ] ) 5. .7.9.X.g.X.X.Z.h.$. .m.L.:.:.+.N.8.3.G.K.:.| :.:.:.X.o./ W w.X.e.X.K i M <./ +./ t ~ 2.0.y.y.y.y.y.y.y.y.",
"y.y.y.y.y.y.n.Q ~ | / | K :.5.X.8. .>.( ~ [ ~ *.#.-.D.H.M.=.o.3.,.h.3.$.e.P.R.a.M.:.m.3.t.r.<.3.| 3.+.=.] m 9 v p.o...+.K ;.0.y.y.y.y.y.y.y.y.y.",
"y.y.y.y.y.i.m./ | <.) F 9 H t.Q ~ ) =.X.X.g.[ f.-.[ >.[ z.T.G.a.r.m.C.Z.Y.Y.L.<.l.:.+.X.] X...X.| ..<.X.6.| $.:.5./ +.r.6.0.0.c.i.y.y.y.y.y.y.y.",
"y.y.y.y.y.y.y...| a.~ $.Q 5.M.=.z.#.>.*.T 4.' ( [ ` 7. .5.K.8.w.a.l.m.d.3.+.,.:.8.3.X.t.:.l.t.d.w.&.6.| X.] Q ] ~ +.p.y.y.y.i.y.y.y.y.y.y.y.y.y.",
"y.y.y.y.y.0.0.;.| a.Y ] | / | / =.[ U ( R 7.-.*.g.[ e.$./ ] Q / / +.:.+.N.,.t.+.,.L.6.e.=.+.=.X.:.X.+.] ] 8.X.e.X.,.n.y.0.0.0.0.0.y.y.y.y.y.y.y.",
"y.y.y.y.y.y.0.0.! W Z K W W <.] 4.4.{ k.#.*.@.L T T [ X.] e.+.x.<.w.N.:.G.3.+.M Z L.a.+.8.+.l.+.a.3.8.3./ :./ _ ~ W 0.y.0.0.0.0.0.y.y.y.y.y.y.y.",
"i.y.y.y.y.y.y.y.,.3./ :.6.] e./ ~ ` L T ( U ' ( 4.#.>.t.Q a.:.>.+./ :.| :.3.] r.B.E.m.3.C.=.3.] ..=.+.| Y W X.~ 3.+.0.y.y.y.y.y.y.y.y.y.y.y.y.b.",
"y.0.0.y.y.y.y.i.C.p.] Y W F Y Q T  .Q 9.7.#.9.( #.( H L Z | | +.n.+.M.3.3.B.+.r.a.<.=.] ..X.| :.X.e.,.8.<._ =.W ] &.0.y.y.y.y.y.y.y.y.y.y.y.i.b.",
"O.;.0.0.y.y.y.y.v.:.X...8.] e.8. .t./  .{ L T T H { Q e.+.h.a.+.p.| :...W | | +.3.=.m.3.8.m.<.m.&.6.X.~ W H Y ~ D :.0.y.y.y.y.y.y.y.y.y.0.y.V.b.",
";.;.0.0.y.y.y.y.i.N.<.^ X.Q W ~ H W Q ) =.` t.-.*.z.) 3. .] 3.W +.| | <./ p.t.<.C.:.a.3.+.$.~ ] | ] =.] <.X.X.6.^ 0.y.y.y.y.y.y.y.y.y.y.y.0.0.0.",
"0.0.0.y.y.y.y.y.y.i.<.Y ] ~ ] <.| a.<.<.a./ #.] Y ] ~ / ] | C.&.C.3.&.r.~ | =.W ] ^ ~ +.| <.$.<.l.+.m.X.X.] K Y / 0.y.y.y.y.y.y.y.y.y.y.y.0.0.0.",
"y.y.y.y.y.y.y.y.y.y.m.&.d.+.+.w.~ =.+.K ~ K Y ] Q 8.=.8.l. .t...+._ ! W D I :.| p.p.:.S.>.m.5.+.<./ Q I D | ~ K 2.y.y.y.y.y.y.y.y.y.y.y.y.y.y.y.",
"y.y.y.y.y.y.y.y.y.y.y.6.W D K <.+.,.:.] l.X.:.l./ 8.+.] +.Y ~ / G S J G V _ G.,.8.<./ =.) ] +.~ +.X.+.8.Y <.,.<.b.c.y.y.y.y.y.y.y.y.y.y.y.y.y.y.",
"y.y.y.y.y.y.y.y.y.y.y.y.w.! Y a.=.3.:.H X.W H / K Q / Q <.| e.t.F n D V D K +./ ~ +.] =.=.] e.$.p.6.| 3.K D / 2.3.0.0.y.y.y.y.y.y.y.y.y.y.y.y.y.",
"y.y.y.y.y.y.y.y.y.y.y.y.y.6.W B D W =.Q / / / 8.] <.l.~ 8.&.X.=.M v n V H / <.p.+.Z.e.<.K 7 v =.^ ~ H K ^ W ;.O.;.0.y.y.y.y.y.y.y.y.y.y.y.y.y.y.",
"y.y.y.y.y.y.0.0.0.0.0.y.y.y.p.W D Y M.X.t.8.] a.] ~ | F m M F ^ F K K D +.] +.N.:.r.=. .Y > i 8.| t.,...m.,.2.2.0.0.y.y.0.0.0.0.0.y.y.y.y.y.y.y.",
"y.y.y.y.y.y.y.2.;.0.y.y.y.y.d.n.+.K | H H D n Z F D _ _ | ] >.S.<.,.<.H ] / / ,.+.:.a.=.e.] <.B./ :.X.^ r.y.0.0.0.y.y.0.y.2.;.0.y.y.y.y.y.y.y.y.",
"y.y.y.y.0.y.b.0.0.i.i.y.y.y.y.d.C.o.B Z ~ 6.W 6.r.| C.,...d q ] a.W / K W e.+.B.l.3.G.:.+.| / ] ^ K ^ 6.y.y.y.y.y.y.y.y.b.0.0.i.i.y.y.y.y.y.y.y.",
"y.y.y.y.y.0.y.y.i.y.y.y.y.y.y.y.d.N.t.X.X.a.~ ..X.Y | / ^ a > D n.| B.<...K.+.<.,._ | ] H ~ | =.n.:.3.y.y.y.y.y.y.y.q.0.y.y.i.y.y.y.y.y.y.y.y.y.",
"y.y.y.y.y.0.0.0.0.0.0.y.y.y.y.y.y.y.0.G.3.Y D H | ^ :.e.| +./ t.N.! ,.+.W w.3.] <.X.<.l.] e.a.&.m.y.y.y.y.y.y.y.y.y.y.0.0.0.0.0.0.y.y.y.y.y.y.y.",
"y.y.y.y.y.y.0.0.0.0.0.y.y.y.y.y.y.0.2.3.d.N.=.<.G.| $.a./ +.| W K K W <.] l.G.+.C.e.=.t.| X.m.0.y.y.y.y.y.y.y.y.y.y.y.y.0.0.0.0.0.y.y.y.y.y.y.y.",
"i.y.y.y.y.y.y.y.y.y.y.y.y.y.y.y.y.0.0.0.y.i.v.L.G.] F Y K ] $.W p.e.+.C...e.L.| ] | X.<.p.y.y.0.0.y.y.y.y.y.y.y.y.y.y.y.y.y.y.y.y.y.y.y.y.y.y.b.",
"y.0.0.y.y.y.y.y.y.y.y.c.V.i.y.y.y.y.y.y.y.y.i.c.m.N.d.w.:.p.K.+.l.l.] / ,.G.L.N.m.C.C.v.i.y.y.y.y.y.y.y.y.y.y.y.y.y.y.y.y.y.y.y.y.y.y.y.y.y.i.b.",
"O.;.0.0.y.y.y.y.y.y.y.c.y.2.0.0.y.y.y.y.y.c.V.b.V.b.c.v.m.F.L.K.L.Y.L.G.I.G.m.j.m.m.c.y.y.y.y.y.c.V.b.V.c.y.y.y.y.y.y.y.y.y.y.y.y.y.y.y.0.y.V.b.",
";.;.0.0.y.y.y.y.y.y.c.b.0.O.2.0.y.y.y.y.y.0.2.2.2.0.y.y.y.i.c.v.m.V.V.m.V.V.0.;.2.q.y.y.y.y.y.y.0.2.2.2.0.0.y.y.y.y.y.y.y.y.y.y.y.y.y.y.y.0.0.0.",
"0.0.0.y.y.y.y.y.y.0.0.0.2.2.2.0.y.y.y.y.y.0.2.O.;.0.0.y.y.y.y.y.y.y.y.y.0.0.2.;.2.0.y.y.y.y.y.y.0.2.O.;.0.0.y.y.y.y.y.y.y.y.y.y.y.y.y.y.y.0.0.0.",
"y.y.y.y.y.y.y.y.y.y.0.0.0.0.0.0.y.y.y.y.y.0.0.2.3.0.y.y.y.y.y.y.y.y.y.0.0.0.0.0.0.0.y.y.y.y.y.y.0.0.2.3.0.y.y.y.y.y.y.y.y.y.y.y.y.y.y.y.y.y.y.y.",
"y.y.y.y.y.y.y.y.y.y.y.y.y.y.y.y.y.y.y.y.y.y.0.0.0.y.y.y.y.y.y.y.y.y.y.y.y.y.y.y.y.y.y.y.y.y.y.y.y.0.0.0.y.y.y.y.y.y.y.y.y.y.y.y.y.y.y.y.y.y.y.y."
};
