/* XPM */
static char *b83f8dcfa64c45b0c815dc0908e94c4addjvXRPsBREypIoc[] = {
/* columns rows colors chars-per-pixel */
"72 72 136 2 ",
"   c #12110E",
".  c #191A17",
"X  c #292826",
"o  c #302F2D",
"O  c #353432",
"+  c #3C3D3A",
"@  c #3F413D",
"#  c #40413C",
"$  c #454544",
"%  c #464846",
"&  c #4A4946",
"*  c #4B4D4A",
"=  c #504F4D",
"-  c #4F524E",
";  c #51524E",
":  c #4C5451",
">  c #545552",
",  c #585653",
"<  c #555956",
"1  c #5A5A56",
"2  c #545B59",
"3  c #5C5E5A",
"4  c #605D55",
"5  c #615E5A",
"6  c #5C615E",
"7  c #686157",
"8  c #62625D",
"9  c #6B665D",
"0  c #71695F",
"q  c #5E6461",
"w  c #646562",
"e  c #696662",
"r  c #656965",
"t  c #6B6A65",
"y  c #666B69",
"u  c #6D6D6A",
"i  c #726D65",
"p  c #716E6B",
"a  c #6E716D",
"s  c #727067",
"d  c #787167",
"f  c #73726D",
"g  c #79756C",
"h  c #7D796F",
"j  c #6E7371",
"k  c #757572",
"l  c #797672",
"z  c #767975",
"x  c #7B7A75",
"c  c #757C7C",
"v  c #7C7D7A",
"b  c #817C74",
"n  c #817F7B",
"m  c #7E817D",
"M  c #888077",
"N  c #82827D",
"B  c #89857C",
"V  c #817F80",
"C  c #7B8282",
"Z  c #848582",
"A  c #898683",
"S  c #868985",
"D  c #8A8A86",
"F  c #848B8B",
"G  c #8C8D8B",
"H  c #918C84",
"J  c #918F8B",
"K  c #8E908D",
"L  c #979086",
"P  c #92918E",
"I  c #99948C",
"U  c #9C988D",
"Y  c #8D9595",
"T  c #8F9898",
"R  c #949592",
"E  c #989693",
"W  c #969896",
"Q  c #9A9A96",
"!  c #999798",
"~  c #909898",
"^  c #9C9D9A",
"/  c #A29C92",
"(  c #A19E9B",
")  c #9AA09F",
"_  c #9EA09D",
"`  c #A1A19E",
"'  c #A1A19F",
"]  c #A4A09D",
"[  c #99A1A1",
"{  c #9CA1A0",
"}  c #9FA5A2",
"|  c #9CA4A4",
" . c #A1A4A3",
".. c #A5A5A3",
"X. c #A2A6A4",
"o. c #A7A7A5",
"O. c #A8A7A3",
"+. c #A9A7A3",
"@. c #A3A8A6",
"#. c #A4A9A7",
"$. c #AAA9A7",
"%. c #A2AAAA",
"&. c #ABABA9",
"*. c #ACADAB",
"=. c #A8ADAC",
"-. c #B0AFAD",
";. c #B2AFAC",
":. c #ABB0AE",
">. c #ADB0AF",
",. c #B2B1AE",
"<. c #B1B2AE",
"1. c #BAB6AF",
"2. c #ADB3B2",
"3. c #B3B3B2",
"4. c #B4B3B0",
"5. c #B5B5B3",
"6. c #B7B9B5",
"7. c #B9B9B6",
"8. c #B7B9B8",
"9. c #BCBDBA",
"0. c #BFBFBD",
"q. c #C1BDBA",
"w. c #C0BFBD",
"e. c #BFC0BD",
"r. c #C3C1BD",
"t. c #C0C0BE",
"y. c #C1C2C0",
"u. c #C5C4C1",
"i. c #C4C5C3",
"p. c #C6C5C3",
"a. c #C7C8C4",
"s. c #CBC8C6",
"d. c #CAC9C6",
"f. c #CACAC8",
"g. c #CCCCCA",
"h. c #D0D0CE",
/* pixels */
"~ ~ ~ ~ ~ ~ ~ ~ ~ ~ ~ ~ ~ ~ ~ ~ ~ ~ ~ ~ ~ ~ ~ ~ ~ ~ ~ ~ ~ ~ ~ Y ~ ~ ~ ~ ~ ~ ~ ~ ~ ~ ~ ~ ~ ~ ~ ~ ~ ~ ~ ~ ~ ~ ~ ~ ~ ~ ~ ~ ~ ~ ~ ~ ~ ~ ~ ~ ~ ~ ~ ~ ",
"~ ~ ~ ~ ~ ~ ~ ~ ~ ~ ~ ~ ~ ~ ~ ~ ~ ~ ~ Y Y Y Y Y ~ ~ ~ ~ ~ ~ ~ Y Y ~ ~ ~ ~ ~ ~ ~ ~ ~ ~ ~ ~ ~ Y Y Y Y Y ~ ~ ~ ~ ~ ~ Y Y ~ ~ Y ~ ~ ~ ~ ~ ~ ~ ~ ~ ~ ",
"~ ~ ~ ~ ~ ~ ~ ~ ~ ~ ~ ~ ~ ~ ~ ~ ~ ~ ~ T F C Y Y ~ ~ ~ ~ ~ ~ Y Y F Y { ~ ~ ~ ~ ~ ~ ~ ~ ~ ~ ~ T F C Y Y ~ ~ ~ ~ ~ Y G F ~ | ~ ~ ~ ~ ~ ~ ~ ~ Y Y Y ",
"%.| ~ ~ ~ ~ ~ ~ ~ ~ ~ ~ ~ ~ ~ ~ ~ ~ ~ | ~ Y | ~ Y ~ ~ ~ ~ ~ Y F c Y [ ~ Y ~ ~ ~ ~ ~ ~ ~ ~ ~ | ~ Y | ~ Y ~ ~ ~ ~ Y C C ~ [ ~ ~ ~ ~ ~ ~ ~ Y Y F F ",
"~ ~ ~ ~ ~ ~ ~ ~ ~ ~ ~ ~ ~ ~ ~ ~ ~ ~ Y ~ Y Y ~ ~ ~ ~ ~ ~ ~ ~ Y Y Y [ ~ Y Y ~ ~ ~ ~ ~ ~ ~ ~ Y ~ Y Y ~ ~ ~ ~ ~ ~ ~ Y Y ~ | ~ Y Y ~ ~ ~ ~ ~ Y G C F ",
"~ ~ ~ ~ ~ ~ ~ ~ ~ ~ ~ ~ ~ ~ ~ ~ ~ ~ ~ Y Y Y Y Y ~ ~ ~ ~ ~ ~ ~ Y Y Y Y Y ~ ~ ~ ~ ~ ~ ~ ~ ~ ~ Y Y Y Y Y ~ ~ ~ ~ ~ ~ Y Y Y Y Y ~ ~ ~ ~ ~ ~ ~ Y Y [ ",
"Y Y ~ ~ ~ ~ ~ ~ ~ ~ ~ ~ ~ ~ ~ ~ ~ ~ ~ Y Y Y Y Y Y Y Y ~ ~ ~ ~ ~ Y Y Y ~ ~ ~ ~ ~ ~ ~ ~ ~ ~ ~ Y Y Y Y Y Y Y Y ~ ~ ~ ~ Y Y Y ~ ~ ~ ~ ~ ~ ~ ~ ~ Y Y ",
"Y Y ~ ~ ~ ~ ~ ~ Y ~ Y ~ ~ ~ ~ ~ ~ ~ ~ ~ ~ ~ ~ Y Y F Y Y T ~ ~ ~ ~ ~ ~ Y ~ Y ~ ~ ~ ~ ~ ~ ~ ~ ~ ~ ~ ~ Y Y F Y Y ~ ~ ~ ~ ~ ~ ~ Y ~ Y ~ ~ ~ ~ ~ Y Y ",
"~ ~ ~ ~ ~ ~ ~ ~ ~ ~ ~ ~ ~ ~ ~ ~ ~ ~ ~ ~ ~ ~ ~ Y F C G ~ ~ ~ ~ ~ ~ ~ ~ ~ ~ ~ ~ ~ ~ ~ ~ ~ ~ ~ ~ ~ ~ ~ Y F C G ~ ~ ~ Y Y Y ~ ~ ~ ~ ~ ~ ~ ~ ~ ~ ~ ~ ",
"~ ~ ~ ~ ~ ~ ~ | %.| %.[ ~ ~ ~ ~ ~ ~ ~ ~ ~ ~ ~ Y Y ~ | ~ ~ ~ ~ ~ ~ ~ | %.| %.[ ~ ~ ~ ~ ~ ~ ~ T ~ ~ ~ T Y ~ | ~ ~ ~ Y Y Y ~ | %.| %.[ ~ ~ ~ ~ ~ ~ ",
"~ ~ ~ ~ ~ ~ Y Y F C F Y T ~ ~ ~ ~ ~ ~ ~ ~ ~ ~ ~ Y Y Y Y Y ~ ~ ~ ~ Y Y F C F Y Y ~ ~ ~ ~ ~ ~ ~ ~ ~ ~ ~ Y Y Y Y Y ~ ~ ~ ~ Y Y F C F Y Y ~ ~ ~ ~ ~ ",
"~ ~ ~ ~ ~ ~ ~ Y F c C Y Y ~ ~ Y T T ~ ~ ~ ~ ~ ~ Y F Y Y ~ ~ #.} ~ S ~ =.X.X.#.^ S c F ~ ~ ~ ~ ~ ~ ~ ~ ~ Y Y Y ~ ~ ~ ~ ~ ~ Y F c C Y Y ~ ~ ~ ~ ~ ",
"~ ~ ~ ~ ~ ~ ~ Y Y F Y Y ~ ~ Y Y G Y Y ~ ~ ~ ~ Y S Z K G F E ,.Q G z Q d.0.u.5...P D ^ @.Y m Z ~ ~ ~ ~ ~ ~ ~ ~ ~ ~ ~ ~ ~ ~ ~ Y F Y Y ~ ~ ~ ~ ~ ~ ",
"~ ~ ~ ~ ~ ~ ~ ~ Y Y Y ~ ~ ~ ~ F c F ~ ~ Y S Y X.^ ..K x k D P Z N Z v ^ Z Q R R ^ 5.a.,.D x R { Y ~ ~ ~ ~ ~ ~ ~ ~ ~ ~ ~ ~ ~ Y Y Y ~ ~ ~ ~ ~ ~ ~ ",
"~ ~ ~ ~ ~ ~ ~ ~ ~ ~ ~ ~ ~ ~ | [ Y [ [ ~  .E $.y.9.,.D N k Z x ^ P Q z N k v z w z G ^ P Z ' t.5.W ~ F ~ ~ ~ ~ ~ ~ ~ ~ ~ ~ ~ ~ ~ ~ ~ ~ ~ ~ ~ ~ ~ ",
"~ ~ ~ ~ ~ ~ ~ ~ ~ ~ ~ ~ ~ ~ ~ Y Y Y ~ >.f.u.d.;.R Q N R Z P N Q v P S J E R v , S D v v Z E ^ &.o.' K ) G Y Y Y Y Y ~ ~ ~ ~ ~ ~ ~ ~ ~ ~ ~ ~ ~ ~ ",
"~ ~ ~ ~ ~ ~ ~ ~ ~ ~ ~ ~ ~ ~ ~ Y Y ~ =.y.w.^ P R Z R Z v 8 k G D v x D N W S G D ^ R Z Z v Z S v D R &...Z Y F c Z Y ~ ~ ~ ~ ~ ~ ~ ~ ~ ~ ~ ~ ~ ~ ",
"~ ~ ~ ~ ~ ~ Y Y Y Y Y ~ ~ ~ ~ ~ ~ =.e.4.( R N ^ N P G p @ 1 P Z W m P N K N S Q G E R P D Z D Z Z v D Z G R Y F Y Y T T Y Y Y Y Y ~ ~ ~ ~ ~ ~ ~ ",
"~ ~ ~ ~ ~ ~ ~ F C Y ~ ~ ~ ~ ~ ~ :.u.+.Q P ] v Z v v D N P Q Q N P N z k z m S o.^ W K S Z m G Q _ Q G z S 5.~ ~ S Y T Y ~ F C Y ~ ~ ~ ~ ~ ~ ~ ~ ",
"~ ~ ~ ~ ~ ~ | Y F [ [ ~ ~ ~ ~ #.9.,.G R A E f Z n f A k P N Q D _ R v v x z k K R E W S S m Z K G W K P Z ^ P ' v F Y ~ | Y F [ [ ~ ~ ~ ~ ~ ~ ~ ",
"~ ~ ~ ~ ~ ~ | ~ Y [ [ ~ ~ ~ =.,.A P P A v A x e x t G p G v v D D P N v N v v D R D R S S G G Q S K K S v Z N D *.m S ~ | ~ Y [ [ ~ ~ ~ ~ ~ ~ ~ ",
"~ ~ ~ ~ ~ Y ~ ~ ~ ~ ~ ~ ~ #.9...u D Z n D A D f Z u u u k N x Q G G m m v v c Z ^ R ^ W Z D S G K G Q E G x v u ^ =.z F ~ ~ ~ ~ ~ ~ ~ ~ ~ ~ ~ ~ ",
"~ ~ ~ ~ ~ Y Y Y Y Y Y ~ | *.R R x f f u n p N p G x n v t f 3 x x v P N m S Z Z S G W _ Q ^ ~ G G v S Z N x Z z Z R R y F Y Y Y Y ~ ~ ~ ~ ~ ~ ~ ",
"~ ~ ~ ~ ~ ~ Y Y ~ ~ ~ ~ >.$.f N n x D f J x A p f l t v f G l m 8 * ^ D G G K R Z S D G D D R R E G ~ S v k u a w w y y Y Y Y Y Y ~ ~ ~ ~ ~ ~ ~ ",
"~ ~ ~ ~ ~ ~ ~ ~ ~ ~ ~ @.5.R k l l w k 8 f x A D D D p n t u x f G R $.A G D G *.K R R R E G R R S S m k a y y y y 6 6 6 F F Y T ~ ~ ~ ~ ~ ~ ~ | ",
"~ Y Y ~ ~ ~ ~ ~ ~ ~ ~ { D k x k Z k J x L A N D l n p N n l D u p N ^ +.$.o.$.,.R G K v v m G W K ^ v z z j r w y y q 6 j y Y T ~ ~ ~ ~ Y ~ ~ | ",
"c C Y Y ~ ~ ~ ~ ~ ~ X.^ f k x t u e f f N D N Q A Q f e l 8 Z E ^ ' ' $.^ P ' *.3.>.3.W S S N D z m m k z j q @ 3 a y 6 r m F Y ~ ~ ~ ~ Y ~ %.| ",
"C C Y Y ~ ~ ~ ~ ~ ~ >...f f l t A x N n N G v N N A b l E N &.,.' N ..5.' S Q R E 6.e.W v z z P ~ F K k S c q + w r q 3 2 y w G ~ ~ ~ ~ ~ Y Y Y ",
"Y Y Y ~ ~ ~ ~ ~ ~ ~ X.R x k & O x l p v k R v J f ] E f N Q $.J R G R =.9.Q G E ^ ^ 6.e.R z k v S Z K m m ~ v Z a y 2 : 2 2 y F Y ~ ~ ~ ~ Y Y Y ",
"~ ~ ~ ~ ~ ~ ~ ~ ~ #.' x l p u e D v f v t N f P A ;.( l $.7.R P Q ^ K ^ _ G v Z R E ^ 6. .a y x R D Z G k Z k z y j y q 2 2 u w F ~ ~ ~ ~ ~ ~ ~ ",
"~ ~ ~ ~ ~ ~ ~ ~ ~ @.W u u 3 w 1 t f u N f D l D Q R n t ^ $.G D Z Q G { o.*.E R o.^ G ' *.S t k S G Z P S D D m v a q q 2 2 u a Y ~ ~ ~ ~ ~ ~ ~ ",
"~ ~ ~ ~ ~ ~ ~ ~ ~ ^ D u x f D l n A f x w u f t n x G k Q Q ^ D v 3 Z  .m ..7.' R Q Q R $.^ G #.^  .K Z u w p u v a C c 6 2 q u Y ~ ~ ~ ~ ~ ~ ~ ",
"~ ~ ~ ~ ~ ~ ~ ~ ~ ^ G Z J u f t f v u v k Z Z l P k n f Q ^ G Z R D w G ^ u.7.E G R E P &.&.D R Q _ ^ G R v E v m w y j r q r y Y ~ ~ ~ ~ ~ ~ ~ ",
"~ ~ ~ ~ ~ ~ Y Y Y Q G D ^ N A Z x Q k Z f u l e f t L A E ] P ^ ' Q u v R o.Q Z D Q Q R 5.y.R G Z y ^ W G k p u w k y c m r 6 w F Y ~ ~ ~ ~ ~ ~ ",
"~ ~ ~ ~ ~ ~ ~ F C ~ D v D k e p u x t x n v ( f E l b f g +.n N Z Z v Z v Z  . .*...Q ^ 7.3.G ^ Z * D o.R ^ V Q v D z j z y y y z Y ~ ~ ~ ~ ~ ~ ",
"~ ~ ~ ~ ~ ~ | Y Y ^ D w t k f N x Q l x x 5 t 5 g p i b i Q Q l Z D Z $.S k ^ u.g.0.Q ..3. .' '  . . .D t Z z z u y a j m z Z ^ Z Y ~ ~ ~ ~ ~ ~ ",
"~ ~ ~ ~ ~ Y ~ ~ ~ { G u D N t N f l t 8 p u A f I I x / b g +.Q x f ^ d.R n x ..o.G Q 9.' z v Z Z Z x k w u R z R k 3 + < S u S v Y Y ~ ~ ~ ~ ~ ",
"~ ~ ~ ~ ~ Y Y Y Y ^ G 8 f k u x t J N x E l H i i g t B b B 1.t.&.x f G Z W G v N ' f.7. .P G ' G ^ R G D k R v S t # . @ Q z k v y F ~ ~ ~ ~ ~ ",
"~ ~ ~ ~ ~ ~ T Y Y { G w x N t & X t E 8 t p N g x Q g / H h L n ] q.;.Q G ( o. .7.g.h...E Q Z Z z x x z z u v Z v D t f v ! u z R C Y ~ ~ ~ ~ ~ ",
"~ ~ ~ ~ ~ ~ ~ ~ ~ ~ G u N P t f > P &.x Q l H B i L d d g i H f J d.$.Q ' o.&.&.' J G A D P v N G Z ^ R Q G v P l N u u f p z Y E Y Y ~ ~ ~ ~ | ",
"~ Y Y ~ ~ ~ ~ ~ ~ ~ G z Z Q 8 v k x N f D s t t 9 L M b / g / B f n p u k v Z N R D D G Z .. .G Q N D N Z Z x m u k A k P k D  .~ ~ ~ ~ ~ ~ ~ | ",
"c C Y Y ~ ~ ~ ~ ~ ~ ~ Z t u * 8 w w N u H B s U h H M 0 d 9 x l u A k J Z S ' S o. .G u $ S 6.D Z N N P v ^ Z G Z f G f v u u W ~ ~ ~ ~ Y ~ %.| ",
"C C Y Y ~ ~ ~ ~ ~ ~ | Y z k 8 N N f Q u x b 9 h i 9 i 7 b g B Q p ( A R S v G v D R v k v *.f.R E ' Z P f D N N x 3 a f t Z f Y ~ ~ ~ ~ ~ Y Y Y ",
"Y Y Y ~ ~ ~ ~ ~ ~ Y Y ~ ..P u f f 3 f 8 8 i 7 B B g H i H h i f > v l v E z P G Z ^ D D o.*.^ m m A k x k x P N D x u Z t N m Y ~ ~ ~ ~ ~ Y Y Y ",
"~ ~ ~ ~ ~ ~ ~ ~ ~ ~ T [  .N u u x w Z N l P t A B t g 9 9 i 4 x e D P v  .m G G z Z v v G S S G x G P Z ^ v Q v v f 8 u 8 3 C Y ~ ~ ~ ~ ~ ~ ~ ~ ",
"~ ~ ~ ~ ~ ~ ~ ~ Y ~ ~ ~ ^ R v z D u N l e x e i g 9 M h s U u Q N Z ^ u N z a m y x G Z Q E P +.D G G x D k v k t l t a N 3 F ~ ~ ~ ~ ~ ~ ~ ~ ~ ",
"~ ~ ~ ~ ~ ~ | ~ Y [ ~ ~ ^  .v 8 u w t k w n x N E f I N f H u l f e ^ k G D z R v v R N Z Z k N x l x p N D x Q x D l u v y G [ ~ ~ ~ ~ ~ ~ ~ ~ ",
"~ ~ ~ ~ ~ Y ~ ~ ~ ~ ~ ~ ~ ~ G u G k n P f Q Z k N 8 e u 6 x f x G f *.Z W G z m y 3 k u u Z z N P A ( A G Q k D w w a 3 1 c ~ ~ ~ ~ ~ ~ ~ ~ ~ ~ ",
"~ ~ ~ ~ ~ Y Y Y Y Y Y ~ ~ ~ ^ S Z r k G u N v 8 N t f D u Q A A E a m k y q 6 3 > < D G D  .D G Q n P n f N t t a < Z z u F Y Y Y ~ ~ ~ ~ ~ ~ ~ ",
"~ ~ ~ ~ ~ ~ Y Y Y Y Y ~ ~ ~ ~ G w > w Q N G Z t Q f l P w v k t x e f Z 3 * > < - < G R x N k u v f x A f P Z N R 3 v v G Y Y Y Y ~ ~ ~ ~ ~ ~ ~ ",
"~ ~ ~ ~ ~ ~ ~ ~ ~ ~ ~ ~ ~ ~ ~ ~ W u 8 S f Z n 1 u 8 , f 8 a N e P m G ' w $ * - ; < u v f x G N A p 5 Z N G v e x 3 > z Y ~ T ~ ~ ~ ~ ~ ~ ~ ~ | ",
"~ Y Y ~ ~ ~ ~ ~ ~ ~ ~ [ %.~ ~ ~ ~ ~ t % = w P f m v f _ x N ^ e x f w k > % % * 3 y v ^ R R $.D l +   & D w k w w N k Y ~ ~ ~ ~ ~ ~ ~ ~ ~ ~ ~ | ",
"c C Y Y ~ ~ ~ ~ ~ ~ ~ [ ~ Y Y Y ~ ~ { k 1 w ' f G N w S t 3 t 3 * ; 3 v t r k 3 a z u G P Z D v x 8 o w ' k  .Z x &.G Y ~ ~ ~ ~ ~ ~ ~ ~ Y ~ %.| ",
"C C Y Y ~ ~ T ~ ~ ~ [ | Y C F Y ~ ~ ~ &.A 5 8 ; > 1 % > w 1 v v v u p o.^ S D w 8 k u v G N R ^ D P v R W w x u k ~ ~ ~ ~ ~ ~ ~ ~ ~ ~ ~ ~ Y Y Y ",
"Y Y Y ~ ~ ~ ~ ~ ~ Y Y Y F F F Y ~ ~ ~ ^ *.n , > f ^ u R ^ f #.S v +   % ^ k u u 8 P G P *.P W ' k f u e f k 3 k ~ ~ ~ ~ ~ ~ ~ ~ ~ ~ ~ ~ ~ Y Y Y ",
"~ ~ ~ ~ ~ ~ ~ ~ ~ ~ Y Y Y Y Y Y ~ ~ ~ ~ ~ =...A v P w u k 6 t u u * X &  .v ^ ^ k ^ Q x Z z t k t 3 k v G *.S ~ ~ ~ ~ ~ ~ ~ ~ ~ ~ ~ ~ ~ ~ ~ ~ ~ ",
"~ ~ ~ ~ ~ ~ ~ ~ ~ ~ ~ ~ ~ ~ ~ ~ ~ ~ ~ ~ ~ ~ [ 0.P 8 , 3 v u Z ( k Z l R o.u k v w v Q v v G N ^ Q k  .^ Z 2.%.| %.[ ~ ~ ~ ~ ~ ~ ~ ~ ~ ~ ~ ~ ~ ~ ",
"~ ~ ~ ~ ~ ~ ~ ~ ~ ~ ~ ~ ~ ~ ~ ~ ~ ~ ~ ~ ~ ~ ~ ~ #.5.G R 9.l k E u k k 8 1 8 3 S v D 7.W P $.Z Z G k S =.~ ~ Y F G Y Y ~ ~ ~ ~ ~ ~ ~ ~ ~ ~ ~ ~ ~ ",
"~ ~ ~ ~ ~ ~ ~ ~ ~ ~ ~ ~ ~ ~ ~ ~ ~ ~ ~ ~ ~ ~ ~ ~ Y Y [ e.3.v 3 3 3 u D w R ..v ^ D N 5.Q t f z Z R { ~ ~ ~ Y F c C Y ~ ~ ~ ~ ~ ~ ~ ~ ~ ~ ~ ~ ~ ~ ",
"~ ~ ~ ~ ~ ~ Y Y Y Y Y ~ ~ ~ ~ ~ ~ ~ ~ ~ ~ ~ ~ ~ Y Y Y ~ [ #.o.^ D Q t.G Q &.Z t v $.9.3.&.*.3.#.^ ~ Y Y T Y Y F Y Y ~ ~ Y Y Y Y Y ~ ~ ~ ~ ~ ~ ~ ",
"~ ~ ~ ~ ~ ~ ~ F C Y ~ ~ ~ ~ ~ ~ ~ ~ ~ ~ ~ ~ ~ ~ ~ ~ ~ ~ ~ ~ ~ { X.=.5.3.8.u.u.7.0.7.#.{ X.@.{ ~ ~ ~ ~ ~ ~ ~ Y Y Y ~ ~ ~ ~ F C Y ~ ~ ~ ~ ~ ~ ~ ~ ",
"~ ~ ~ ~ Y ~ | Y Y ~ ~ ~ ~ ~ ~ ~ ~ [ | ~ ~ ~ ~ ~ ~ ~ ~ ~ ~ ~ ~ ~ ~ | ~ ~ %.#.X.} [ [ [ ~ { @.~ ~ ~ ~ ~ ~ ~ ~ ~ ~ ~ ~ ~ ~ | Y Y ~ ~ ~ ~ ~ ~ ~ ~ ~ ",
"~ ~ ~ ~ ~ Y ~ ~ ~ ~ ~ ~ ~ ~ ~ ~ ~ ~ Y Y Y Y ~ ~ ~ ~ ~ ~ ~ ~ ~ ~ Y ~ ~ ~ ~ ~ ~ ~ ~ ~ ~ ~ ~ Y Y Y Y ~ ~ ~ ~ ~ ~ ~ ~ ~ ~ Y ~ ~ ~ ~ ~ ~ ~ ~ ~ ~ ~ ~ ",
"~ ~ ~ ~ ~ Y Y Y Y Y Y ~ ~ ~ ~ ~ ~ Y C c F Y ~ ~ ~ ~ ~ ~ ~ ~ ~ ~ Y Y Y Y Y Y ~ ~ ~ ~ ~ ~ Y C c F Y ~ ~ ~ ~ ~ ~ ~ ~ ~ ~ Y Y Y Y Y Y ~ ~ ~ ~ ~ ~ ~ ",
"~ ~ ~ ~ ~ ~ Y Y Y Y Y ~ ~ ~ ~ ~ ~ Y F C F Y ~ ~ ~ ~ ~ ~ ~ ~ ~ ~ ~ Y Y Y Y Y ~ ~ ~ ~ ~ ~ Y F C F Y ~ ~ ~ ~ ~ ~ ~ ~ ~ ~ ~ Y Y Y Y Y ~ ~ ~ ~ ~ ~ ~ ",
"~ ~ ~ ~ ~ ~ ~ ~ ~ ~ ~ ~ ~ ~ ~ ~ ~ Y Y Y Y Y ~ ~ ~ ~ ~ ~ ~ ~ ~ ~ ~ ~ ~ ~ ~ ~ ~ ~ ~ ~ ~ ~ Y Y Y Y Y ~ ~ ~ ~ ~ ~ ~ ~ ~ ~ ~ ~ ~ ~ ~ ~ ~ ~ ~ ~ ~ ~ | ",
"~ Y Y ~ ~ ~ ~ ~ ~ ~ ~ [ %.~ ~ ~ ~ ~ ~ ~ ~ ~ ~ ~ ~ ~ ~ ~ ~ ~ ~ ~ ~ ~ ~ ~ ~ | %.~ ~ ~ ~ ~ ~ ~ ~ ~ ~ ~ ~ ~ ~ ~ ~ ~ ~ ~ ~ ~ ~ ~ ~ ~ ~ ~ ~ ~ ~ ~ ~ | ",
"c C Y Y ~ ~ ~ ~ ~ ~ ~ [ ~ F Y Y ~ ~ ~ ~ ~ [ %.| %.[ ~ ~ ~ ~ ~ ~ ~ ~ ~ ~ ~ [ ~ G Y Y ~ ~ ~ ~ ~ ~ [ %.| %.[ ~ ~ ~ ~ ~ ~ ~ ~ ~ ~ ~ ~ ~ ~ ~ Y ~ %.| ",
"C C Y Y ~ ~ ~ ~ ~ ~ [ | Y c F Y ~ ~ ~ ~ ~ Y F F F Y Y ~ ~ ~ ~ ~ ~ ~ ~ ~ [ | F c F Y ~ ~ ~ ~ ~ ~ Y F F F Y Y ~ ~ ~ ~ ~ ~ ~ ~ ~ ~ ~ ~ ~ ~ ~ Y Y Y ",
"Y Y Y ~ ~ ~ ~ ~ ~ Y Y Y F F F Y ~ ~ ~ ~ ~ Y F c C Y Y ~ ~ ~ ~ ~ ~ ~ ~ Y Y F F C F Y ~ ~ ~ ~ ~ ~ Y F c C Y Y ~ ~ ~ ~ ~ ~ ~ ~ ~ ~ ~ ~ ~ ~ ~ Y Y Y ",
"~ ~ ~ ~ ~ ~ ~ ~ ~ ~ Y Y Y Y Y Y ~ ~ ~ ~ ~ Y Y F G Y ~ ~ ~ ~ ~ ~ ~ ~ ~ Y Y Y Y Y Y Y ~ ~ ~ ~ ~ ~ Y Y F G Y ~ ~ ~ ~ ~ ~ ~ ~ ~ ~ ~ ~ ~ ~ ~ ~ ~ ~ ~ ",
"~ ~ ~ ~ ~ ~ ~ ~ ~ ~ ~ ~ ~ ~ ~ ~ ~ ~ ~ ~ ~ ~ Y Y Y ~ ~ ~ ~ ~ ~ ~ ~ ~ ~ ~ ~ ~ ~ ~ ~ ~ ~ ~ ~ ~ ~ ~ ~ Y Y Y ~ ~ ~ ~ ~ ~ ~ ~ ~ ~ ~ ~ ~ ~ ~ ~ ~ ~ ~ ~ "
};
