/* XPM */
static char *_eb76c5aff1046e3bde62a44ce0aeab4nYj0S9GEJsBQPUkx[] = {
/* columns rows colors chars-per-pixel */
"72 72 237 2 ",
"   c #573A1A",
".  c #613E1B",
"X  c #5C4516",
"o  c #66481A",
"O  c #704D15",
"+  c #7A551C",
"@  c #5D5629",
"#  c #694927",
"$  c #625E29",
"%  c #765728",
"&  c #65642A",
"*  c #776728",
"=  c #6A752A",
"-  c #747324",
";  c #746736",
":  c #7B7871",
">  c #757D7D",
",  c #787E7E",
"<  c #931D0F",
"1  c #981E12",
"2  c #96230A",
"3  c #9B2714",
"4  c #953711",
"5  c #9C3816",
"6  c #A22A15",
"7  c #A93815",
"8  c #AC351B",
"9  c #AA3A1B",
"0  c #B43A1C",
"q  c #BB3A1B",
"w  c #AD3920",
"e  c #B73C22",
"r  c #C33C1F",
"t  c #C03F26",
"y  c #99420F",
"u  c #9B4719",
"i  c #865913",
"p  c #AE480E",
"a  c #A44414",
"s  c #AB4617",
"d  c #B34B16",
"f  c #B8471C",
"g  c #AD511D",
"h  c #BA5718",
"j  c #937B1D",
"k  c #B3701D",
"l  c #9B532A",
"z  c #A74821",
"x  c #BA4525",
"c  c #A85D2A",
"v  c #BD5128",
"b  c #AA5638",
"n  c #B95735",
"m  c #886A27",
"M  c #966824",
"N  c #876935",
"B  c #907731",
"V  c #B66A28",
"C  c #B86A36",
"Z  c #A77A33",
"A  c #C3441C",
"S  c #C4481E",
"D  c #C9541D",
"F  c #C46517",
"G  c #CE7A1D",
"H  c #D1721C",
"J  c #D37B1C",
"K  c #C94924",
"L  c #C95324",
"P  c #D05529",
"I  c #C6642A",
"U  c #D26D2F",
"Y  c #C67829",
"T  c #D37926",
"R  c #CB7535",
"E  c #9A6847",
"W  c #AE6C44",
"Q  c #D57A43",
"!  c #778826",
"~  c #738D2F",
"^  c #789628",
"/  c #79A629",
"(  c #B38717",
")  c #A9A01F",
"_  c #948C27",
"`  c #879928",
"'  c #978637",
"]  c #989732",
"[  c #B08830",
"{  c #BB9338",
"}  c #8AA42C",
"|  c #8BB12D",
" . c #8AA533",
".. c #95AE32",
"X. c #AFAB2C",
"o. c #D48A1F",
"O. c #E28B1F",
"+. c #DA8728",
"@. c #CF9127",
"#. c #CC9828",
"$. c #C68737",
"%. c #D8883C",
"&. c #CA9737",
"*. c #D89737",
"=. c #E18E29",
"-. c #E6952B",
";. c #E49B34",
":. c #C8A82C",
">. c #DCA62B",
",. c #CAAB36",
"<. c #D9A937",
"1. c #DFB337",
"2. c #E9A62F",
"3. c #EDA333",
"4. c #E5AA38",
"5. c #F1A839",
"6. c #E7B63B",
"7. c #BE8D4C",
"8. c #B08C53",
"9. c #BC9759",
"0. c #B7B158",
"q. c #908574",
"w. c #9B8674",
"e. c #A78965",
"r. c #B5936A",
"t. c #B09272",
"y. c #BDA279",
"u. c #BDAB7B",
"i. c #BFB67D",
"p. c #CA8A49",
"a. c #D08F41",
"s. c #C89846",
"d. c #D89746",
"f. c #C99756",
"g. c #D49D53",
"h. c #D79856",
"j. c #E39F51",
"k. c #D7A648",
"l. c #CDB445",
"z. c #DEB44B",
"x. c #CBA757",
"c. c #D7A854",
"v. c #D6A45D",
"b. c #DCA45C",
"n. c #DCB758",
"m. c #E3AA46",
"M. c #F1AC47",
"N. c #E9B648",
"B. c #F5BC46",
"V. c #E6AC56",
"C. c #E7B758",
"Z. c #E5BC5C",
"A. c #F3BA56",
"S. c #C99C62",
"D. c #D09A62",
"F. c #C7A365",
"G. c #DBA564",
"H. c #D7A965",
"J. c #CBB76D",
"K. c #D9B869",
"L. c #C6AD78",
"P. c #C9B979",
"I. c #D5B577",
"U. c #E5B968",
"Y. c #B4C159",
"T. c #C9C054",
"R. c #E7C449",
"E. c #F4C247",
"W. c #E5C756",
"Q. c #ECC454",
"!. c #ECC55A",
"~. c #EACA5B",
"^. c #F4C45C",
"/. c #F5C859",
"(. c #ECD35C",
"). c #DDCC74",
"_. c #DDCB79",
"`. c #E8C866",
"'. c #F3C462",
"]. c #F6C964",
"[. c #EAD367",
"{. c #F4D567",
"}. c #E8CA7A",
"|. c #ECD473",
" X c #E8D67C",
".X c #F4D473",
"XX c #F4DB79",
"oX c #F5E27C",
"OX c #7B8383",
"+X c #808787",
"@X c #848B8B",
"#X c #888F8F",
"$X c #908D85",
"%X c #8D928E",
"&X c #9A9489",
"*X c #8E9595",
"=X c #8F9898",
"-X c #929794",
";X c #999A94",
":X c #9A9D94",
">X c #909898",
",X c #A69A87",
"<X c #A09F93",
"1X c #9EA197",
"2X c #A9A58C",
"3X c #B4A985",
"4X c #B2AC8C",
"5X c #BDB588",
"6X c #BDB48B",
"7X c #A1A094",
"8X c #A9A796",
"9X c #ABAA95",
"0X c #A1A49A",
"qX c #B1AD97",
"wX c #9CA4A4",
"eX c #A1A9A9",
"rX c #B1B4A5",
"tX c #C7AF85",
"yX c #C3B683",
"uX c #D5BE8E",
"iX c #D9C682",
"pX c #D3CA90",
"aX c #EAD585",
"sX c #EDD28F",
"dX c #F3DB84",
"fX c #F4D98A",
"gX c #EBDD94",
"hX c #EEE18A",
"jX c #F5E487",
"kX c #EDE495",
"lX c #F6E897",
"zX c #F5E599",
"xX c #C8C4A5",
"cX c #F6EAA3",
"vX c #F8F2AA",
"bX c #FAEFB0",
"nX c #F9F1B4",
/* pixels */
">X>X>X>X>X>X>X>X>X>X>X>X>X>X>X>X>X>X>X>X>X>X>X>X>X>X>X>X>X>X>X>X>X>X>X>X>X>X>X>X>X>X>X>X>X>X>X>X>X>X>X>X>X>X>X>X>X>X>X>X>X>X>X>X>X>X>X>X>X>X>X>X",
">X>X>X>X>X>X>X>X>X>X>X>X>X>X>X>X>X>X>X*X*X*X*X*X>X>X>X>X>X>X>X*X*X>X>X>X>X>X>X>X>X>X>X>X>X>X*X*X*X*X*X>X>X>X>X>X>X*X*X>X>X*X>X>X>X>X>X>X>X>X>X>X",
">X>X>X>X>X>X>X>X>X>X>X>X>X>X>X>X>X>X>X=X+XOX*X*X>X>X>X>X>X>X*X*X@X*XwX>X>X>X>X>X>X>X>X>X>X>X=X+XOX*X*X>X>X>X>X>X*X#X@X>XwX>X>X>X>X>X>X>X>X*X*X*X",
"eXwX>X>X>X>X>X>X>X>X>X>X>X>X>X>X>X>X>XwX>X*XwX>X*X>X>X>X>X>X*X+X, *XwX>X*X>X>X>X>X>X>X>X>X>XwX>X*XwX>X*X>X>X>X>X*XOXOX>XwX>X>X>X>X>X>X>X*X*X+X+X",
">X>X>X>X>X>X>X>X>X>X>X>X>X>X>X>X>X>X*X>X*X*X>X>X>X>X>X>X>X>X*X*X*XwX>X*X*X>X>X>X>X>X>X>X>X*X>X*X*X>X>X>X>X>X>X>X*X*X>XwX>X*X*X>X>X>X>X>X*X#XOX+X",
">X>X>X>X>X>X>X>X>X>X>X>X>X>X>X>X>X>X>X*X*X*X*X*X>X>X>X>X>X>X>X*X*X*X*X*X>X>X>X>X>X>X>X>X>X>X*X*X*X*X*X>X>X>X>X>X>X*X*X*X*X*X>X>X>X>X>X>X>X*X*XwX",
"*X*X>X>X>X>X>X>X>X>X>X>X>X>X>X>X>X>X>X*X*X*X*X*X*X*X*X>X>X>X>X>X*X*X*X>X>X>X>X>X>X>X>X>X>X>X*X*X*X*X*X*X*X*X>X>X>X>X*X*X*X>X>X>X>X>X>X>X>X>X*X*X",
"*X*X>X>X>X>X>X>X*X>X*X>X>X>X>X>X>X>X>X>X>X>X>X*X*X+X*X*X>X>X>X>X>X>X>X*X>X*X>X>X>X>X>X>X>X>X>X>X>X>X*X*X+X*X*X>X>X>X>X>X>X>X*X>X*X>X>X>X>X>X*X*X",
">X>X>X>X>X>X>X>X>X>X>X>X>X>X>X>X>X>X>X>X>X>X>X*X+XOX#X>X>X>X>X>X>X>X>X>X>X>X>X>X>X>X>X>X>X>X>X>X>X>X*X+XOX#X>X>X>X>X>X>X>X>X>X>X>X>X>X>X>X>X>X>X",
">X>X>X>X>X>X>XwXeXwXeXwX>X>X>X>X>X>X>X>X>X>X>X*X*X>XwX>X>X>X>X>X>X>XwXeXwXeXwX>X>X>X>X>X>X>X>X>X>X>X*X*X>XwX>X>X>X>X>X>X>XwXeXwXeXwX>X>X>X>X>X>X",
">X>X>X>X>X>X*X*X@XOX+X*X>X>X>X>X>X>X>X>X>X>X>X>X*X*X*X*X*X>X>X>X>X*X*X@XOX+X*X*X>X>X>X>X>X>X>X>X>X>X>X*X*X*X*X*X>X>X>X>X*X*X@XOX+X*X*X>X>X>X>X>X",
">X>X>X>X>X>X>X*X@X> OX*X*X>X>X*X*X*X>X>X>X>X>X>X>X*X*X*X>X>X>X>X>X>X*X@X> OX*X*X>X>X>X>X>X>X>X>X>X>X>X>X*X*X*X>X>X>X>X>X>X*X@X> OX*X*X>X>X>X>X>X",
">X>X>X>X>X>X>X*X*X@X*X*X>X>X*X*X#X*X*X>X>X>X>X>X>X>X>X>X=X>X>X>X>X>X*X*X@X*X*X>X>X>X>X>X>X>X>X>X>X>X>X>X>X>X>X>X>X>X>X>X>X>X*X@X*X*X>X>X>X>X>X>X",
">X>X>X>X>X>X>X>X*X*X*X>X>X>X>X@X, @X>X>X>X>X>X>X>X>X>X>X>X>X>X>X>X>X>X*X*X*X>X>X>X>X>X>X>X>X>X>X>X>X>X>X>X>X>X>X>X>X>X>X>X>X*X*X*X>X>X>X>X>X>X>X",
">X>X>X>X>X>X>X>X>X>X>X>X>X>XwXwX*XwXwX>X>X>X>X>X>X>X>X>X>X>X>X>X>X>X>X>X>X>X>X>X>X>X>X>X>X>X>X>X>X>X>X>X>X>X>X>X>X>X>X>X>X>X>X>X>X>X>X>X>X>X>X>X",
">X>X>X>X>X>X>X>X>X>X>X>X>X>X>X*X*X*X>X>X>X>X>X>X*X*X*X*X>X>X>X>X>X>X>X>X>X>X>X>X>X>X>X>X>X>X>X>X>X>X>X>X>X*X*X*X*X*X>X>X>X>X>X>X>X>X>X>X>X>X>X>X",
">X>X>X>X>X>X>X>X=X>X>X>X>X>X>X*X*X*X*X>X>X>X>X>X*X#X%X0X8X8X9XqXyXI.yX6X6X6XP.n.x.L.7X>X>X>X>X>X>X>X>X>X>X*X+X, +X*X>X>X>X>X>X>X>X>X>X>X>X>X>X>X",
">X>X>X>X>X>X*X*X*X*X*X>X*X=X>X>X>X>X>X>X>X>X>X>X>X7Xu.K.n.C.C.Z.N.N.C.C.Z.z.N.N.N.V.K.4X<X;X>X>X>X>X>X>X>X*X*X+X*X*X>X>X*X*X*X*X*X>X>X>X>X>X>X>X",
">X>X>X>X>X>X>X+XOX*X>X>X>X*X>X>X>X>X>X>X>X>X>X>X1XL.z.B.E.B.B.E.E.E.B.B.B.B./.].]./.Q.Z.K.L.u.2X:X>X>X>X>X>X*X*X*X>X>X>X>X+XOX*X>X>X>X>X>X>X>X>X",
">X>X>X>X>X>XwX*X@XwXwX>X>X*X>X>X>XwXeX>X>X>X>X>X9XZ.E.E.B.B.N.6.5.2.2.3.3.5.M.M.A.A.^.^.^.^.'.K.I.u.2X>X>X>X>X>X>X>X>X>XwX*X@XwXwX>X>X>X>X>X>X>X",
">X>X>X>X>X>XwX>X*XwXwX>X>X>X>X>X>XwXeX>X>X>X>X>X9XZ.6.5.3.-.=.+.o.J G T T J J +.+.-.;.4.N.N.^.'.^.C.H.3X:X>X>X>X>X>X>X>XwX>X*XwXwX>X>X>X>X>X>X>X",
">X>X>X>X>X*X>X>X>X>X>X>X>X>X>X>X>X>X*X*X*X*X>X>X7Xc.*.+.H F h d g d d s s p p d d h F G +.;.5.M.A.^.A.C.L.2X:X>X>X>X>X*X>X>X>X>X>X>X>X>X>X>X>X>X",
">X>X>X>X>X*X*X*X*X*X*X>X>X>X>X>X>X*XOX, +X*X>X>X;Xr.c y 4 2 2 2 3 1 2 2 2 < 3 1 < 2 5 s d F J O.2.N.A.A.C.K.u.7X>X>X>X*X*X*X*X*X*X>X>X>X>X>X>X>X",
">X>X>X>X>X>X*X*X*X*X*X>X>X>X>X>X>X*X@XOX+X*X>X>X;Xt.c C C n x 7 7 L Q Q I v v P 7 6 6 6 3 3 s h H =.5.A.A.c.f.tX>X>X>X>X*X*X*X*X*X>X>X>X>X>X>X>X",
">X>X>X>X>X>X>X>X>X>X>X>X>X>X>X>X>X*X*X*X*X*X>X>XqX}.!.'.k.V.h.C g.]..X.X].'.^.C.m.d.%.I f 0 6 3 7 h J ;.m.s.f.I.>X>X>X>X>X>X>X>X>X>X>X>X>X>X>XwX",
">X*X*X>X>X>X>X>X>X>X>XwXeX>X>X>X>X>X>X>X=X>X>X0XiX~.(.Q.&.Z N % N W.~.Q./.!.{.~.~.{./.^.V.V.R 9 3 5 p R h.g.v.K.>X>X>X>X>X>X>X>X>X>X>X>X>X>X>XwX",
", OX*X*X>X>X>X>X>X>X>XwX>X@X*X*X>X>X>X>X=XwXeXuXZ.N.~.R.n.+ % # o n.].j.R %.d.k.'./.R.W.{.Q.%.%.I 8 3 C h.G.G.G.>X>X>X>X>X>X>X>X>X>X>X>X*X>XeXwX",
"OXOX*X*X>X>X>X>X>X>XwXwX*X, +X*X>X>X>X>X=X>X,XH.d.a.k.~.W.' % N x.C.C s s D H T d.'.Q.n.' B s.'.N.a.s R b.G.G.G.>X>X>X>X>X>X>X>X>X>X>X>X>X*X*X*X",
"*X*X*X>X>X>X>X>X>X*X*X*X@X+X@X*X>X>X>X>X>Xw.b g a 5 s C.[. XgXgX}.c 4 u 7 f D U R U..X9.X N B s.W..Xc.a.b.b.G.G.>X>X>X>X>X>X>X>X>X>X>X>X>X*X*X*X",
">X>X>X>X>X>X>X>X>X>X*X*X*X*X*X*X>X>X>X>X&XE 8 8 8 8 6 p.dXaXzXkX0.m ' Z 5 w e K v h.dXJ.* * m x.oXXX`.c.v.v.G.H.>X>X>X>X>X>X>X>X>X>X>X>X>X>X>X>X",
">X>X>X>X>X>X>X>X>X>X>X>X>X>X>X>X>X>X>X>X&Xb q t K K x W fXdX).0. .^ } _ 5 8 8 w 9 p.dXdXaX_.aXjX.XZ.a.g.b.v.F.I.eXwX>X>X>X>X>X>X>X>X>X>X>X>X>X>X",
">X>X>X>X>X>X>X>X>X>X>X>X>X>X>X>X>X>X>X>X&Xn f K K L d $. XY. .` ^ / | j 5 9 9 8 7 h.dX}.cXzX X`.Z.p.h.j.h.g.F.2X%X*X*X>X>X>X>X>X>X>X>X>X>X>X>X>X",
">X>X>X>X>X>X>X>X>X>X>X>X>X>X>X>X=X>X>X>Xw.x A A A f y k.0.~ ! ! ~ / ..M z 0 9 9 g V.dXzXbXaX[ d.g.f.b.h.D.y.&X, OX*X>X>X>X>X>X>X>X>X>X>X>X>X>X>X",
">X>X>X>X>X>X*X*X*X*X*X>X>X>X>X>X>X>X>X-XW A A S x s $.!.' & = ! ^ | ` u x x w a $.[.kXnXzXU.$.k.c.x.F.y.,X;X*X+X*X*X>X>X*X*X*X*X*X>X>X>X>X>X>X>X",
">X>X>X>X>X>X>X+XOX*X>X>X>X>X>X>X>X>X>X;Xb K L d s $.l.T.B @ = ! } .._ y 7 a V &.!. XcXcXZ.n.k.c.F.3X1X;X>X>X*X*X*X>X>X>X>X+XOX*X>X>X>X>X>X>X>X>X",
">X>X>X>X>X>XwX*X*X>X>X>X>X>X>X>X>XwXeX;Xb S h h $.Q.X.] ; @ = ^  .} j k k @.m.E.{.lXnXgXk.z.c.L.7X>X>X>X>X>X>X>X>X>X>X>XwX*X*X>X>X>X>X>X>X>X>X>X",
">X>X>X>X>X*X>X>X>X>X>X>X>X>X>X>X=X>X*X%XE k *.m.4.1.,.B & $ - ! ` _ &.<.<.6.1.#.!.cXnX`.k.H.tX8X>X>X>X>X>X>X>X>X>X>X>X*X>X>X>X>X>X>X>X>X>X>X>X>X",
">X>X>X>X>X*X*X*X*X*X*X>X>X>X>X>X=X*XOXq.F.{ Z [ ,.>.&.B & * ] ) ( *.[ + + { 6.1.|.nXfXk.x.u.9X:X*X>X>X>X>X>X>X>X>X>X>X*X*X*X*X*X*X>X>X>X>X>X>X>X",
">X>X>X>X>X>X*X*X*X*X*X>X>X>X>X>X>X*X@X&X8.O o o Z 4.#.{ - - ] :.#.#.+ % # M z.~.jXlX`.x.3X6X3X%X*X>X>X>X>X>X>X>X>X>X>X>X*X*X*X*X*X>X>X>X>X>X>X>X",
">X>X>X>X>X>X>X>X>X>X>X>X>X>X>X>X>X*X*X2XB   ; . M 2.@.,.] ^ ` ,.4.[ X E # i z.|.U.k.k.L.:XP.3X*X*X>X>X>X>X>X>X>X>X>X>X>X>X>X>X>X>X>X>X>X>X>X>XwX",
">X*X*X>X>X>X>X>X>X>X>XwXeX>X>X>X>X>X>X9X8.% + m &.4.*.<.:.) ) :.>.{ X . O { [.}.p.a.c.6X;XP.4X>X>X>X>X>X>X>X>X>X>X>X>X>X>X>X>X>X>X>X>X>X>X>X>XwX",
", OX*X*X>X>X>X>X>X>X>XwX>X@X*X*X>X>X>X9Xn.z.k.N.N.*.Y Y Y @.*.4.>.<.[ M { ~.oXn.a.S.P.yX:XP.2X>XwXeXwXeXwX>X>X>X>X>X>X>X>X>X>X>X>X>X>X>X*X>XeXwX",
"OXOX*X*X>X>X>X>X>X>XwXwX*X, +X*X>X>X>X4Xn.6.6.d.I p 8 w 7 f I %.6.4.>.m.!.XXU.s.D.2X6XJ.2Xi.:X>X*X@X+X@X*X*X>X>X>X>X>X>X>X>X>X>X>X>X>X>X>X*X*X*X",
"*X*X*X>X>X>X>X>X>X*X*X*X@X+X@X*X>X=X>X6XW.6.+.x 7 q 0 w 0 0 x L *.4.<.~.oXXXg.f.,X>X4Xn.J.3X>X>X*X@X> OX*X*X>X>X>X>X>X>X>X>X>X>X>X>X>X>X>X*X*X*X",
">X>X>X>X>X>X>X>X>X>X*X*X*X*X*X*X>X>X>XP.W.B.F 7 q K A q q q 0 a Y A..XjXoXk.p.t.;X>X9X3X3X1X>X>X*X*X@X*X*X>X>X>X>X>X>X>X>X>X>X>X>X>X>X>X>X>X>X>X",
">X>X>X>X>X>X>X>X*X>X>X>X>X>X>X>X>X>X0X_.R.m.g 7 f K P S r e e a f.fXlXjX`.d.r.;X>X>X0X1X;X>X>X>X>X*X*X*X>X>X>X>X>X>X>X>X>X>X*X>X>X>X>X>X>X>X>X>X",
">X>X>X>X>X>XwX>X*XwX>X>X>X>X>X>X>XwXrX_.Q.z.g 9 e K P D S e 5 l sXbXcXK.k.f.&X>X>X>X>X>XwXwX>X>X>X>X>X>X>X>X>X>X>X>X>X>XwX>X*XwX>X>X>X>X>X>X>X>X",
">X>X>X>X>X*X>X>X>X>X>X>X>X>X>X>X>X>X9X_.(.~.a.g 9 x f d s z c H.cXvXaXf.S.,X>X>X>X>X>X>X>X*X*X*X*X>X>X>X>X>X>X>X>X>X>X*X>X>X>X>X>X>X>X>X>X>X>X>X",
">X>X>X>X>X*X*X*X*X*X*X>X>X>X>X>X=X;X6X|.[.{..XC.$.V V p.f.uXgX}.x.`.K.t.&X*X>X>X>X>X>X>X*XOX, +X*X>X>X>X>X>X>X>X>X>X>X*X*X*X*X*X*X>X>X>X>X>X>X>X",
">X>X>X>X>X>X*X*X*X*X*X>X>X>X>X>X>X8XaX{.{.[.|.dX|.}.fXlXfXfX}.f.7.H.3X-X*X*X>X>X>X>X>X>X*X@XOX+X*X>X>X>X>X>X>X>X>X>X>X>X*X*X*X*X*X>X>X>X>X>X>X>X",
">X>X>X>X>X>X>X>X>X>X>X>X>X>X>X>X1XpX[.Q..XhXlXvXvXvXcXaXx.&.7.r.&X;X>X>X>X>X>X>X>X>X>X>X*X*X*X*X*X>X>X>X>X>X>X>X>X>X>X>X>X>X>X>X>X>X>X>X>X>X>XwX",
">X*X*X>X>X>X>X>X>X>X>XwXeX>X>X>XxXhXXXXXlXvXgXiXgX).x.f.9.t.&X-X>X>X>X>X>XwXeX>X>X>X>X>X>X>X>X>X>X>X>X>X>X>X>X>X>X>X>X>X>X>X>X>X>X>X>X>X>X>X>XwX",
", OX*X*X>X>X>X>X>X>X>XwX>X@X*X*XpXfXdXjXlXaXs.s.v.9.e.&X;X>X>X>X>X>X>X>X>XwX>X#X*X*X>X>X>X>X>X>XwXeXwXeXwX>X>X>X>X>X>X>X>X>X>X>X>X>X>X>X*X>XeXwX",
"OXOX*X*X>X>X*X>X>X>XwXwX*X, +X*Xt.9.H.n.x.g.f.r.w.$X-X>X>X>X>X>X>X>X>X>XwXwX@X, +X*X>X>X>X>X>X>X*X@X+X@X*X*X>X>X>X>X>X>X>X>X>X>X>X>X>X>X>X*X*X*X",
"*X*X*X>X>X>X>X>X>X*X*X*X@X+X@X*X;Xw.e.8.e.e.w.: OX*X*X>X>X>X>X>X>X>X>X*X*X@X+XOX@X*X>X>X>X>X>X>X*X@X> OX*X*X>X>X>X>X>X>X>X>X>X>X>X>X>X>X>X*X*X*X",
">X>X>X>X>X>X>X>X>X>X*X*X*X*X*X*X>X>X-X%X%X%X*X@X#X*X>X>X>X>X>X>X>X>X>X=X*X*X*X*X*X*X>X>X>X>X>X>X*X*X@X*X*X>X>X>X>X>X>X>X>X>X>X>X>X>X>X>X>X>X>X>X",
">X>X>X>X>X>X>X>X>X>X>X>X>X>X>X>X>X>X>X>X>X>X>X>X>X>X>X>X>X>X>X>X>X>X>X>X>X>X>X>X>X>X>X>X>X>X>X>X>X*X*X*X>XwXeXwXeXwX>X>X>X>X>X>X>X>X>X>X>X>X>X>X",
">X>X>X>X>X>X>X>X>X>X>X>X>X>X>X>X>X>X>X>X>X>X>X*X>XwXwX>X>X>X>X>X>X>X>X>X>X>X>X>X>X>X>X>X>X>X>X>X>X>X>X>X>X>X*X@X#X*X*X>X>X>X>X>X>X>X>X>X>X>X>X>X",
">X>X>X>X>X>X>X>X>X>X>X>X>X>X>X>X>X>X>X>X>X>X>X>X*X*X*X*X>X>X>X>X>X>X>X>X>X>X>X>X>X>X>X>X>X>X>X>X>X>X>X>X>X*X+X> OX*X>X>X>X>X>X>X>X>X>X>X>X>X>X>X",
">X>X>X>X>X>X*X*X*X*X*X>X>X>X>X>X>X>X>X>X>X>X>X>X*X*X*X*X>X>X>X>X>X*X*X*X*X*X>X>X>X>X>X>X>X>X>X>X>X>X>X>X>X*X*X+X*X*X>X>X*X*X*X*X*X>X>X>X>X>X>X>X",
">X>X>X>X>X>X>X+XOX*X>X>X>X>X>X>X>X>X>X>X>X>X>X>X>X>X>X>X>X>X>X>X>X>X+XOX*X>X>X>X>X>X>X>X>X>X>X>X>X>X>X>X>X>X*X*X*X>X>X>X>X+XOX*X>X>X>X>X>X>X>X>X",
">X>X>X>X*X>XwX*X*X>X>X>X>X>X>X>X>XwXwX>X>X>X>X>X>X>X>X>X>X>X>X>X>XwX*X*X>X>X>X>X>X>X>X>XwXwX>X>X>X>X>X>X>X>X>X>X>X>X>X>XwX*X*X>X>X>X>X>X>X>X>X>X",
">X>X>X>X>X*X>X>X>X>X>X>X>X>X>X>X>X>X*X*X*X*X>X>X>X>X>X>X>X>X>X>X*X>X>X>X>X>X>X>X>X>X>X>X>X*X*X*X*X>X>X>X>X>X>X>X>X>X>X*X>X>X>X>X>X>X>X>X>X>X>X>X",
">X>X>X>X>X*X*X*X*X*X*X>X>X>X>X>X>X*XOX, +X*X>X>X>X>X>X>X>X>X>X>X*X*X*X*X*X*X>X>X>X>X>X>X*XOX, +X*X>X>X>X>X>X>X>X>X>X>X*X*X*X*X*X*X>X>X>X>X>X>X>X",
">X>X>X>X>X>X*X*X*X*X*X>X>X>X>X>X>X*X@XOX+X*X>X>X>X>X>X>X>X>X>X>X>X*X*X*X*X*X>X>X>X>X>X>X*X@XOX+X*X>X>X>X>X>X>X>X>X>X>X>X*X*X*X*X*X>X>X>X>X>X>X>X",
">X>X>X>X>X>X>X>X>X>X>X>X>X>X>X>X>X*X*X*X*X*X>X>X>X>X>X>X>X>X>X>X>X>X>X>X>X>X>X>X>X>X>X>X*X*X*X*X*X>X>X>X>X>X>X>X>X>X>X>X>X>X>X>X>X>X>X>X>X>X>XwX",
">X*X*X>X>X>X>X>X>X>X>XwXeX>X>X>X>X>X>X>X>X>X>X>X>X>X>X>X>X>X>X>X>X>X>X>X>XwXeX>X>X>X>X>X>X>X>X>X>X>X>X>X>X>X>X>X>X>X>X>X>X>X>X>X>X>X>X>X>X>X>XwX",
", OX*X*X>X>X>X>X>X>X>XwX>X@X*X*X>X>X>X>X>XwXeXwXeXwX>X>X>X>X>X>X>X>X>X>X>XwX>X#X*X*X>X>X>X>X>X>XwXeXwXeXwX>X>X>X>X>X>X>X>X>X>X>X>X>X>X>X*X>XeXwX",
"OXOX*X*X>X>X>X>X>X>XwXwX*X, +X*X>X>X>X>X>X*X@X+X@X*X*X>X>X>X>X>X>X>X>X>XwXwX@X, +X*X>X>X>X>X>X>X*X@X+X@X*X*X>X>X>X>X>X>X>X>X>X>X>X>X>X>X>X*X*X*X",
"*X*X*X>X>X>X>X>X>X*X*X*X@X+X@X*X>X>X>X>X>X*X@X> OX*X*X>X>X>X>X>X>X>X>X*X*X@X+XOX@X*X>X>X>X>X>X>X*X@X> OX*X*X>X>X>X>X>X>X>X>X>X>X>X>X>X>X>X*X*X*X",
">X>X>X>X>X>X>X>X>X>X*X*X*X*X*X*X>X>X>X>X>X*X*X@X#X*X>X>X>X>X>X>X>X>X>X*X*X*X*X*X*X*X>X>X>X>X>X>X*X*X@X#X*X>X>X>X>X>X>X>X>X>X>X>X>X>X>X>X>X>X>X>X",
">X>X>X>X>X>X>X>X>X>X>X>X>X>X>X>X>X>X>X>X>X>X*X*X*X>X>X>X>X>X>X>X>X>X>X>X>X>X>X>X>X>X>X>X>X>X>X>X>X*X*X*X>X>X>X>X>X>X>X>X>X>X>X>X>X>X>X>X>X>X>X>X"
};
