/* XPM */
static char *_e3cb98051524ca8f94b440afb3ac7bcposUYiyHYmvsS7wE[] = {
/* columns rows colors chars-per-pixel */
"72 72 249 2 ",
"   c #0B070E",
".  c #371806",
"X  c #341710",
"o  c #1C3410",
"O  c #30280E",
"+  c #26370B",
"@  c #35380A",
"#  c #292912",
"$  c #2A3716",
"%  c #383614",
"&  c #1A092B",
"*  c #281B32",
"=  c #2C292C",
"-  c #383626",
";  c #392937",
":  c #470B04",
">  c #4A0A05",
",  c #540503",
"<  c #560704",
"1  c #471605",
"2  c #581807",
"3  c #592409",
"4  c #502A0D",
"5  c #433C09",
"6  c #422815",
"7  c #493617",
"8  c #543D15",
"9  c #69340F",
"0  c #673B18",
"q  c #562424",
"w  c #493827",
"e  c #4D3330",
"r  c #2C430A",
"t  c #364809",
"y  c #3C4B0B",
"u  c #2B4316",
"i  c #384616",
"p  c #3E5215",
"a  c #384926",
"s  c #3C4A34",
"d  c #3E5232",
"f  c #47490B",
"g  c #57440C",
"h  c #48540A",
"j  c #4D5B0B",
"k  c #555C0C",
"l  c #474916",
"z  c #5B4311",
"x  c #564218",
"c  c #485716",
"v  c #555A15",
"b  c #6F4F0E",
"n  c #4D620D",
"m  c #55630B",
"M  c #5C640A",
"N  c #5D6B0C",
"B  c #586517",
"V  c #5D6B13",
"C  c #676C0A",
"Z  c #786807",
"A  c #6A7509",
"S  c #6C740D",
"D  c #7B7B04",
"F  c #777708",
"G  c #747A0B",
"H  c #646B15",
"J  c #766C16",
"K  c #6A7616",
"L  c #787814",
"P  c #474928",
"I  c #544628",
"U  c #485829",
"Y  c #484338",
"T  c #584935",
"R  c #4E5635",
"E  c #6A4E2D",
"W  c #67542A",
"Q  c #684A3B",
"!  c #735837",
"~  c #4E6025",
"^  c #546228",
"/  c #5A6638",
"(  c #6E6F2B",
")  c #34114E",
"_  c #372946",
"`  c #360E62",
"'  c #511D5D",
"]  c #5B3846",
"[  c #482F53",
"{  c #5C3458",
"}  c #633B52",
"|  c #461868",
" . c #4C1877",
".. c #542C6B",
"X. c #562B75",
"o. c #633172",
"O. c #585445",
"+. c #51504D",
"@. c #684745",
"#. c #655948",
"$. c #69584C",
"%. c #596748",
"&. c #5A6854",
"*. c #68675A",
"=. c #6C7550",
"-. c #677259",
";. c #5C5765",
":. c #6D4376",
">. c #6A6B65",
",. c #6A7667",
"<. c #73796B",
"1. c #716D71",
"2. c #777C78",
"3. c #865907",
"4. c #8A5312",
"5. c #856608",
"6. c #8E6F0C",
"7. c #847617",
"8. c #AB7313",
"9. c #90712D",
"0. c #C67F1F",
"q. c #866348",
"w. c #7D8307",
"e. c #7D830D",
"r. c #798316",
"t. c #76816A",
"y. c #778279",
"u. c #7B847D",
"i. c #848506",
"p. c #8D8D05",
"a. c #82850B",
"s. c #868909",
"d. c #8B8D0A",
"f. c #918809",
"g. c #8E9206",
"h. c #87910C",
"j. c #8D920A",
"k. c #949505",
"l. c #969904",
"z. c #9A9A02",
"x. c #92940A",
"c. c #979808",
"v. c #878813",
"b. c #948A15",
"n. c #929212",
"m. c #B98E12",
"M. c #9DA004",
"N. c #A8A804",
"B. c #B9BA08",
"V. c #BEA825",
"C. c #C88C12",
"Z. c #D6BA1C",
"A. c #ECAA10",
"S. c #E6B816",
"D. c #D1B42D",
"F. c #C8C709",
"G. c #D7D809",
"H. c #D7C11F",
"J. c #EED412",
"K. c #FAE611",
"L. c #EEE129",
"P. c #80827E",
"I. c #CBB646",
"U. c #500E88",
"Y. c #561B87",
"T. c #5A1895",
"R. c #592986",
"E. c #5D2C8C",
"W. c #622489",
"Q. c #69388B",
"!. c #69279B",
"~. c #6D3798",
"^. c #723C94",
"/. c #6C27A6",
"(. c #7332AB",
"). c #752DB7",
"_. c #7B36B9",
"`. c #6E4F8C",
"'. c #785999",
"]. c #7A7888",
"[. c #7B6695",
"{. c #7B6D90",
"}. c #7947A5",
"|. c #7B4EAA",
" X c #833CB8",
".X c #826F98",
"XX c #847997",
"oX c #8A59AE",
"OX c #874CB7",
"+X c #8C55B7",
"@X c #9061A6",
"#X c #8F70AE",
"$X c #9468B9",
"%X c #853AC8",
"&X c #8A3BCD",
"*X c #8D3ED1",
"=X c #8946C5",
"-X c #985AC7",
";X c #964CD4",
":X c #A25BDC",
">X c #9A67C5",
",X c #A46BCB",
"<X c #A878CC",
"1X c #A66AD4",
"2X c #AC73D8",
"3X c #B27BDB",
"4X c #A657E9",
"5X c #AA57F1",
"6X c #AE6CE6",
"7X c #B97AE8",
"8X c #BB76F3",
"9X c #C17CF4",
"0X c #7C8382",
"qX c #7E8883",
"wX c #818583",
"eX c #828A84",
"rX c #82858C",
"tX c #848B8B",
"yX c #888F8E",
"uX c #87928C",
"iX c #89918E",
"pX c #898796",
"aX c #8A8D95",
"sX c #8D9595",
"dX c #8F9598",
"fX c #8F9898",
"gX c #909797",
"hX c #909699",
"jX c #909898",
"kX c #9798A1",
"lX c #9CA4A4",
"zX c #A6A4A8",
"xX c #A1A9A9",
"cX c #B3B6B7",
"vX c #B28ACF",
"bX c #BAB0C5",
"nX c #BD83E4",
"mX c #BE80F2",
"MX c #CAB2DC",
"NX c #C489EC",
"BX c #C687F5",
"VX c #CE92F6",
"CX c #D296F9",
"ZX c #D5B4EB",
"AX c #D1D0D2",
"SX c #DBCCE6",
"DX c #E4D1EF",
"FX c #E9E2EE",
"GX c #F9F8FA",
/* pixels */
"jXjXjXjXjXjXjXjXjXjXjXjXjXjXjXjXjXjXjXjXjXjXjXjXjXjXjXjXjXjXjXfXjXjXjXjXjXjXjXjXjXjXjXjXjXjXjXjXjXjXjXjXjXjXjXjXjXjXjXjXjXjXjXjXjXjXjXjXjXjXjXjX",
"jXjXjXjXjXjXjXjXjXjXjXjXjXjXjXjXjXjXjXsXsXsXsXsXjXjXjXsXsXiXiXyXyXiXiXiXiXiXiXsXsXjXjXjXjXjXsXsXsXsXsXjXjXjXjXjXjXsXsXjXjXsXjXjXjXjXjXjXjXjXjXjX",
"jXjXjXjXjXjXjXjXjXjXjXjXjXjXjXjXjXjXjXfXeX0XsXsXsXsXsXiX,.%.%.%.%.%.&.&.&.&.%.-.eXsXsXfXjXjXfXeX0XsXsXjXjXjXjXjXsXyXyXjXlXjXjXjXjXjXjXjXjXsXsXsX",
"xXlXjXjXjXjXjXjXjXjXjXjXjXjXjXjXjXjXjXlXjXsXlXjXsXu.<.,.( V V V V V V V V V V V =.<.y.iXsXjXlXjXsXlXjXsXjXjXjXjXsXqX0XjXlXjXjXjXjXjXjXjXsXsXeXeX",
"jXjXjXjXjXjXjXjXjXjXjXjXjXjXjXjXjXjXsXjXsXsXyXeXt.^ v H s.g.g.k.j.g.g.g.k.k.g.h.K B ^ =.eXsXjXsXsXjXjXjXjXjXjXjXsXsXjXlXjXsXsXjXjXjXjXjXsXyX0XeX",
"jXjXjXjXjXjXjXjXjXjXjXjXjXjXjXjXjXfXfXsXyX2.R U H r.s.p.l.z.z.z.z.z.z.z.z.N.N.N.M.x.v.K / u.sXsXsXsXsXjXjXjXjXjXjXsXsXsXsXsXjXjXjXjXjXjXjXsXsXlX",
"sXsXjXjXjXjXjXjXjXjXjXjXjXjXjXjXfXjXsXiX-./ V S s.c.z.z.z.z.z.z.z.z.z.z.z.B.F.F.F.F.N.j.K / <.iXsXsXsXsXsXsXjXjXjXjXsXsXsXjXjXjXjXjXjXjXjXjXsXsX",
"sXsXjXjXjXjXjXjXsXfXsXjXjXjXjXjXfXsXuX,.^ C i.k.l.z.z.z.z.z.z.z.z.z.z.z.z.N.F.G.G.G.F.N.j.K ( <.sXsXsXsXeXsXsXjXjXjXjXjXjXjXsXjXsXjXjXjXjXjXsXsX",
"jXjXjXjXjXfXgXdXpXpXpXaXfXjXjXjXjXsX<.P V i.k.z.z.z.z.z.z.z.z.z.z.z.z.z.z.z.N.F.G.G.G.B.z.x.K U y.sXsXeX0XyXjXjXjXjXjXjXjXjXjXjXjXjXjXjXjXjXjXjX",
"jXjXjXjXjXsXaX.X`.Q.Q.`.pXaXdXjXsXuX-.l C s.l.l.k.k.k.k.k.k.k.z.z.z.z.z.z.z.z.N.B.G.G.B.N.c.G c ,.iXsXsXjXlXjXjXjXjXjXjXjXlXxXlXxXlXjXjXjXjXjXjX",
"jXfXdXdXfXaX[.$X1X1X-XOX|.`.[.aXyX-.^ C F i.g.a.7.7.L L L L 7.x.z.z.z.z.z.z.z.z.N.N.N.N.z.c.v.H O.,.sXsXsXsXsXsXjXjXjXjXsXsXyXqXeXsXsXjXjXjXjXjX",
"sXXX.X.X.X#X$XnXVXVXBX6X-XOX|.@X1.- c S F 7.L W e ] ] ] ] e E 7.f.c.z.z.z.z.z.z.z.z.z.k.s.s.J Q [ ;.aXjXsXsXsXjXjXjXjXjXjXsXyX2.0XsXsXsXfXjXjXjX",
"aX:.W.^.}.>XnXBXBXBX7X1X,X:X;X_.X._ e E W W @.:.Q.Q.^.^.^.^.:.$.! ( v.g.k.k.z.z.l.l.g.7.W W @.:.Q.`.XXdXfXjXjXjXjXjXjXjXjXfXsXyXsXsXeXqXyXsXjXjX",
"aX`.}.,XnXNXVX8X6X4X=X/./._.;X;X).Y. .X.X.X.Q.,XnXnX2X1X1X1X$Xo.' } ! J J v.k.k.l.d.J Q { X.Q.,X3X,X`.XXsXjXjXjXjXjXjXjXjXjXsXsXsXwX+.- +.eXsXjX",
"sXaXXXoX3XVXBXBX8X5X;X=X%X_././.).%X&X=X-X1X1XNXVXNX$X}.}.}.~.R.~.oX:.{ ] W L L L J @.`.>X,X+X|.,X2X~.[.sXjXjXjXjXjXjXjXjXjXsXsX2.#.8 7 P #.tXsX",
"fXjXdXXXoX+X-X7XBX9X8X8X4X_.T./.%X4X5X5X8XBXNX>X+X+X#X#X#X#XkX#X$X+XOXOXoX:.@.e ] } .XvXZXDXvXQ.+X2X~.[.sXsXsXsXsXsXjXjXjXgXsX<.T 8 z z I >.sXgX",
"fXfXfXsX{.`.'.$X<X2X2X1X=X/.T.%X4X5X5X5X5X8XmXOXW.E.vXFXFXFXSXcX{...oX3XnXoXQ.Q.Q.^.@XkXbXFXMX}.-X2X~.[.dXsXeX2.eXsXjXjXsXyX<.I 8 g x T >.iXgXfX",
"fXfXjXsXsXaXaX{.`.`.`.`.Y.U.U.&X5X5X5X5X5X8XBX7XOXR.bXGXGXGXAX;.* & | OXNXNXnXnXnX$X{ = +.cXSX1X6X,X`.{.fXgXsXeXsXsXfXsXtX#.I 8 z x T 2.iXgXjXjX",
"jXjXjXjXjXjXfX0X].rXaXXXE. .U.&X4X4X4X4X5X8XCXCX-XQ.bXGXGXGXAX;     ) ~.nXCXCXCXCX<X_   = zXDX6X=X|.pXdXfXjXsXsXsXsXsXwX$.x g z x #.wXsXgXjXjXjX",
"jXjXjXjXjXjXlXsXyXkXkXXXoX~.T.&X;X_.).%X4X8XVXVX3X$XMXGXGXGXAX_     ) R.OX1X7X8X7X$X_   = zXDX6X(.Q.aXjXjXjXjXjXgXsX2.#.x g g I >.tXsXjXjXjXjXjX",
"jXjXjXjXjXjXlXjXsXhXXXoX3X-XT.).(. .' o.OX-X6XmXBXNXZXDXGXGXAX2.+.+._ ` | Q.|.|.|.`.*   = kXZX6X).R.].sXsXjXjXsXsX2.T 8 z z I *.gXsXjXjXjXjXjXjX",
"jXjXjXjXjXfXjXjXaX'.$X3XnX-XT. .| ; I Q { X.Q.=X:X:X1XvXSXSXSXbXcXlX+.- - - Y Y Y s $ + - `.>X;X~.' +.<.iXfXsXyX>.I 8 z z T <.yXjXjXjXjXjXjXjXjX",
"jXjXjXjXjXsXaX{.'.>XnXnXOX_.(...- v C J W E @.o.!.!.!.Q.`.[.1.>.-.=.( K A A A S S A A S ( O...R.{ E v / -.yXyX*.I 8 z x T 2.yXsXsXjXjXjXjXjXjXjX",
"jXjXjXjXjXjXaX`.~.7XCXNX=X&X=X..i C D F F D 7.! @.@.@.@.@.@.T l c V e.x.l.l.l.l.l.l.k.l.j.K P ; I J S c a ,.>.I 8 z x #.2.sXsXsXsXjXjXjXjXjXjXjX",
"jXjXjXjXsXsXpX'.OXNXVX9X4X;X}.[ y A D D D i.k.x.b.b.b.b.b.7.L D w.d.l.z.z.z.z.z.z.z.z.z.z.x.L v M F F h + % 8 z g I #.P.sXsXjXjXjXjXjXjXjXjXjXlX",
"jXsXsXjXfXpX`.$X7XBX8X4X;X=X`.+.R H F D D i.k.z.z.z.z.z.z.l.k.k.k.z.z.z.z.z.z.z.z.z.z.k.d.x.x.s.a.F C c @ 5 g z I $.tXsXgXjXjXjXjXjXjXjXjXjXjXlX",
"2.0XsXsXfXXXR.=X6X6X=X(.(.'.rXtXu./ M A F D i.k.l.z.z.z.z.l.z.z.z.z.z.k.k.k.k.k.x.x.j.G M e.l.c.i.C h l f g z I <.yXgXfXjXjXjXjXjXjXjXjXsXjXxXlX",
"0X0XsXsXfXpXR./._.OXoX.X{.].eXsXsXy./ v k C F i.g.l.z.z.z.z.l.z.z.z.c.s.C N N N N N N B N a.x.s.C h f g z z T <.iXsXfXfXjXjXjXjXjXjXjXjXjXsXsXsX",
"sXsXsXjXjXaX`.`.`.`.pXaXtXeXyXsXsXsXu.&.%./ B C G j.l.z.z.z.z.z.z.k.e.( %.%.R u r t h C h.x.a.N h 5 g g x T <.sXsXjXjXjXjXjXjXjXjXjXjXjXjXsXsXsX",
"jXjXjXjXjXsXaXaXaXaXfXsXsXsXsXsXfXsXsXiXyXy.i + h S a.j.x.k.k.z.z.d.M =.xXcXuXa h H r.s.s.G M y f g z x O.wXsXjXjXjXjXjXjXjXjXjXjXjXjXjXjXjXjXjX",
"jXjXjXjXjXjXjXjXjXjXjXjXjXjXjXjXfXjXjXfXsXu.- # @ y h m G w.i.j.k.x.L ( =.<.=.B S a.e.K B c l f g z I *.tXlXxXlXxXlXjXjXjXjXjXjXjXjXjXjXjXjXjXjX",
"jXjXjXjXjXjXjXjXjXjXjXjXjXjXjXjXjXjXjXsXwX*.w 6 5 % + r c j j N G s.n.r.V B H L G H v ^ -.,.=.W x I >.yXsXjXsXyXyXsXsXjXjXjXjXjXjXjXjXjXjXjXjXjX",
"jXjXjXjXjXjXjXjXjXjXjXjXjXjXjXjXgXgXsXP.O.w w 8 7 i r r t t t y h N G L K K S K v @ % O.u.iXiX<.#.*.yXsXjXsXeX2.qXsXjXjXjXjXjXjXjXjXjXjXjXjXjXjX",
"jXjXjXjXjXjXsXsXsXsXsXjXjXjXjXjXgXyX<.T w 7 % @ @ i v C C C C C j y y y y y y y @ . 1 6 O.wXsXsXyXsXsXjXjXsXsXeXsXsXjXfXsXsXsXsXsXjXjXjXjXjXjXjX",
"jXjXjXjXjXjXjXeX0XsXjXjXjXfXjXjXsX>.Y 6 7 % @ h N S a.d.p.s.a.D C m m m m m m j 5 1 , > X O.2.sXgXgXgXgXjXjXsXsXsXjXjXjXjXeX0XsXjXjXjXjXjXjXjXjX",
"jXjXjXjXjXjXlXsXsXjXjXjXjXjXjXfXtXe 6 7 % t j G d.x.l.z.x.r.S D i.i.a.i.i.a.L g 4 < , > . $ &.sXgXgXgXgXjXjXjXjXjXjXjXjXlXsXsXjXjXjXjXjXjXjXjXjX",
"jXjXjXjXjXsXjXjXjXjXjXjXjXjXfXsX2.w 7 7 $ h G g.z.z.k.p.r.M h L f.f.f.f.f.f.J 4 > < , : . $ %.eXsXsXjXjXjXjXjXjXjXjXjXsXjXjXjXjXjXjXjXjXjXjXjXjX",
"jXjXjXjXjXsXsXsXsXsXsXjXjXjXsX1.T w 7 % + m h.z.c.k.i.C h h Z 7.6.6.6.6.6.5.b 1 > , : . @ v ^ O.qXsXjXjXjXjXjXjXjXjXjXsXsXsXsXsXsXjXjXjXjXjXjXjX",
"jXjXjXjXjXjXsXsXsXsXsXjXjXjXiX$.6 7 7 O + m x.z.k.i.D m t J V.D.I.I.D.C.m.4.3 < , , 1 4 g C m a 2.sXjXjXjXjXjXjXjXjXjXjXsXsXsXsXsXjXjXjXjXjXjXjX",
"jXjXjXjXjXjXjXjXjXjXjXjXjXjXiX$.6 7 % $ y S x.z.p.F M h f b.L.L.L.L.L.Z.8.9 < , , 2 0 4.b Z m i 2.sXjXjXjXjXjXjXjXjXjXjXjXjXjXjXjXjXjXjXjXjXjXlX",
"jXsXsXjXjXjXjXjXjXjXjXlXxXjXtX#.7 7 % i H s.l.z.d.S f @ b m.J.K.K.K.H.8.9 < < , 2 4.0.8.3.Z k i y.jXjXjXjXjXjXjXjXjXjXjXjXjXjXjXjXjXjXjXjXjXjXlX",
"2.0XsXsXjXjXjXjXjXjXjXlXjX0XO.w 8 7 + t r.l.z.k.p.S t @ b m.J.K.J.Z.5.3 , , < 3 4.C.A.C.3.Z M p u.lXlXxXlXjXjXjXjXjXjXjXjXjXjXjXjXjXjXjXsXjXxXlX",
"0X0XsXsXjXjXjXjXjXjXlXlXyX1.6 6 7 % # i r.n.x.s.D C t @ b m.S.S.C.4.3 , , < 3 4.C.A.A.C.3.Z F K =.<.qXyXsXsXjXjXjXjXjXjXjXjXjXjXjXjXjXjXjXsXsXsX",
"sXsXsXjXjXjXjXjXjXsXsXsXyX2.6 6 7 % = ; @.! ! J C h + @ b 8.8.8.4.2 < , < 2 9 8.C.C.C.6.b C a.v.^ O.1.0XsXsXjXjXjXjXjXjXjXjXjXjXjXjXjXjXjXsXsXsX",
"jXjXjXjXjXjXjXjXjXjXsXsXsX].e e e ; | R.W.W.o.@.T - o $ v b 9 3 < < < 2 9 b 3.8.8.8.3.8 @ k L ( I +.qXiXsXjXjXjXjXjXjXjXjXjXjXjXjXjXjXjXjXjXjXjX",
"jXjXjXjXjXjXjXjXgXjXjXjXsXwXe ) |  .(.=X*X*X XR.| ) * # O 1 1 > , , > 9 9.4.4.8.C.8.9 . O x ! { ' o.pXsXjXjXjXjXjXjXjXjXjXjXsXjXjXjXjXjXjXjXjXjX",
"jXjXjXjXjXjXlXjXsXkXjXgXsXwXe ) Y.).)./././.!.U. .` * # . : . : > : : 3 b 0 9 4.4.b 2 : X e o.(._.}.[.aXfXjXjXjXjXjXjXjXlXjXsXlXjXjXjXjXjXjXjXjX",
"jXjXjXjXjXsXjXjXjXjXjXjXsXwX; *  .(.T. .{ { { ) ) ) = O > , > > : : : 4 E E E E 9 < , > X ../._._.(.E.{.sXjXjXjXjXjXjXsXjXjXjXjXjXjXjXjXjXjXjXjX",
"jXjXjXjXjXsXsXsXsXsXsXjXsX0X- # ; ' ' ] W J J l i $ $ # : , , , > , < q q.q.q.q.0 < , : ; Q.(.X.X...{ 1.yXsXjXjXjXjXjXsXsXsXsXsXsXjXjXjXjXjXjXjX",
"jXjXjXjXjXjXsXsXsXsXsXjXsXeXY # % W W J d.k.j.a.r.K y # . 1 1 1 1 2 2 4 8 0 0 0 4 1 1 . = [ o.Q ( 9.9./ &.yXsXjXfXjXjXjXsXsXsXsXsXjXjXjXjXjXjXjX",
"jXjXjXjXjXjXjXjXjXjXjXjXjXsXu.R y C a.p.k.z.z.z.c.v.h @ f b b z b 8.8.4.b 4.8.8.4.9 g i $ P W J d.c.n.B R eXsXjXfXjXjXjXjXjXjXjXjXjXjXjXjXjXjXlX",
"jXsXsXjXjXjXjXjXjXjXjXlXxXjXiX&.p A p.k.j.k.z.c.v.K c j C a.f.5.8.S.S.C.6.m.S.S.m.3.Z c + i B F i.a.K / <.sXjXjXfXfXjXjXjXjXjXjXjXjXjXjXjXjXjXlX",
"2.0XsXsXjXjXjXjXjXjXjXlXjXyXyX&.p A p.g.G w.g.x.S t v S D p.f.Z 6.Z.H.m.6.m.S.Z.m.5.Z j + o y C S H %.eXjXjXfXjXjXjXjXjXjXjXjXjXjXjXjXjXsXjXxXlX",
"0X0XsXsXjXjXjXjXjXjXlXlXaX].qX,.U H s.r.h k w.n.H r j F D d.e.h g 5.6.5.b 5.6.6.6.5.F j o o r B B %.2.eXsXsXfXjXjXjXjXjXjXjXjXjXjXjXjXjXjXsXsXsX",
"sXsXsXjXjXjXjXjXjXsXsXyXyXeXyXiXt.~ C H t h G v.V t k D p.k.e.y + @ 5 5 5 5 g Z Z D a.m + o u U -.u.2.0XsXsXjXjXjXjXjXjXjXjXjXjXjXjXjXjXjXsXsXsX",
"jXjXjXjXjXjXjXjXjXjXsXsXsXsXsXiX2.P h c + t n H B h M w.k.z.e.t o # + + o r h C D i.g.N u +.>.,.yXsXyXsXsXjXjXjXjXjXjXjXjXjXjXjXjXjXjXjXjXjXjXjX",
"jXjXjXjXjXjXjXjXjXjXjXjXjXsXtX*.T x % $ d s u y k C G i.l.z.e.t + O O # + c C F f.c.x.N a u.sXsXsXsXsXsXjXlXxXlXxXlXjXjXjXjXjXjXjXjXjXjXjXjXjXjX",
"jXjXjXjXjXjXjXjXjXjXjXsXsXwX#.I z x - +.0X2.a l B J J L v.b.L i $ w w - $ U J J 7.b.b.B s eXfXjXjXjXjXjXjXjXsXyXyXsXsXjXjXjXjXjXjXjXjXjXjXjXjXjX",
"jXjXjXjXjXjXjXjXjXjXgXsX2.#.x g 8 w >.eXsXrX[ [ { ] ] ] @.@.{ [ ;.0XeX2.[ [ { ] } @.@.[ [ rXfXjXjXjXjXjXjXsXeX2.qXsXjXjXjXjXjXjXjXjXjXjXjXjXjXjX",
"jXjXjXjXjXjXsXsXsXsXsX2.T 8 z 8 I >.yXfXfXXXR.T./././.!.!./.W.Y.{.sXsXrXX.Y././.!.!.!.Y.X.pXfXjXjXjXfXfXjXsXsXeXsXsXjXjXsXsXsXsXsXjXjXjXjXjXjXjX",
"jXjXjXjXjXjXjXeX0XeX<.T z z x Y >.iXjXjXfXXXR.).&X&X&X&X&X&X).T.[.sXeX].R./.&X&X%X&X%X/.R.pXjXjXjXjXjXjXjXjXsXsXsXjXjXjXjXeX0XsXjXjXjXjXjXjXjXjX",
"jXjXjXjXjXjXlXsXeX+.w x z 8 Y 2.sXlXlXjXfXXXX.Y.W.W.W.W.W.W.Y. .{.kXsX].X. .W.W.W.W.W.Y.X.hXjXjXjXjXjXjXjXjXjXjXjXjXjXjXlXsXsXjXjXjXjXjXjXjXjXjX",
"jXjXjXjXjXsXjXjXyX; % x 7 O.2.sXfXjXsXsXsX].[ e Q Q @.@.! @.@.[ 1.sXjXaX[ [ ] Q Q @.@.] [ rXsXsXsXjXjXjXjXjXjXjXjXjXjXsXjXjXjXjXjXjXjXjXjXjXjXjX",
"jXjXjXjXjXsXsXsXyX>.Y I #.u.sXsXjXsXqX2.eXy.a v J F v.b.x.n.L P ,.yXsX0Xs c J L v.n.n.B s 2.2.eXsXjXjXjXjXjXjXjXjXjXjXsXsXsXsXsXsXjXjXjXjXjXjXjX",
"jXjXjXjXjXjXsXsXsXyX2.*.tXsXsXjXjXsXyX0XeXy.a M D i.k.z.M.M.e.c ,.sXsXqXa j F i.g.z.c.N a 2.0XeXsXjXjXjXjXjXjXjXjXjXjXjXsXsXsXsXsXjXjXjXjXjXjXjX",
"jXjXjXjXjXjXjXjXjXsXsXsXjXjXjXfXjXsXsXsXsXy.a M w.p.j.j.j.j.L c ,.iXsXqXa j D d.j.x.d.V a 0XyXsXfXjXjXjXjXjXjXjXjXjXjXjXjXjXjXjXjXjXjXjXjXjXjXlX",
"jXsXsXjXjXjXjXjXjXjXjXlXxXjXjXfXjXjXjXjXsXy.a M i.j.A m m n B V =.<.<.&.u j w.x.e.M n B ( =.<.y.sXjXjXjXjXjXjXjXjXjXjXjXjXjXjXjXjXjXjXjXjXjXjXlX",
"2.0XsXsXjXjXjXjXjXjXjXlXjXyXsXsXjXjXjXjXsXqXa M s.h.S j h t y r.r.^ u o o j w.x.L h r n r.K U d qXlXlXxXlXjXjXjXjXjXjXjXjXjXjXjXjXjXjXjXsXjXxXlX",
"0X0XsXsXjXjXjXjXjXjXlXlXsX2.eXsXjXjXjXjXsXqXR B F e.r.K K p r K r.K r $ d ^ S e.r.V r h r.r.B a 2.yXeXyXsXsXjXjXjXjXjXjXfXfXfXfXjXjXjXjXjXsXsXsX",
"sXsXsXjXjXjXjXjXjXsXsXsXyXeXyXsXjXjXjXjXsXsXy.%.U U ^ ^ ^ d a U ^ U d &.u.,.R c U U a a U ~ U s u.eX2.0XsXsXjXjXjXjXjXjXjXfXfXfXjXjXjXjXjXsXsXsX",
"jXjXjXjXjXjXjXjXfXfXsXsXsXsXsXsXjXjXjXjXjXsXsX0Xu.qXqXqXqXeXqXeXeXeXeXsXsXsX0Xu.u.u.u.u.u.u.u.qXsXsXyXyXsXjXjXjXjXjXjXjXjXjXfXfXjXjXjXjXjXjXjXjX",
"jXjXjXjXjXjXjXjXjXjXjXjXjXjXjXjXjXjXjXjXjXjXsXsXsXsXfXfXfXfXfXfXsXsXsXjXjXfXsXsXsXsXfXsXfXfXsXfXsXsXsXsXjXjXjXjXjXjXjXjXjXjXjXjXjXjXjXjXjXjXjXjX"
};
