/* XPM */
static char *_5273247d467470e901f337dcfddd69csRQ2F7LoJOJrDG0A[] = {
/* columns rows colors chars-per-pixel */
"72 72 251 2 ",
"   c #0B070E",
".  c #371806",
"X  c #341710",
"o  c #1C370C",
"O  c #1D3315",
"+  c #30280E",
"@  c #26360B",
"#  c #35380A",
"$  c #292A13",
"%  c #2A3716",
"&  c #383614",
"*  c #1A092B",
"=  c #281B32",
"-  c #2C292C",
";  c #383626",
":  c #392937",
">  c #470B04",
",  c #4A0A05",
"<  c #540503",
"1  c #560704",
"2  c #471605",
"3  c #581807",
"4  c #592409",
"5  c #502A0D",
"6  c #433C09",
"7  c #422815",
"8  c #493617",
"9  c #543D15",
"0  c #69340F",
"q  c #673B18",
"w  c #562424",
"e  c #493827",
"r  c #4D3330",
"t  c #2C430A",
"y  c #364809",
"u  c #3C4B0B",
"i  c #2B4316",
"p  c #384616",
"a  c #3E5216",
"s  c #384926",
"d  c #3C4C32",
"f  c #47490B",
"g  c #57440C",
"h  c #48540A",
"j  c #4D5B0B",
"k  c #555C0C",
"l  c #474916",
"z  c #5B4311",
"x  c #564218",
"c  c #485615",
"v  c #555A15",
"b  c #6F4F0E",
"n  c #4D620D",
"m  c #55630B",
"M  c #5C640A",
"N  c #5D6B0C",
"B  c #586517",
"V  c #5D6B13",
"C  c #676C0A",
"Z  c #786807",
"A  c #6A7509",
"S  c #6C740D",
"D  c #7B7B04",
"F  c #767709",
"G  c #646B15",
"H  c #766C16",
"J  c #6A7616",
"K  c #787814",
"L  c #494729",
"P  c #544628",
"I  c #485928",
"U  c #55572C",
"Y  c #484338",
"T  c #584935",
"R  c #49583B",
"E  c #6A4E2D",
"W  c #67542A",
"Q  c #684A3B",
"!  c #735837",
"~  c #4E6025",
"^  c #546227",
"/  c #596534",
"(  c #6D6E2C",
")  c #34114E",
"_  c #372946",
"`  c #360E62",
"'  c #511D5D",
"]  c #5B3846",
"[  c #482F53",
"{  c #5C3458",
"}  c #633B52",
"|  c #461868",
" . c #4C1877",
".. c #532C6C",
"X. c #582A74",
"o. c #633172",
"O. c #514F4D",
"+. c #565546",
"@. c #684745",
"#. c #655848",
"$. c #69584C",
"%. c #5A684A",
"&. c #596855",
"*. c #656858",
"=. c #6B7455",
"-. c #5C5765",
";. c #6D4376",
":. c #686B64",
">. c #697567",
",. c #73786A",
"<. c #706C71",
"1. c #787B74",
"2. c #757D7C",
"3. c #7A7E7C",
"4. c #865907",
"5. c #8A5312",
"6. c #856608",
"7. c #8E6F0C",
"8. c #847617",
"9. c #AB7313",
"0. c #90712D",
"q. c #C67F1F",
"w. c #866348",
"e. c #7D830A",
"r. c #798316",
"t. c #76816A",
"y. c #788378",
"u. c #7B847D",
"i. c #848506",
"p. c #8D8D05",
"a. c #82850B",
"s. c #868909",
"d. c #8B8D0A",
"f. c #918809",
"g. c #8E9206",
"h. c #87910C",
"j. c #8D920A",
"k. c #949505",
"l. c #969904",
"z. c #9A9A02",
"x. c #92940A",
"c. c #979808",
"v. c #878813",
"b. c #948A15",
"n. c #929212",
"m. c #B98E12",
"M. c #9DA004",
"N. c #A8A804",
"B. c #B9BA08",
"V. c #BEA825",
"C. c #C88C12",
"Z. c #D6BA1C",
"A. c #ECAA10",
"S. c #E6B816",
"D. c #D1B42D",
"F. c #C8C709",
"G. c #D7D809",
"H. c #D7C11F",
"J. c #EED412",
"K. c #FAE611",
"L. c #EEE129",
"P. c #80827E",
"I. c #CBB646",
"U. c #500E88",
"Y. c #561B87",
"T. c #5A1895",
"R. c #641F99",
"E. c #592986",
"W. c #5D2C8C",
"Q. c #622489",
"!. c #69388B",
"~. c #69279B",
"^. c #6D3798",
"/. c #723C94",
"(. c #6C27A6",
"). c #7232AB",
"_. c #752DB7",
"`. c #7B36B9",
"'. c #69498B",
"]. c #71528E",
"[. c #7A728C",
"{. c #7B6495",
"}. c #7947A5",
"|. c #7B4EAA",
" X c #7F62A1",
".X c #833CB8",
"XX c #817495",
"oX c #837897",
"OX c #8A59AE",
"+X c #874CB7",
"@X c #8C55B7",
"#X c #9061A6",
"$X c #9070AF",
"%X c #9467B9",
"&X c #853AC8",
"*X c #8A3BCD",
"=X c #8D3ED1",
"-X c #8946C5",
";X c #985AC7",
":X c #964CD4",
">X c #A25BDC",
",X c #9A67C5",
"<X c #A46BCB",
"1X c #A878CC",
"2X c #A66AD4",
"3X c #AC73D8",
"4X c #B27BDB",
"5X c #A657E9",
"6X c #AA57F1",
"7X c #AE6CE6",
"8X c #B97AE8",
"9X c #BB76F3",
"0X c #C17CF4",
"qX c #7C8382",
"wX c #7F8983",
"eX c #7E8288",
"rX c #828583",
"tX c #828A84",
"yX c #82858D",
"uX c #848C8B",
"iX c #888F8E",
"pX c #88938C",
"aX c #89918E",
"sX c #888796",
"dX c #8A8D95",
"fX c #8D9595",
"gX c #8F9897",
"hX c #8F9598",
"jX c #909796",
"kX c #909799",
"lX c #909898",
"zX c #958FA3",
"xX c #9CA4A4",
"cX c #A6A4A8",
"vX c #A1A9A9",
"bX c #B3B6B7",
"nX c #B28ACF",
"mX c #BAB0C5",
"MX c #BD83E4",
"NX c #BE80F2",
"BX c #CAB2DC",
"VX c #C489EC",
"CX c #C687F5",
"ZX c #CE92F6",
"AX c #D296F9",
"SX c #D5B4EB",
"DX c #D1D0D2",
"FX c #DBCCE6",
"GX c #E4D1EF",
"HX c #E9E2EE",
"JX c #F9F8FA",
/* pixels */
"lXlXlXlXlXlXlXlXlXlXlXlXlXlXlXlXlXlXlXlXlXlXlXlXlXlXlXlXlXlXlXgXgXlXlXlXlXlXlXlXlXlXlXlXgXlXlXlXlXlXlXlXlXlXlXlXlXlXlXlXlXlXlXlXlXlXlXlXlXlXlXlX",
"lXlXlXlXlXlXlXlXlXlXlXlXlXlXlXlXlXlXlXfXfXfXfXfXlXlXlXlXlXlXgXfXaXaXaXaXaXaXaXaXaXaXaXfXfXlXfXfXfXfXfXgXlXlXlXlXlXfXfXlXlXfXlXlXlXlXlXlXlXlXlXlX",
"lXlXlXlXlXlXlXlXlXlXlXlXlXlXlXlXlXlXlXgXtXqXfXfXlXlXlXlXgXfXfXu.*.%.&.&.%.%.%.%.%.%.%.>.aXfXfXtXqXfXfXlXlXlXlXlXfXiXuXlXxXlXlXlXlXlXlXlXlXfXfXfX",
"vXxXlXlXlXlXlXlXlXlXlXlXlXlXlXlXlXlXlXxXlXfXxXlXfXlXlXfXaXy.,.=.V V V V V V V V V V V ( =.1.tXfXfXxXlXfXlXlXlXlXfXeXqXlXxXlXlXlXlXlXlXlXfXfXtXtX",
"lXlXlXlXlXlXlXlXlXlXlXlXlXlXlXlXlXlXfXlXfXfXlXjXlXgXfXtX=.^ B J h.g.k.k.g.g.g.g.k.g.g.a.G v / t.tXiXfXgXgXlXlXlXfXfXlXxXlXfXfXlXlXlXlXlXfXiXqXtX",
"lXlXlXlXlXlXlXlXlXlXlXlXlXlXlXlXlXlXlXfXfXfXfXfXfXfXu./ J a.j.M.N.N.N.z.z.z.z.z.z.z.z.l.p.a.r.G I R t.aXfXlXlXlXlXfXfXfXfXfXlXlXlXlXlXlXlXfXfXxX",
"fXfXlXlXlXlXlXlXlXlXlXlXlXlXlXlXlXlXlXfXfXfXfXfXaX,./ J j.N.F.F.F.F.B.z.z.z.z.z.z.z.z.z.z.z.l.s.S V / :.iXfXlXlXlXlXfXfXfXlXlXlXlXlXlXlXlXlXfXfX",
"fXfXlXlXlXlXlXlXfXlXfXlXlXlXlXlXlXlXlXlXlXlXfXaX,.( J x.N.F.G.G.G.F.N.z.z.z.z.z.z.z.z.z.z.z.z.z.l.i.C ^ :.tXfXlXlXlXlXlXkXgXfXgXfXlXlXlXlXlXfXfX",
"lXlXlXlXlXlXlXlXlXlXlXlXlXlXlXlXlXlXlXlXlXlXfXy.I J x.M.B.G.G.G.F.N.z.z.z.z.z.z.z.z.z.z.z.z.z.z.z.l.i.V s >.fXlXlXlXlXgXdXsXsXsXkXlXgXlXlXlXlXlX",
"lXlXlXlXlXlXlXxXvXxXvXxXlXlXlXlXlXlXlXlXlXfXaX,.c F c.N.B.G.G.B.N.z.l.l.z.z.z.z.z.k.l.l.k.l.l.l.l.l.p.C l =.fXfXkXfXdXsX].!.^.'.oXkXkXgXgXlXlXlX",
"lXlXlXlXlXlXfXfXuXeXtXfXlXlXlXlXlXlXlXlXlXfX>.+.G v.c.z.N.N.N.N.z.l.z.z.z.z.z.z.x.8.K K K K 8.8.a.g.i.F G ^ *.uXdX{.].|.+X;X2X2X%X{.sXhXhXhXgXkX",
"lXlXlXgXfXfXgXfXuX2.qXfXfXlXlXfXfXfXlXlXlXdX-.[ T H s.s.k.z.z.z.z.z.z.z.z.z.c.f.8.E r ] ] ] ] r E 8.8.F S c s <.#X|.+X;X7XCXZXZX8X%X#XXXXXXXoXfX",
"lXlXfXuXeXtXfXfXfXuXfXfXlXlXfXfXiXfXfXgXhXoX].!.o.@.W W 8.g.l.l.z.z.l.k.g.v.( ! @.;././././.!.!.;.@.E W E r _ X.`.:X>X<X2X8XCXCXCXMX,X}./.Q.;.dX",
"kXfXrXO.; O.rXfXfXfXfXlXlXlXlXuX3.uXlXgXXX].<X4X,X!.X.{ Q K d.l.l.k.v.H H ! { ' o.%X2X2X2X3XMXMX<X!.X.X.X. .Y._.:X:X`.(.~.-X5X7X9XZXVXMX<X}.'.dX",
"fXuX#.L 8 9 #.1.fXfXlXlXlXlXxXxXgXxXxXhX{.^.4X2X|.%X<X<X;.@.H K K K W ] { ;.OX^.E.^.}.}.}.%XVXZXVX2X2X;X-X*X&X_.(.(.`.&X-X:X6X9XCXZXZX4XOXoXsXfX",
"fXfX,.P z z 9 T 1.fXjXlXlXlXlXfXfXfXlXhX{.^.3X@X!.nXGXSXnX#X} ] T @.;.OX+X+X@X%X$X$X$X$X$X$X@X@X,XVXCX9X6X6X5X&X(.T.`.5X9X9X0XCXMX;X@XOXoXhXkXlX",
"lXfXaX:.T x z 9 P ,.iXfXlXlXjXfXfXfXfXhX{.^.3X;X}.BXHXmXzX#X/.!.!.!.OXMX3X|...[.bXFXHXHXHXnXW.Q.+XVX9X6X6X6X6X5X&XT.(.-X2X3X3X1X%X].].[.fXgXkXlX",
"lXlXfXaX1.T x z 9 P $.tXfXgXlXlXlXlXlXgX[.].<X7X2XFXbXO.- { %XMX8XMXVXVX+X| * = -.DXJXJXJXmXW.+X8XZX9X5X5X6X6X6X*XU.U.Y.'.].].].[.sXdXfXfXlXlXlX",
"lXlXlXfXfXrX#.x z g x $.rXfXfXlXlXlXlXlXhXsX|.-X7XGXcX-   _ 1XAXAXAXAXMX^.)     : DXJXJXJXmX!.;XAXAX9X5X5X5X5X5X*XU. .W.oX[.[.yXfXkXlXlXlXlXlXlX",
"lXlXkXlXlXlXjX:.P z z x #.1.fXjXlXxXvXlXlXsX!.).7XGXcX-   _ ,X8X9X8X2X+XE.)     _ DXJXJXJXBX%X4XAXZX9X5X&X_.`.:X*XT.^.OXzXdXuXxXxXlXlXlXlXlXlXlX",
"lXlXlXlXlXlXxXaX*.P z z 9 T 1.fXlXxXvXlXfX[.E.).7XSXzX-   = '.|.|.|.!.| ` _ O.O.1.DXJXJXGXSXVXCXNX7X;X.Xo.'  .)._.T.;X4XOXoXsXxXxXlXlXlXlXlXlXlX",
"lXlXlXlXlXfXlXlXfX,.P x z 9 P ,.iXlXfXiX,.O.[ ^.:X,X].; @ % d Y Y Y ; ; ; +.xXbXmXFXFXFXnX2X>X>X-X!.X.{ Q P : |  .T.;XMX4X%X{.sXgXkXlXlXlXlXlXlX",
"lXlXlXlXlXfXfXfXfXuX1.T 9 z 9 P *.uXu.&./ v E { E...+.( S A A S S A A A J ( =.>.:.<.].].!.~.~.~.o.@.E W H C v ; ..).`.@XVXMX,X XXXfXlXlXlXlXlXlX",
"lXlXlXlXlXlXfXjXfXfXfX1.#.x z 9 P :.:.s c S H P : L J j.l.l.l.l.l.l.l.l.c.a.V j c T Q @.@.@.@.@.! 8.D F D D C p [ -X*X-XVXAX8X^.].dXlXlXlXlXlXlX",
"lXlXlXlXlXlXlXlXlXlXlXfXrX#.P z z 9 & @ h F F M j K x.z.z.z.z.z.z.z.z.z.z.l.d.e.F K 8.b.b.b.b.b.x.l.i.D D D A p [ }.:X5X0XZXVX+X XsXgXfXgXgXlXxX",
"lXfXfXlXlXlXlXlXlXlXlXxXxXaX*.P z z 6 # h C F e.s.x.x.d.k.z.z.z.z.z.z.z.z.z.z.l.k.k.l.z.z.z.z.z.z.k.i.D D F G U O.'.-X:X5X9XCX8X%X'.sXgXgXgXlXxX",
"3.qXfXfXlXlXlXlXlXlXlXxXlXuXuX,.P g g f l h C i.c.l.e.M F j.x.x.k.k.k.k.l.z.z.z.z.z.l.z.z.z.z.l.k.i.D F A V / y.uXsX X).).-X7X7X-XW.oXgXfXlXvXxX",
"qXqXfXfXlXlXlXlXlXlXxXxXfX2.tXiX,.T g z g f h C s.x.a.N B N N N N N N C a.c.z.z.z.l.z.z.z.z.l.g.i.F C j v %.y.fXgXfXdXoXXXOX+X`.(.E.sXgXgXfXfXfX",
"fXfXfXlXlXlXlXlXlXfXfXfXuXtXuXfXfX1.T x z g 6 h N a.x.h.C h y t i R %.%.( e.k.z.z.z.z.z.z.l.j.F C B ^ R %.u.fXfXlXlXgXgXhXsX].'.'.].dXkXlXfXfXfX",
"lXlXlXlXlXlXlXlXlXlXfXfXfXfXfXfXgXfXqX+.x z g f u M F s.a.r.G h s aXbXvX=.M d.z.z.k.l.x.d.a.S h @ p ,.tXiXgXlXlXlXlXlXlXkXfXdXdXdXdXfXlXlXlXlXlX",
"lXlXlXgXlXlXlXlXlXlXlXlXlXlXlXlXlXlXfXtX*.P z g f c c B S e.a.S B =.,.=.( K x.l.j.i.e.F m h u # + ; 3.fXlXxXvXxXvXxXlXlXlXlXkXlXlXlXlXlXlXlXlXlX",
"lXlXlXlXlXlXlXlXlXlXlXlXlXlXlXlXlXlXlXfXiX:.P x W =.,.*.^ m G K K G B V r.n.s.F N j j c t @ & 8 7 e *.rXfXlXfXuXiXfXfXlXkXlXlXlXlXlXlXlXlXlXlXlX",
"lXlXlXlXlXlXlXlXlXlXlXlXlXlXlXlXlXlXlXlXfXiX*.#.=.tXiXu.+.& # v J S S J K S N h u y y y t t p 8 9 e e +.P.fXtX2.eXfXlXlXlXlXlXlXlXlXlXlXlXlXlXlX",
"lXlXlXlXlXlXfXfXfXfXfXlXlXlXlXlXlXlXlXlXlXfXfXaXfXfXu.@.7 2 . # u u u u u u u j C C C C C k p # & & 8 e T ,.tXtXfXfXlXlXfXfXfXfXfXlXlXlXlXlXlXlX",
"lXlXlXlXlXlXlXtXqXfXlXlXlXlXlXlXlXlXlXlXlXlXlXlXfX3.+.X , 1 2 6 j m m m m m M C D a.d.p.f.a.S N h # & 8 7 r :.fXfXlXkXlXlXtXqXfXlXlXlXlXlXlXlXlX",
"lXlXlXlXlXlXxXfXfXlXlXlXlXlXlXlXlXxXxXlXlXlXlXlXaX&.$ . , 1 , 5 k K a.i.i.a.i.i.K S r.x.z.l.k.d.F j y & 8 7 r uXkXlXlXlXxXfXfXlXlXlXlXlXlXlXlXlX",
"lXlXlXlXlXfXlXlXlXlXlXlXlXlXlXlXlXlXfXfXfXfXfXfXtX%.% . > 1 1 , 5 H f.f.f.f.f.f.F h k K p.k.z.z.k.F h % 8 8 e 3.fXfXlXfXlXlXlXlXlXlXlXlXlXlXlXlX",
"lXlXlXlXlXfXfXfXfXfXfXlXlXlXlXlXlXfXeX2.tXfXfXwX%.^ v # . , 1 , 2 b 6.7.7.7.7.7.8.b h h C i.k.z.z.d.m @ & 8 e T ,.fXlXfXfXfXfXfXfXlXlXlXlXlXlXlX",
"lXlXlXlXlXlXfXfXfXfXfXlXlXlXlXlXlXfXuXqXtXfXfX2.s m C g 5 > 1 1 1 4 5.m.C.D.I.I.D.V.H y m F i.k.z.x.m @ # 8 8 7 $.aXlXlXfXfXfXfXfXlXlXlXlXlXlXlX",
"lXlXlXlXlXlXlXlXlXlXlXlXlXlXlXlXlXfXfXfXfXfXfX2.p m Z b 5.0 3 1 1 1 0 9.Z.L.L.L.L.L.b.f h M F p.z.x.S u % & 8 7 $.aXlXlXlXlXlXlXlXlXlXlXlXlXlXxX",
"lXfXfXlXlXlXlXlXlXlXlXxXvXlXlXlXlXlXlXlXlXlXlXy.p m Z 4.9.q.5.3 1 1 1 4 9.H.K.K.K.J.m.b # f S d.z.l.s.G t & 8 8 #.tXfXkXkXkXkXgXlXlXlXlXlXlXlXxX",
"3.qXfXfXlXlXlXlXlXlXlXxXlXuXfXfXlXlXlXlXlXxXxXu.c M Z 4.C.A.C.5.3 1 1 1 4 6.Z.J.K.J.m.b # u S p.k.z.z.r.y @ 8 9 e +.uXgXkXkXkXgXlXlXlXlXfXlXvXxX",
"qXqXfXfXlXlXlXlXlXlXxXxXfX2.tXfXlXlXlXlXlXfX,.%.J F Z 4.m.A.A.C.5.4 1 1 1 4 5.C.S.S.m.b # y C D s.x.n.K p $ & 8 7 e u.fXlXlXlXlXlXlXlXlXlXfXfXfX",
"fXfXfXlXlXlXlXlXlXfXfXfXuXtXuXfXlXlXlXlXlXuX+.B v.a.C b 7.C.C.C.9.0 3 1 1 1 3 5.9.m.9.b # @ h C H ! ! @.: - $ 8 7 e rXfXlXlXlXlXlXlXlXlXlXfXfXfX",
"lXlXlXlXlXlXlXlXlXlXfXfXfXfXfXgXlXlXlXgXlXuXO.T ( K k # 9 4.9.9.9.4.b 0 3 1 1 1 4 b b v % O ; T @.o.Q.Q.E.| : r r r rXfXlXlXlXlXlXlXlXlXlXlXlXlX",
"lXlXlXlXlXlXlXlXfXlXlXlXlXlXlXlXlXlXlXgXkXsXo.' { ! x . . 0 9.C.m.5.5.9.0 , 1 1 , 2 2 . $ = ) | E..X=X=X-X). .| ) r rXfXlXlXfXlXlXlXlXlXlXlXlXlX",
"lXlXlXlXlXlXxXlXfXxXlXlXlXlXlXlXlXxXxXlXsX{.}.`.).o.r X > 3 b 5.5.0 q b 4 > > , > . > . + = `  .U.~.(.(.(._._.Y.) r rXlXxXlXfXxXlXlXlXlXlXlXlXlX",
"lXlXlXlXlXfXlXlXlXlXlXlXlXlXlXlXlXlXgXfX[.W.(.`.`.(...X > 1 3 q E E E E 4 > , , > , 1 , + - ) ) ) { { {  .T.). .= : rXfXlXlXlXlXlXlXlXlXlXlXlXlX",
"lXlXlXlXlXfXfXfXfXfXfXlXlXlXlXlXlXfXeX2.<.{ ....X.).!.: > 1 1 q w.w.w.w.w , 1 , , 1 1 > + % % p l G H ! ] ' ' : $ ; qXfXfXfXfXfXfXlXlXlXlXlXlXlX",
"lXlXlXlXlXlXfXfXfXfXfXlXlXlXlXlXlXfXwX+./ 0.0.( Q o.[ - . 2 2 5 q q q 9 5 3 3 2 2 2 2 . $ u J r.a.g.k.d.H W W & $ Y rXfXgXgXfXfXfXlXlXlXlXlXlXlX",
"lXlXlXlXlXlXlXlXlXlXlXlXlXlXlXlXlXfXtXR B n.c.d.H W L % p g 0 5.9.9.5.b 5.9.9.b z b b f # h v.c.z.z.z.l.p.a.C u R u.fXgXkXlXlXlXlXlXlXlXlXlXlXxX",
"lXfXfXlXlXlXlXlXlXlXlXxXvXlXlXlXlXlXfX,.( J a.i.F k p @ c Z 4.m.S.S.m.7.C.S.S.9.6.f.a.S j c J a.c.z.k.j.k.p.A a &.aXgXgXkXlXlXlXlXlXlXlXlXlXlXxX",
"3.qXfXfXlXlXlXlXlXlXlXxXlXuXfXfXlXlXfXfXy./ G S C u o o j Z 6.m.Z.S.m.7.m.H.Z.9.Z f.p.D S v y S x.k.e.F p.p.A a &.aXlXlXkXlXlXlXlXlXlXlXfXlXvXxX",
"qXqXfXfXlXlXgXlXlXlXxXxXfX2.tXfXlXlXlXfXfXwX%.B m t o o j F 6.7.7.7.6.b 6.7.6.g h e.d.D F j t G n.e.k h r.a.G I >.fXlXlXlXlXlXlXlXlXlXlXlXfXfXfX",
"fXfXfXlXlXlXlXlXlXfXfXfXuXtXuXfXlXlXlXgXlXfXu.*.I i O @ m e.D Z Z g 6 6 6 6 # @ y e.k.p.D k y V v.F h y G C ~ t.aXfXlXlXlXlXlXlXlXlXlXlXlXfXfXfX",
"lXlXlXlXlXlXlXlXlXlXfXfXfXfXfXfXlXkXlXlXlXfXfXwX>.:.%.i N j.p.D S h t o @ @ $ O y e.z.k.D M h B G m p % c h L 1.fXlXlXlXlXlXlXlXlXlXlXlXlXlXlXlX",
"lXlXlXlXlXlXlXlXlXlXlXlXlXlXlXlXlXlXlXlXlXlXlXlXjXlXwXs N x.c.f.D S h @ $ + + O y e.z.l.i.F C j u i d d % & x T ,.jXjXjXjXgXgXlXlXlXlXlXlXlXlXlX",
"lXlXlXlXlXlXlXlXlXlXlXlXlXlXlXlXlXlXlXlXlXlXlXfXlXxXfXd B b.b.8.H G I % ; e e % p K b.v.K H H B l s 1.wXO.; x g P #.rXfXfXgXlXlXlXlXlXlXlXlXlXlX",
"lXlXlXlXlXlXlXlXlXlXlXlXlXlXlXlXlXlXlXlXlXlXlXlXfXfXeX[ [ @.@.} ] { [ [ 2.rXqX-.[ { @.@.] ] ] ] [ [ yXfXtX:.e 9 z x #.1.fXjXlXlXlXlXlXlXlXlXlXlX",
"lXlXlXlXlXlXfXfXfXfXfXlXlXlXlXlXlXlXlXlXlXlXlXlXgXfXsXX.Y.~.~.~.~.(.Y.X.sXkXfX{.Y.~.~.~.~.(.(.(.T.E.oXgXfXiX:.P 9 z 9 T 1.aXfXfXfXlXlXlXlXlXlXlX",
"lXlXlXlXlXlXlXtXqXfXlXlXlXlXlXlXlXlXlXlXlXlXgXgXlXkXsXE.(.&X*X&X*X*X(.E.oXkXfX{.R.`.*X*X*X*X*X*X_.E.oXgXlXfXuX:.Y x z x P :.2.uXlXlXlXlXlXlXlXlX",
"lXlXlXlXfXlXxXfXfXlXlXlXlXlXlXlXlXxXxXlXlXlXlXgXlXgXsXX.Y.Q.Q.Q.Q.Q. ...sXxXfX{.X.Y.Q.Q.Q.Q.Q.Q.Y.X.[.gXlXlXfXfX3.Y 9 z x e O.fXlXlXlXlXlXlXlXlX",
"lXlXlXlXlXfXlXlXlXlXlXlXlXlXlXlXlXlXfXfXfXfXgXgXlXfXtX[ ] @.@.@.Q ] r [ yXlXfX<.[ @.@.! @.@.Q @.r [ [.fXlXlXlXkXfX3.+.8 x & : tXlXlXlXlXlXlXlXlX",
"lXlXlXlXlXfXfXfXfXfXfXlXlXlXlXlXlXfXeX2.tXfXlXlXlXfXwXd B b.n.v.K H c d qXfXfX>.L K n.x.b.v.K H v s u.fXlXlXlXlXgXfXu.#.P Y :.uXfXlXlXlXlXlXlXlX",
"lXlXlXlXlXlXfXfXfXfXfXlXlXlXlXlXlXfXuXeXuXfXlXlXlXfXwXs N c.z.g.i.F j s wXfXfX>.c e.M.M.z.k.i.D m s y.fXgXlXlXlXlXfXfXuX*.1.uXfXfXgXlXlXlXlXlXlX",
"lXlXlXlXlXlXlXlXlXlXlXlXlXlXlXlXlXfXfXfXfXgXlXgXfXfXwXI V d.x.j.d.D j s u.fXfX>.c r.j.j.j.j.d.e.M s y.fXgXgXlXlXlXlXlXfXfXfXfXlXlXlXlXlXlXlXlXxX",
"lXfXfXlXlXlXlXlXlXlXlXxXvXlXlXlXlXlXlXlXlXlXlXfXy.,.=.( B m N e.x.e.j i &.y.y.=.B B m m m A j.i.M s y.gXlXlXlXlXlXlXlXlXlXlXlXlXlXlXlXlXlXlXlXxX",
"3.qXfXfXlXlXlXlXlXlXlXxXlXuXfXfXlXlXlXlXlXxXxXwXd I J r.n t h K x.i.j o O i ^ r.r.u y h j S h.s.M s wXxXxXlXlXlXlXlXlXlXlXlXlXlXlXlXlXlXfXlXvXxX",
"qXqXfXfXlXlXlXlXlXlXxXxXfX2.tXfXlXlXlXlXlXfXuX>.s B r.r.h t V r.e.S ^ d O i G r.J t a J J r.e.F B R 2.tXfXfXlXlXlXlXlXlXlXlXlXlXlXlXlXlXlXfXfXfX",
"fXfXfXlXlXlXlXlXlXfXfXfXuXtXuXfXlXlXlXlXlXfXtX>.d I ~ I s s I I I U ,.wX&.d I I I s d ~ ^ ^ ~ I %.y.2.qXfXfXlXlXlXlXlXlXlXlXlXlXlXlXlXlXlXfXfXfX",
"lXlXlXlXlXlXlXlXlXlXfXfXfXfXfXfXlXlXlXlXlXfXfXtXu.u.u.u.u.qXu.u.u.wXfXgXaXwXwXwXwXwXwXwXwXwXwXwXiXfXuXiXfXlXlXlXlXlXlXlXlXlXlXlXlXlXlXlXlXlXlXlX",
"lXlXlXlXlXlXlXlXlXlXlXlXlXlXlXlXlXlXlXlXlXlXfXfXfXfXgXgXfXgXfXfXfXgXgXlXlXgXfXfXfXgXgXgXfXfXfXgXfXfXfXfXlXlXlXlXlXlXlXlXlXlXlXlXlXlXlXlXlXlXlXlX"
};
