/* XPM */
static char *_4a6abe515f24db0c070fe95a56b4213erzuwZ8FjMrmAhWg[] = {
/* columns rows colors chars-per-pixel */
"72 72 233 2 ",
"   c #020203",
".  c #0A0406",
"X  c #0B0A0B",
"o  c #130B0C",
"O  c #0E0D12",
"+  c #0F0D19",
"@  c #100E14",
"#  c #120D1C",
"$  c #0F1112",
"%  c #131414",
"&  c #14141A",
"*  c #18181C",
"=  c #1A1B1C",
"-  c #251818",
";  c #3A1F1E",
":  c #1F201F",
">  c #31231F",
",  c #150E23",
"<  c #161123",
"1  c #191125",
"2  c #1C1C22",
"3  c #1C132B",
"4  c #1C1B29",
"5  c #1E1631",
"6  c #1F1832",
"7  c #221C28",
"8  c #221A34",
"9  c #241934",
"0  c #261B3B",
"q  c #2A1C3C",
"w  c #1D2224",
"e  c #1E2529",
"r  c #232423",
"t  c #23242B",
"y  c #252A2A",
"u  c #282828",
"i  c #2B2B2B",
"p  c #352826",
"a  c #2E322E",
"s  c #30322E",
"d  c #242432",
"f  c #292735",
"g  c #2A2C33",
"h  c #2C2C3B",
"j  c #342638",
"k  c #2D3335",
"l  c #2D343A",
"z  c #333534",
"x  c #363936",
"c  c #32343C",
"v  c #343A3C",
"b  c #3B3C3D",
"n  c #442B27",
"m  c #53272C",
"M  c #53362D",
"N  c #463A36",
"B  c #563C39",
"V  c #683432",
"C  c #3E413C",
"Z  c #43433D",
"A  c #6C483F",
"S  c #2B1E44",
"D  c #2D1F49",
"F  c #301E4B",
"G  c #2D2A42",
"H  c #2E214C",
"J  c #30204D",
"K  c #38264B",
"L  c #333443",
"P  c #363947",
"I  c #3B3D43",
"U  c #3B3C4C",
"Y  c #362751",
"T  c #3C3C53",
"R  c #413949",
"E  c #432B5A",
"W  c #433358",
"Q  c #4C2E62",
"!  c #4D3467",
"~  c #543671",
"^  c #593876",
"/  c #613D7E",
"(  c #3B4345",
")  c #3E454B",
"_  c #3C4848",
"`  c #3E4153",
"'  c #424343",
"]  c #474B47",
"[  c #44454A",
"{  c #454A4B",
"}  c #4A4E4A",
"|  c #554747",
" . c #4A504B",
".. c #444454",
"X. c #454C55",
"o. c #4B4C53",
"O. c #43455A",
"+. c #4A4B5B",
"@. c #4D5454",
"#. c #4A5658",
"$. c #4C545B",
"%. c #535455",
"&. c #585D54",
"*. c #52565C",
"=. c #535B5C",
"-. c #5B5C5C",
";. c #7A5345",
":. c #615B55",
">. c #57615F",
",. c #4A4D64",
"<. c #58406B",
"1. c #4E5168",
"2. c #525463",
"3. c #575B67",
"4. c #5B5D63",
"5. c #52556D",
"6. c #575A73",
"7. c #566264",
"8. c #5A6365",
"9. c #5C6269",
"0. c #5D696A",
"q. c #5D6173",
"w. c #5D617C",
"e. c #656464",
"r. c #62646A",
"t. c #646C6D",
"y. c #69696B",
"u. c #636775",
"i. c #696C72",
"p. c #63657B",
"a. c #657272",
"s. c #6D7070",
"d. c #6A7474",
"f. c #6B7678",
"g. c #6E7A7A",
"h. c #737374",
"j. c #747579",
"k. c #747C7D",
"l. c #7A7D7E",
"z. c #86353C",
"x. c #824538",
"c. c #855848",
"v. c #976754",
"b. c #8D745B",
"n. c #A8745B",
"m. c #D0695A",
"M. c #E47165",
"N. c #7C807F",
"B. c #99876D",
"V. c #AF906F",
"C. c #D4896C",
"Z. c #D29774",
"A. c #EA9D75",
"S. c #D3A67B",
"D. c #E8A37C",
"F. c #6A3C87",
"G. c #703D8D",
"H. c #743E94",
"J. c #5C5E80",
"K. c #6A4289",
"L. c #6E438F",
"P. c #744495",
"I. c #76459A",
"U. c #5F6381",
"Y. c #666A85",
"T. c #6A6D8D",
"R. c #6C7286",
"E. c #7B7F81",
"W. c #76798B",
"Q. c #6B6E92",
"!. c #6C7194",
"~. c #6E7399",
"^. c #767A97",
"/. c #7E49A3",
"(. c #82469E",
"). c #824AA5",
"_. c #874CAA",
"`. c #8F4FB6",
"'. c #8F50B2",
"]. c #9351BA",
"[. c #758181",
"{. c #7B8282",
"}. c #7B8788",
"|. c #7E898A",
" X c #7E8297",
".X c #7E82A2",
"XX c #838485",
"oX c #848C8C",
"OX c #8A8D8E",
"+X c #85889A",
"@X c #869191",
"#X c #8D9595",
"$X c #8F9898",
"%X c #929595",
"&X c #909898",
"*X c #98989A",
"=X c #9B9B9B",
"-X c #A09F9F",
";X c #868AA4",
":X c #8D92AB",
">X c #9396AC",
",X c #979CB5",
"<X c #9CA4A4",
"1X c #9CA3A8",
"2X c #9FA2B4",
"3X c #9DA3BC",
"4X c #A4A4A5",
"5X c #A2A8A8",
"6X c #ABACAB",
"7X c #AFB0AF",
"8X c #A5A9B9",
"9X c #B3B3B4",
"0X c #BBBBBB",
"qX c #D1B085",
"wX c #EFB788",
"eX c #C0BFBD",
"rX c #BEC0BE",
"tX c #EFC190",
"yX c #F8C995",
"uX c #FBCD96",
"iX c #FDD098",
"pX c #C1C1BF",
"aX c #9EA4C1",
"sX c #A1A6C1",
"dX c #A5ABC3",
"fX c #B4B6C6",
"gX c #BDC0C2",
"hX c #C3C3C3",
"jX c #CBCACA",
"kX c #CBCCD2",
"lX c #D2D3D3",
"zX c #D6D8D6",
"xX c #DADBDB",
/* pixels */
"&X&X&X&X&X&X&X&X&X&X&X&X&X&X&X&X&X&X&X&X&X&X&X&X&X&X&X&X&X&X&X|.r.#X#X&X&X&X&X&X&X&X&X&X&X&X&X&X&X&X&X&X&X&X&X&X&X&X&X&X&X&X&X&X&X&X&X&X&X&X&X&X",
"&X&X&X&X&X&X&X&X&X&X&X&X&X&X&X&X&X&X&X#X#X@X#X#X&X&X&X&X&X&X&X>.%.=.#X&X&X&X&X&X&X&X&X&X&X&X#X#X@X#X#X&X&X&X&X&X&X#X#X&X&X#X&X&X&X&X&X&X&X&X&X&X",
"&X&X&X&X&X&X&X&X&X&X&X&X&X&X&X&X&X&X&X$XXX{.@X#X&X&X&X&X&X&X#X=.h.oX8.$X&X&X&X&X&X&X&X&X&X&X$XXX{.@X#X&X&X&X&X&X#XOXoX&X<X*X&X&X&X&X&X&X&X#X#X#X",
"5X<X&X&X&X&X&X&X&X&X&X&X&X&X&X&X&X&X&X<X&X#X<X*X#X&X&X&X&X&X#Xt.-.jXOX7.@X$X&X&X&X&X$X&X&X&X<X&X#X<X*X#X&X&X&X&X#X}.{.&X<X&X&X&X&X&X&X&X#X@XXXXX",
"*X&X&X&X&X&X&X&X&X&X&X&X&X&X&X&X&X&X#X&X#X#X&X&X&X&X&X&X&X#X#X@Xv 6XlXoX=.@X#X#X&X&X&X&X&X#X&X#X#X&X&X&X&X&X&X&X#X@X&X<X&X#X#X&X&X&X&X&X#XOX{.XX",
"*X&X&X&X&X&X&X&X&X&X&X&X&X&X&X&X&X&X&X#X#X#X#X#X&X&X&X&X#X|.f.( t b zX9Xr v _ k.#X&X&X&X&X&X#X#X#X#X#X&X&X&X&X&X&X#X#X@X@X#X&X&X&X&X&X&X&X#X#X<X",
"@X#X&X&X&X&X&X&X&X&X&X&X&X&X&X&X&X&X&X#X#X#X#X#X#X#X#X$X}.0.3.3X;Xz kXhX%.q.>Xf.l.#X$X&X#X&X#X#X#X#X#X#X#X#X&X&X&X&X#X#X#X&X&X&X&X&X&X&X&X&X#X@X",
"#X#X&X&X&X&X&X&X#X&X#X&X&X&X&X&X&X&X&X&X&X&X&X@XX._ k.|.7.gX8XaX3X1.XXzX%XL :X8Xg.k.#X[.{ #.@X$X&X&X#X@XXX@X#X&X&X&X&X&X&X&X#X&X#X&X&X&X&X&X#X#X",
"&X&X&X&X&X&X&X&X*X&X*X&X&X&X&X&X&X&X&X&X&X&X&XoX_ h. .v z *X8X:XW.U.=.lXhX4.6.,Xl.=.X.=.k._ @X#X&X&X#XXX{.OX&X&X&X&X&X&X&X&X*X&X*X&X&X&X&X&X&X&X",
"&X&X&X&X&X&X&X<X5X<X5X<X&X&X&X&X&X&X&X&X&X&X&X#X{.{ r.*X4Xh.%.} ( ,.c *XlXy.c 2.' ' OXOX=.[.#X&X&X&X$X@X*X<X*X&X&X&X&X&X&X<X5X<X5X<X&X&X&X&X&X&X",
"&X&X&X&X&X&X#X#XoX}.XX@X$X&X&X&X&X&X&X&X&X&X&X&X#X#Xa.@.l.lXxXlXhXXXb *XlXy.' XXrXhX*X4.[.#X&X&X&X&X&X#X#X@X#X#X&X&X&X&X#X#XoX}.XX@X#X&X&X&X&X&X",
"&X&X&X&X&X&X&X#XoXk.{.#X#X&X&X#X#X#X&X&X&X&X&X&X&X#XoXt +.l.0XzXxXxXhXjXxX9X9XxXxX9X7.[.#X&X&X&X&X&X&X&X#X#X#X&X&X&X&X&X&X#XoXk.{.#X#X&X&X&X&X&X",
"&X&X&X&X&X&X&X#X#XoX@X#X&X&X#X#XOX#X#X&X&X&X$X$X&X#X@Xg ~.` o.oX*X*X6XlXxXxX9X*X*Xr.a.#X&X&X&X&X&X&X&X&X&X&X&X&X&X&X&X&X&X$X#XoX@X#X&X&X&X&X&X&X",
"&X&X&X&X&X&X&X&X#X#X#X&X&X&X&XoXl.oX&X&X&X&X$X&X&X#Xt...P R.:Xt . . 7 -.y.y.u     t w 0.#X&X&X&X&X&X&X&X&X&X&X&X&X&X&X&X&X&X#X#X#X&X&X&X&X&X&X&X",
"&X&X&X&X&X&X&X&X&X&X&X&X&X&X<X<X#X<X<X&X&X&X&X&X#Xa.1.Q.R.*.I r m z.o           . X U ( &X&X&X&X&X&X&X&X&X&X&X&X&X&X&X&X&X&X&X&X&X&X&X&X&X&X&X&X",
"&X&X&X&X&X&X&X&X&X&X&X&X&X&X&X#X#X#X&X&X&X&X&X&X@X{ 1.^.sX3X8Xl.m M.z.o       o V m ,._ &X&X&X&X&X&X&X&X&X#X#X#X#X#X&X&X&X&X&X&X&X&X&X&X&X&X&X&X",
"&X&X&X&X&X&X&X&X&X&X&X&X&X&X&X#X#X#X#X&X&X&X&X#Xk.e T ~.8XaXdXXX. x.M.z.r 4.2 V m.; +.g k.$X&X&X&X&X&X&X&X#XXXl.XX#X&X&X&X&X&X&X&X&X&X&X&X&X&X&X",
"&X&X&X&X&X&X#X#X@X#X#X&X&X&X&X&X&X&X#X@XoXoX#X#Xg.L 6.f q.,X8Xl.X X n n -XlXW.j -   v i.#.@X#X#XoXoX@X#X&X#X@XXX@X#X&X&X#X#X@X#X#X&X&X&X&X&X&X&X",
"&X&X&X&X&X&X&XXX{.@X&X&X&X&X&X&X&X&Xf.u ' ' 7.}.e * b ' X.c c u 2.L 3.,X8XxX>Xw.d & p.OXr k |.8.' ' y k.#X&X#X#X#X&X&X&X&XXX{.@X&X&X&X&X&X&X&X&X",
"&X&X&X&X&X&X<X#XoX<X<X&X&X&X&X&X&X<X$X8.6XxX>X .2 o.0XjXr.:XfX4.+XdXdX3XdXkX>X!.~.L p.1Xe.8.>.4XxX6X7.oX#X&X&X&X&X&X&X&X<X#XoX<X<X&X&X&X&X&X&X&X",
"&X&X&X&X&X&X<X&X@X<X<X&X&X&X&X&X&X<X5X@X@.-Xh.% O 2 N.lXl.R.9Xh >XsXsX8XsXfX,X!.5.O.:XfXe.u 2 h.0X@.oX&X&X&X&X&X&X&X&X&X<X&X@X<X<X&X&X&X&X&X&X&X",
"&X&X&X&X&X#X&X&X*X&X&X&X&X&X&X&X&X&X#X}.{ g 2. XW.;X2.l.} ` 1Xd ;XaXsX8XaXfX>XQ.T P R.g 6.,X3Xu.g @.oX&X&X&X&X&X&X&X&X#X&X&X*X&X&X&X&X&X&X&X&X&X",
"&X&X&X&X&X#X@X@X#X@X#X&X&X&X&X&X&X#Xg.8.8XdX3.b e.9.3.2...& h   h ;X,XsXsX8X;Xw.X   P .XdXp.2.3.,X8X0.oX#X&X&X&X&X&X&X#X#X@X#X@X#X&X&X&X&X&X&X&X",
"&X&X&X&X&X&X#X#X#X#X#X&X&X&X&X&X&X#X0.4.dXsX:X%.6XhX-X+.^.t K Y 1 8 O.^.^.~.T.G 3 Y L ^.u.OXh.X.,XfXs.g.#X&X&X&X&X&X&X&X&X$X$X#X#X&X&X&X&X&X&X&X",
"*X&X&X&X&X&X&X&X&X&X&X&X&X&X&X&X&X#Xg.O.w.6.^.>X[ 6XlX4XU d 1 0 ^ ).Q q q q S P.K.Y 2 ,.h.*X2.;X+X^.X.[.#X&X&X&X&X&X&X&X&X&X&X&X&X&X&X&X&X&X&X<X",
"&X#X#X&X&X&X&X&X&X&X&X<X5X*X&X&X&X&X#Xd.r V | ~.Y.q.+XW.5.d ! ! E Q Q Q Q Q Q Q E ! d 6.p.R.` 4 $ X.E.&X&X&X&X&X&X&X&X&X&X&X&X&X&X&X&X&X&X&X*X<X",
"l.{.@X#X&X&X&X&X&X&X&X<X&XoX#X#X&X&X#Xs.B.wXZ.B g +.!.T.,.c 7 K /.G.F.F.F.F.F.G./.Y c ` T.o.V.V.Z <X<X5X<X&X&X&X&X&X&X&X&X&X&X&X&X&X&X&X#X&X5X<X",
"{.{.@X#X&X&X&X&X&X&X<X<X@Xl.XX#X&X#Xf.;.wXiXuXtXqXv.N n - ( d.%.f F.H.H.H.H.P.Q f %.h.( p V.yXuXC.:.l.oX@X#X&X&X&X&X&X&X&X&X&X&X&X&X&X&X&X#X@X@X",
"#X#X#X&X&X&X&X&X&X#X#X@XoXXXoX#X#X@X>.n.yXuXuXiXiXuXyXD.;.=.E.E.l.[ I I b 7 t [ k.l.E.%.c.tXiXiXwXqX&.j.#X#X&X&X&X&X&X&X&X&X&X&X&X&X&X&X&X#X#X#X",
"&X&X&X&X&X&X&X&X&X&X#X#X#X#X#X#X@X[.| tXuXiXiXiXyXD.D.A.;.=.E.N.l.E.{.E.l.%.%.l.l.E.{.%.c.tXiXiXiXuXqX&.#X&X&X&X&X&X&X&X&X&X&X&X&X&X&X&X&X&X&X&X",
"&X&X&X&X&X&X&X&X&X&X&X&X&X&X@Xd._ I g b.D.yXuXiXtXZ.n.n s o.g.{.E.l.l.N.{.-.>.{.N.l.E.@.c.A.yXiXtXS.V.p }.<X5X<X5X<X&X&X&X&X&X&X&X&X&X&X&X&X&X&X",
"&X&X&X&X&X&X&X&X&X&X&X&X&X$Xa.|.8X3X,Xu.;.wXiXwXC.B 1 l I g $.i.k.{.{.{.i.' [ i.E.{.i.P M C.A.wXv.[ %.o.t.[.@XoXOX#X#X&X&X&X&X&X&X&X&X&X&X&X&X&X",
"&X&X&X&X&X&X&X&X&X&X&X&X&X#Xz i.3XaX+X6.5.B b.C.B q H 8 c I e e g u b ] ' ] { ' ( a t 4 9 n M M o.2.3X3X} u d.k.}.#X&X&X&X&X&X&X&X&X&X&X&X&X&X&X",
"&X&X&X&X&X&X#X#X@X#X#X&X#X7.b oX>X+Xr.+XY.& - - q J J F 6 L ) ) ) 2 v ( 4.%.%.e.o.y } < H 0 O % w.*Xi.2X9Xh.u |.@X#X&X&X#X#X@X#X#X&X&X&X&X&X&X&X",
"&X&X&X&X&X&X&XXX{.@X&X&X#X@.6XjX8Xo.hXhXW.& u O S J J J J 5 c $.$.) % k { ] [ ] * } @.8 J S @ % p.hXy.W.#X9X' #X#X&X&X&X&XXX{.@X&X&X&X&X&X&X&X&X",
"&X&X&X&X&X&X<X#X@X*X*X&X#X@.6X&XW.[ 0XXXq.& u O S J J J F J + $.$.) & t [ [ [ v * b 2 D F S O * 5.r.-.^.;X9.r #X#X&X&X&X<X#X@X*X*X&X&X&X&X&X&X&X",
"&X&X&X&X&X#X&X&X*X&X&X&X#X@.%Xo.>X[ %X) Y.t * X S J J J J J O ) _ 2 c v %.[ c @.{ g O D J 0 X P T.5.u +XsX2.e #X#X&X&X#X&X&X*X&X&X&X&X&X&X&X&X&X",
"&X&X&X&X&X#X@X@X#X@X#X&X#X#.%.X.R.c %.1.~.5.% + S H H J J 0 % % * * w * r : 2 r w 2 % 9 J # * T ~.Y.O.p.3X2.g.#X&X&X&X#X@X@X#X@X#X&X&X&X&X&X&X&X",
"&X&X&X&X&X&X#X#X$X$X#X&X$X$.=.a.t P t P U.6.% $ 1 H F H J + r u s x } } } } } } } b r # H @ * ` ~.R.h.XXq.3.g.#X&X&X&X&X&X$X#X$X#X&X&X&X&X&X&X&X",
"*X&X&X&X&X&X&X&X&X&X&X&X&X@X#X@X_ u 4X4X^.6.% - - 9 H J J # % & * * * % * : * * % & $ @ H + % ` !.w.y.eXc 3.g.#X&X&X&X&X&X&X&X&X&X&X&X&X&X&X&X<X",
"&X#X#X&X&X&X&X&X&X&X&X<X5X*X&XoX) * E.6X^.5.& * v.v.q F J # c 9.k.l.d.t X.k.t.[ e *.c # q n ; h Y.!.,.j.t ..g.#X&X&X&X&X&X&X&X&X&X&X&X&X&X&X*X<X",
"l.{.@X#X&X&X&X&X&X&X&X<X&XoX#Xa.G < % ..Y.6.+.6.[ A - S J @ * I j.l.{.o.$.E.E.X.g h.* # 1 M | t g O.!.+.& $.oX$X&X&X&X&X&X&X&X&X&X&X&X&X#X&X5X<X",
"{.{.@X#X&X&X&X&X&X&X<X<X@Xl.XXa.Y & . L U ) >X,X6.- c.7 9 * u * I k.l.k.4.l.l.*.4.r.& * A n j ^.+XR.d 2 X 8.#X&X&X&X&X&X&X&X&X&X&X&X&X&X&X#X@X@X",
"#X#X#X&X&X&X&X&X&X#X#X@XoXXXl.W L.3 3 * +X8X^.4XN D.C.- 3 * ] Z * =.l.E.t.l.l.4.l.9.& * c.A.n.j.W.aX:XU c #X&X&X&X&X&X&X&X&X&X&X&X&X&X&X&X#X#X#X",
"&X&X&X&X&X&X&X&X&X&X#X#X#X#X{.W L.1 5 o.u.;X3.OXZ tXc.9 3 * ] } Z * i.E.{.E.E.8.E.9.* u n Z.V.k.{ .Xp.W.b #X&X&X&X&X&X&X&X&X&X&X&X&X&X&X&X&X&X&X",
"&X&X&X&X&X&X&X&X#X&X&X&X&X$Xo.K.K 9 9 %.4XU ..l.*X> 9 q & b } } } r b {.E.E.E.k.E.8.* s < p :.6XN 1.y.*Xb #X&X&X&X&X&X&X&X&X#X&X&X&X&X&X&X&X&X&X",
"&X&X&X&X&X&X<X&X#X<X*X&X&XXX! I.q 0 q [ 6X* M N 9X-.9 0 % Z } } } u z E.E.E.E.E.{.*.y s 3 t 6Xe.A X h.OXU oX&X&X&X&X&X&X<X&X#X<X*X&X&X&X&X&X&X&X",
"&X&X&X&X&X#X&X&X*X&X&X&X#X$.L.^ 9 D J 3 *X%.O 3 -.-.5 0 $ ' } } } Z z l.{.{.d.k.{.x C ' 4 2 E.h < * 4X' Y #.#X&X&X&X&X#X&X&X*X&X&X&X&X&X&X&X&X&X",
"&X&X&X&X&X#X@X@X#X@X#X&Xj.<._.E 3 J J D b h.1 D f 4.6 0 % ' } } } Z z E.{.{.9.j.{.c C } r r e.3 S c y.W F.=.$X&X&X&X&X#X@X@X#X@X#X&X&X&X&X&X&X&X",
"&X&X&X&X&X&X#X#X#X#X&X&Xt.~ /.K 9 J H H 8 e.f D S ' u X z } } } } Z g l.E.{.*.t.{.c C } u %.8 J 0 ' b E /.K k.#X&X&X&X&X#X#X#X#X#X&X&X&X&X&X&X&X",
"*X&X&X&X&X&X&X&X&X&X&X@X2.P.^ < H J J J H f -.h H 0 3 X x } }  .} ' r 9.l.j.y { =.* C } r < H 9 o.[ + E `.! g.$X&X&X$X$X&X&X&X&X&X&X&X&X&X&X&X<X",
"&X#X#X&X&X&X&X&X&X&X&XoXW ].~ , H J J J J H d & D H < 2 z } } } } ] u v $.$.2 % t b ] } t 9 J 3 7 S 3 E '._.T #X$X&X&X$X&X&X&X&X&X&X&X&X&X&X*X<X",
"l.{.@X#X&X&X&X&X&X&X&X.._._.Q 3 H J H J J J H D J J @ u r a x x C b * @ < O X u ] } } } ] * D H D J H < F.].j #X#X&X&X&X&X&X&X&X&X&X&X&X#X&X5X<X",
"{.{.@X#X&X&X&X&X&X&X<XR '.L.3 D J J J J J J J J J 0 & r c 3.3.r.x r , J J 3 * u C }  . .C & D H J J J # ^ ].j #X#X&X&X&X&X&X&X&X&X&X&X&X&X#X@X@X",
"#X#X#X&X&X&X&X&X&X#X7.K.].L.1 S J J J J J J J J J 3 * g +X3XsXdX1X2 S J J D & r u y r r * O S J J J J 0 q /.I.X.#X&X&X&X&X&X&X&X&X&X&X&X&X#X#X#X",
"&X&X&X&X&X&X&X&X&XoX+.(.]./ 3 S J J J J J J J J J 3 X p.6.u.3X3X9.O S H J J , r r 2.:X>X#Xr , J J J J S < P.'.l &X&X&X&X&X&X&X&X&X&X&X&X&X&X&X&X",
"&X&X&X&X&X&X&X&X&Xt.^ ].'.K 0 J J J J J J J J J S f * T.1XoXp.,X6Xe.1 H J J , O h r.u.3XW.-.< J J H H D 1 I.`.c 1X<X&X&X&X&X&X&X&X&X&X&X&X&X&X&X",
"&X&X&X&X&X&X&X&X&Xt.^ ]./.0 0 J J J J J J J J J 0 L g T.9XxXg 2XpX0X4 J J J < U h 8X*X9.8XhXj.9 J H H D < I.'.l oX#X#X&X&X&X&X&X&X&X&X&X&X&X&X&X",
"&X&X&X&X&X&X&X&X&Xt.^ ].).0 0 J J J J J J J J H 6 O 4 6.*.hXg W.y.7X4 J H D < U G }.6X..:XoXh.3 J J H D 1 I.'.g }.#X&X&X&X&X&X&X&X&X&X&X&X&X&X&X",
"&X&X&X&X&X&X&X#X@Xt.Q '.).0 0 J J J J J J J H 5 O % 1.!.T *Xt ;Xg 4X4 J J 5 * % h 1.-.) 3X3.X 3 J J H H < K._.l @X#X&X&X#X#X@X#X#X&X&X&X&X&X&X&X",
"&X&X&X&X&X&X&XXX{.t.Y ).).0 0 D S d d d d d S < U O 5.!.w.+.5.5.9 b < J J 5 * 2 6.!.1.6.:X:X* 8 d d d 6 < ~ W g.&X&X&X&X&XXX{.@X&X&X&X&X&X&X&X&X",
"&X&X&X&X&X&X<X&X@X&XX.~ P.0 7 g l k.@XXX}.f.k * 6.U 5.!.5...Q.O.5 0 1 0 0 1 & 2 T.Q.[ I 2.Y.2 0.}.}.}.k.2 T g.#X&X&X&X&X<X#X@X*X*X&X&X&X&X&X&X&X",
"&X&X&X&X&X#X&X&X*X&Xd.T ~ 0 X.@X#X&X#X#X#X#X#Xv & U J.!.+Xj.,...9 9 l @.o.l O.f T.!.h.hXr.,.P #X#X#X#X#X#.g.#X&X&X&X&X$X&X&X*X&X&X&X&X&X&X&X&X&X",
"&X&X&X&X&X#X@X@X#X@X#Xd.L e [.#X&X#X}.l.XX#X#Xv % L ~.!.+XjX* t 4 0.l.@X@X0.4 4 T.!.1.h.4.,.l XX#X&X&X&X#X#X&X&X&X&X&X#X@X@X#X@X#X&X&X&X&X&X&X&X",
"&X&X&X&X&X&X#X#X#X#X#X#X|.}.#X&X&X#XoX{.XX#X|.k * l T.!.5.h.o _ |.#X#X#X#X0.* * w.!.!.5.2 U l oX#X&X&X&X&X&X&X&X&X&X&X&X#X#X#X#X#X&X&X&X&X&X&X&X",
"*X&X&X&X&X&X&X&X&X&X&X&X&X&X&X&X&X#X#X#X#X#X=.* u t P O.O.2 % d.#X&X&X&X&X0.* r d O.O.O.e O w [.#X&X&X&X&X&X&X&X&X&X&X&X&X&X&X&X&X&X&X&X&X&X&X<X",
"&X#X#X&X&X&X&X&X&X&X&X<X5X*X&X&X&X&X&X&X&X&X=.w ' ] z s z r % 0.#X&X&X&X&X$X( u u s s s z u % #.$X&X&X&X&X&X&X&X&X&X&X&X&X&X&X&X&X&X&X&X&X&X*X<X",
"l.{.@X#X&X&X&X&X&X&X&X<X&XoX#X#X&X&X&X&X&X<X7.r } }  . .} ' r _ #X&X&X&X*X<X_ u ] } } ' a u u g |.5X<X5X<X&X&X&X&X&X&X&X&X&X&X&X&X&X&X&X#X&X5X<X",
"{.{.@X#X&X&X&X&X&X&X<X<X@Xl.XX#X&X&X&X&X&X#X@.7 }  .} } ' z x r a.#X&X&X<X<X_ u ] }  . . .}  .a g.oXXXoX@X#X&X&X&X&X&X&X&X&X&X&X&X&X&X&X&X#X@X@X",
"#X#X#X&X&X&X&X&X&X#X#X@XoXXXoX#X&X&X&X&X&X#X@.r ] } } } } } } a t.#X&X#X@XoXa.e r r r r r r r w g.oXk.{.#X#X&X&X&X&X&X&X&X&X&X&X&X&X&X&X&X#X#X#X",
"&X&X&X&X&X&X&X&X&X&X#X#X#X#X#X#X&X&X&X&X&X#XoX_ y y y y y y y w g.#X&X#X#X#X#X|.}.}.}.}.}.}.}.|.#X#XoXOX#X&X&X&X&X&X&X&X&X&X&X&X&X&X&X&X&X&X&X&X",
"&X&X&X&X&X&X&X&X&X&X&X&X&X&X&X&X&X&X&X&X&X&X#X#X#X#X#X#X#X#X#X#X&X&X&X&X&X&X&X#X#X#X#X$X$X$X$X#X&X#X#X#X&X&X&X&X&X&X&X&X&X&X&X&X&X&X&X&X&X&X&X&X"
};
