/* XPM */
static char *_fdae17ecf8e4e51c352f495e54c44c67qXU6Kvdq0vVJu9d[] = {
/* columns rows colors chars-per-pixel */
"72 72 52 1 ",
"  c #282828",
". c #2F2F2F",
"X c #3B3D3D",
"o c #3C3E3E",
"O c #3F4242",
"+ c #424444",
"@ c #444646",
"# c #464949",
"$ c #4B4D4D",
"% c #4D4F4F",
"& c #4D5050",
"* c #545B5B",
"= c #565D5D",
"- c #585F5F",
"; c #5A6161",
": c #636B6B",
"> c #656D6D",
", c #6F7676",
"< c #717777",
"1 c #737A7A",
"2 c #747B7B",
"3 c #777E7E",
"4 c #798080",
"5 c #7C8383",
"6 c #7E8585",
"7 c #808787",
"8 c #838A8A",
"9 c #848B8B",
"0 c #858C8C",
"q c #888F8F",
"w c #899191",
"e c #8C9393",
"r c #8D9595",
"t c #909898",
"y c #939D9D",
"u c #949C9C",
"i c #98A0A0",
"p c #9DA5A5",
"a c #A1A9A9",
"s c #A7AFAF",
"d c #ABB3B3",
"f c #AFB7B7",
"g c #B2BABA",
"h c #B5BDBD",
"j c #B9C1C1",
"k c #BBC3C3",
"l c #BFC7C7",
"z c #C3CBCB",
"x c #C5CDCD",
"c c #C9D1D1",
"v c #CDD5D5",
"b c #D0D8D8",
/* pixels */
"ttttrrrrrrrrrrrrrrrrrrrrrrrrrrrrrrrrrrrrrrrrrrrrrrrrrrrrrrrrrrrrrrrrtttr",
"ttttgggggggggggggggggggggggggggfaaaaaaadgggggggggggggggggggggggggggirtrf",
"ttttvvvvvvvvvvvvvvvvvvvvvvvvvvvxffffffflvvvvvvvvvvvvvvvvvvvvvvvvvvvprtrz",
"ttttccccccccccccccccccccccccccczdfffffdjcccccccccccccccccccccccccccprtrl",
"ttttccccccccccccccccccccccccccczdfffffdjcccccccccccccccccccccccccccprtrl",
"ttttccccccccccccccccccccccccccczdfffffdjcccccccccccccccccccccccccccprtrl",
"tttuccccccccccccccccccccccccccczdfffffdjvccccccccccccccccccccccccccprtrl",
"ttttccccccccccccccccccccccccccczdfffffdjcccccccccccccccccccccccccccprtrl",
"4446cccccccccccccccxggggggggggggffffffffgggggggggggggggzccccccccccve343j",
"1113ccccccccccccccczddddddddddddfffffffddddddddddddddddlccccccccccv0,1,j",
"2214ccccccccccccccczffffffffffffffffffffffffffffffffffdlccccccccccvq121j",
"2214ccccccccccccccczffffffffffffffffffffffffffffffffffdlccccccccccvq121j",
"2214ccccccccccccccczdfffffffffffffffffffffffffffffffffdlccccccccccvq111j",
"2214cccccccccccccccxdfffffffffffffffffffffffffffffffffdzvcccccccccvq<11j",
"2214ccccccccxxxxxxxldfffffffffffffffffffffffffffffffffdlxxxxxxxcccvq<11h",
"2214cccccccxfffffffffffffffffffffffffffffffffffffffffffffffffffzccvq121j",
"2214cccccccxdffddddffffffffffffffffffffffffffffffffffffddddddddzccvq121j",
"2214cccccccxffffffffffffffffffffffffffffffffffffffffffffffffffdzccvq121j",
"2214cccccccxffffffffffffffffffffffffffffffffffffffffffffffffffdzccvq121j",
"2214cccccccxffffffffffffffffffffffffffffffffffffffffffffffffffdzccvq121j",
"2214cccccccxdfffffffffffffffffffffffffffffffffffffffffffffffffdzccvq111j",
"2214cccccccxdffffffffffffffffffffffffffffffffffffffffffffffffffzccvq<11j",
"2214cccccccxdfffffffffffffffffffffffffffffffffffffffffffffffffdzccvq<11h",
"2214cccccccxdfffffffffffffffffffffffffffffffffffffffffffffffffdzccvq121j",
"2214cccccccxdfffffffffffffffffffffffffffffffffffffffffffffffffdzccvq121j",
"2214cccccccxdfffffffffffffffffffffffffffffffffffffffffffffffffdzccvq121j",
"2214cccccccxdfffffffffffffffffffffffffffffffffffffffffffffffffdzccvq121j",
"2214cccccccxdfffffffffffffffffffffffffffffffffffffffffffffffffdzccvq121j",
"2214cccccccxffffffffffffffffffffffffffffffffffffffffffffffffffdzccvq111j",
"2214cccccccxffffffffffffffffffffffffffffffffffffffffffffffffffdzccvq<11j",
"2214cccccccxffffffffffffffffffffffffffffffffffffffffffffffffffdzccvq<11h",
"2214cccccccxffffffffffffffffffffffffffffffffffffffffffffffffffdzccvq121j",
"2214cccccccxffffffffffffffffffffffffffffffffffffffffffffffffffdzccvq121j",
"2214cccccccxffffffffffffffffffffffffffffffffffffffffffffffffffdzccvq121j",
"2214cccccccxdffffffffffffffffffffffffffffffffffffffffffffffddddzccvq121j",
"2214cccccccxllzldfffffffffffffffffffffffffffffffffffffffffdjlllxccvq121j",
"2214ccccccccccvxdfffffffffffffffffffffffffffffffffffffffffdzccccccvq111j",
"2214cccccccccccxdfffffffffffffffffffffffffffffffffffffffffdzccccccvq111h",
"2214cccccccccccxdfffffffffffffffffffffffffffffffffffffffffdzccccccvq111h",
"2214cccccccccccxdfffffffffffffffffffffffffffffffffffffffffdzccccccvq121j",
"2214cccccccccccxddffffffffffffffddddfffffffffffffffdffffdfdzccccccvq121j",
"2214cccccccccccxfffffffffffffffffffffffffffffffffffffffffffzccccccvq121j",
"2214cccccccccccczzzxzzxxxxxlffdgxzxjdfffffffffdjxxxxxxxxzzzxccccccvq121j",
"2214ccccccccccccccccccccccvzffdhvccldfffffffffdlvcccccccccccccccccvq121j",
"2214ccccccccccccccccccccccczfffhcccldfffffffffdjccccccccccccccccccvq121j",
"2214ccccccccccccccccccccccczfffhcccldfffffffffdjccccccccccccccccccvq121j",
"2214ccccccccccccccccccccccczfffhcccldfffffffffdjccccccccccccccccccvq121j",
"3334vvvvvvvvvvvvvvvvvvvvcvvxfffjvvvzffffffffffflvvvvvvvvvvvvvvvvvvbw131j",
"<<,2jllllljjlzzzzzzzzzzzzzzjdddgzzzhsdddddddddshzzzlllllljllzllzzzx8,<,g",
"---;33333334ttttttttttttttttttttttttttttttttttttttu833333330rrrtttu>=-=0",
"===-11111111rrrrrrrrrrrrrrrrrrrrrrrrrrrrrrrrrrrrrrt6<1111<,7wwwrrrt:*=*8",
"===;22222223ttttttttttttttttttttttttttttttttttttttt712222118rwwrttt>===0",
"===;22222223ttttttttttttttttttttttttttttttttttttttt712222219rwwrttt>===0",
"===;22222223ttttttttttttttttttttttttttttttttttttttt712222219rwwrttt>===0",
"===;22221113ttttttttttttttttttttttttttttttttttttttt6<1111110rrrtttt>===0",
"===;22236666ttttttttttttttttttttttttttttttttttttttt056666668098rttt>===6",
"===;2223ttttttttttttttttttttttttttttttttttttttttttttttttttt6111wttt>===,",
"===;2223ttttttttttttttttttttttttttttttttttttttttttttttttttt6121wttt>===,",
"===;2223ttttttttttttttttttttttttttttttttttttttttttttttttttt6121wttt>===,",
"===;2223ttttttttttttttttttttttttttttttttttttttttttttttttttt6121wttt>===,",
"===;2223ttttttttttttttttttttttttttttttttttttttttttttttttttt6121wttt>===,",
"===;1113ttttttttttttttttttttttttttttttttttttttttttttttttttt51110ttt>===,",
"===;8888tttttttttttr88888880ttttttttttttttttttttttttttttttt0888rttt>===,",
"===;tttttttttttttttw11111114ttttttttttttttttttttttttttttttttttttttt>===,",
"===;tttttttttttttttw12222215ttttttttttttttttttttttttttttttttttttttt>===,",
"===;tttttttttttttttw12222215ttttttttttttttttttttttttttttttttttttttt>===,",
"===;tttttttttttttttw12222215ttttttttttttttttttttttttttttttttttttttt>===,",
"---;tttttttttttttttw23333326tttttttttttttttttttttttttttttttttttttty>=-=,",
";;;;ttttttttttttttur33333336utttttttttttttttttuutttttttttttttttuttu>=;=<",
"XXXo%%%%%%%%%%%%%%%$@@@@@@@#%%%%%%%%%%%%%%%%%%&&%%%%%%%%%%%%%%%&%%&OXXX+",
"....                                                                ... ",
"........................................................................"
};
